<svg width="140" height="140" viewBox="0 0 140 140" fill="none" xmlns="http://www.w3.org/2000/svg">
<path d="M0.428981 74.1961C1.8785 61.4729 4.19544 44.8697 15.2665 31.0186C33.8477 7.64776 59.4025 -2.83079 87.6281 0.654541C103.367 2.59459 119.392 10.6593 127.826 29.2139C136.466 48.1407 140.872 67.0901 139.856 87.3027C139.491 94.6569 136.432 102.507 132.552 108.959C117.554 134.225 85.8248 143.993 61.6281 138.534C42.4877 134.225 25.8354 127.457 11.6941 113.516C1.39913 103.41 -1.14608 91.7017 0.428981 74.1961Z" fill="#16559D"/>
<path d="M90.2114 82.0718C89.9284 82.6851 89.8152 83.1868 89.8718 83.5771C89.985 83.9674 89.985 84.3576 89.8718 84.7479C89.6454 84.8594 89.4473 84.9988 89.2775 85.166C89.1643 85.3333 88.9944 85.4448 88.768 85.5005C88.8246 85.835 88.7114 86.0581 88.4284 86.1696C88.1454 86.2811 88.0605 86.5319 88.1737 86.9222C87.6077 87.3682 87.07 87.8421 86.5606 88.3439C86.0512 88.8457 85.5418 89.3474 85.0324 89.8492C84.4098 89.9049 83.9287 90.1001 83.5891 90.4346C83.2495 90.7133 82.825 90.9921 82.3156 91.2709C81.2402 90.8806 80.1931 90.8806 79.1743 91.2709C78.8347 91.7169 78.4102 92.0235 77.9008 92.1908C77.3914 92.358 76.9669 92.6647 76.6273 93.1107C76.6273 93.724 76.8537 94.1978 77.3065 94.5324C77.2499 95.0341 77.3065 95.4523 77.4763 95.7868C77.6461 96.0655 77.7876 96.4279 77.9008 96.8739C77.9574 97.2642 77.9857 97.6266 77.9857 97.9611C77.9857 98.2956 77.9857 98.658 77.9857 99.0483C77.9857 99.4385 78.014 99.8009 78.0706 100.135C78.1838 100.47 78.2404 100.832 78.2404 101.223C78.2404 101.501 78.1555 101.641 77.9857 101.641C77.8159 101.696 77.6744 101.808 77.5612 101.975C77.6178 102.254 77.5329 102.421 77.3065 102.477C77.1367 102.533 77.0235 102.672 76.9669 102.895C75.5519 103.062 74.5614 103.09 73.9954 102.979C73.486 102.867 73.1464 102.672 72.9766 102.393C72.8068 102.17 72.6653 101.892 72.5521 101.557C72.4389 101.223 72.071 100.888 71.4484 100.554C71.3352 99.9403 71.1371 99.3549 70.8541 98.7974C70.6277 98.2399 70.4013 97.6545 70.1749 97.0412C70.2315 96.0934 70.09 95.4523 69.7504 95.1178C69.4674 94.7832 69.0995 94.5324 68.6467 94.3651C68.1939 94.1978 67.7411 94.1421 67.2883 94.1978C66.8355 94.1978 66.4393 94.3094 66.0997 94.5324C65.9865 94.2536 65.7884 94.17 65.5054 94.2815C65.2224 94.3372 64.9677 94.3651 64.7413 94.3651C64.3451 94.3651 63.9772 94.2815 63.6376 94.1142C63.3546 93.8912 63.0716 93.6682 62.7886 93.4452C62.5056 93.3894 62.2792 93.4173 62.1094 93.5288C61.9396 93.6403 61.7415 93.6682 61.5151 93.6125C60.8925 93.1107 60.2133 92.8877 59.4775 92.9434C59.1379 92.4974 58.7134 92.1908 58.204 92.0235C57.6946 91.8563 57.2135 91.6611 56.7607 91.4381C56.8739 91.2151 56.8173 91.0757 56.5909 91.02C56.3645 90.9642 56.2796 90.797 56.3362 90.5182C55.7136 90.6297 55.2891 90.5461 55.0627 90.2673C54.8929 89.9328 54.5816 89.7377 54.1288 89.6819C54.1288 89.1802 53.9873 88.8178 53.7043 88.5948C53.4213 88.3718 53.0817 88.1766 52.6855 88.0094C52.4025 87.1731 52.2327 86.2253 52.1761 85.166C52.1195 84.1067 52.2893 83.1868 52.6855 82.4063C53.6477 82.0718 54.4967 81.5143 55.2325 80.7337C55.6853 80.7895 56.1381 81.0404 56.5909 81.4864C57.0437 81.9324 57.3267 82.1833 57.4399 82.239C57.5531 82.239 57.8078 82.2948 58.204 82.4063C57.921 83.2983 58.1191 84.1346 58.7983 84.9151C59.4775 84.9151 59.9303 84.9988 60.1567 85.166C60.3831 85.2775 60.5529 85.4448 60.6661 85.6678C60.7793 85.835 60.9491 86.0023 61.1755 86.1696C61.4019 86.3368 61.8264 86.4204 62.449 86.4204L64.4866 87.8421C64.4866 87.8421 64.6281 87.8979 64.9111 88.0094C65.1941 88.0651 65.4771 88.1488 65.7601 88.2603C66.0997 88.316 66.411 88.3718 66.694 88.4275C66.977 88.4833 67.1468 88.5111 67.2034 88.5111C67.4298 88.5111 67.6279 88.4833 67.7977 88.4275C67.9675 88.316 68.1656 88.2603 68.392 88.2603C68.7882 88.316 69.2976 88.3439 69.9202 88.3439C70.5428 88.3439 70.9956 88.1209 71.2786 87.6749C71.4484 87.6749 71.7597 87.647 72.2125 87.5912C72.7219 87.4797 73.2313 87.3682 73.7407 87.2567C74.3067 87.1452 74.7878 87.0337 75.184 86.9222C75.6368 86.8107 75.9198 86.6992 76.033 86.5877C76.2594 86.2532 76.4575 86.1138 76.6273 86.1696C76.7971 86.1696 76.9103 86.0581 76.9669 85.835C77.3065 85.8908 77.6178 85.8908 77.9008 85.835C78.2404 85.7235 78.6083 85.6678 79.0045 85.6678C79.5139 85.2218 79.8535 85.0266 80.0233 85.0824C80.1931 85.0824 80.3346 85.0266 80.4478 84.9151C80.6742 84.8036 80.844 84.6643 80.9572 84.497C81.0704 84.274 81.2685 84.1904 81.5515 84.2461C81.6081 84.0231 81.693 83.8837 81.8062 83.828C81.976 83.7722 82.0326 83.605 81.976 83.3262C82.2024 83.2147 82.4005 83.1032 82.5703 82.9917C82.7967 82.8802 83.0231 82.7408 83.2495 82.5736C82.9665 82.1275 82.9382 81.793 83.1646 81.57C83.4476 81.2913 83.6457 80.9567 83.7589 80.5665C83.7589 80.009 83.7589 79.4793 83.7589 78.9776C83.8155 78.42 83.6457 77.9183 83.2495 77.4722C83.0231 77.2492 82.7118 76.9984 82.3156 76.7196C81.976 76.3851 81.5798 76.1063 81.127 75.8833C80.7308 75.6046 80.3063 75.4094 79.8535 75.2979C79.4007 75.1864 79.0045 75.1864 78.6649 75.2979C78.1555 75.0192 77.5612 74.8519 76.882 74.7962C76.2028 74.7404 75.5236 74.7404 74.8444 74.7962C74.1652 74.7962 73.5143 74.7683 72.8917 74.7125C72.2691 74.6568 71.7314 74.4895 71.2786 74.2108C70.939 74.3223 70.5994 74.4338 70.2598 74.5453C69.9202 74.601 69.5806 74.6289 69.241 74.6289C68.4486 74.6289 67.6845 74.5453 66.9487 74.378C66.2129 74.155 65.4488 74.0435 64.6564 74.0435C64.2602 74.0435 63.8923 74.0714 63.5527 74.1271C63.2131 74.1829 62.8735 74.2108 62.5339 74.2108C62.2509 74.2108 61.9962 74.155 61.7698 74.0435C61.6 73.932 61.4019 73.8762 61.1755 73.8762C60.7227 73.9877 60.468 73.9877 60.4114 73.8762C60.4114 73.7647 60.2699 73.709 59.9869 73.709C59.8171 73.709 59.619 73.7369 59.3926 73.7926C59.1662 73.8484 58.9681 73.8205 58.7983 73.709C58.5153 73.4302 58.204 73.1793 57.8644 72.9563C57.5814 72.6776 57.2135 72.5103 56.7607 72.4546C56.7607 72.2316 56.7041 72.0643 56.5909 71.9528C56.4777 71.8413 56.3928 71.7019 56.3362 71.5347C55.94 71.5347 55.6853 71.3953 55.5721 71.1165C55.4589 70.8378 55.1759 70.7263 54.7231 70.782L54.1288 69.8621C54.0156 69.7506 53.8741 69.667 53.7043 69.6112C53.5345 69.5555 53.393 69.4718 53.2798 69.3603C52.9968 69.0816 52.7421 68.8028 52.5157 68.5241C52.3459 68.2453 52.0346 68.1059 51.5818 68.1059C51.6384 67.4926 51.5535 67.1581 51.3271 67.1024C51.1573 67.0466 50.9309 66.8236 50.6479 66.4334C50.6479 66.1546 50.6479 65.848 50.6479 65.5134C50.7045 65.1789 50.7328 64.8723 50.7328 64.5935C50.7328 64.3148 50.6762 64.036 50.563 63.7573C50.5064 63.4785 50.4781 63.1997 50.4781 62.921C50.4781 62.698 50.5347 62.5307 50.6479 62.4192C50.8177 62.252 50.9026 62.0847 50.9026 61.9174C50.9026 61.6944 50.8177 61.5551 50.6479 61.4993C50.4781 61.4436 50.4215 61.2763 50.4781 60.9975C50.9875 60.3285 51.2139 59.771 51.1573 59.325C51.1007 58.879 51.129 58.4329 51.2422 57.9869C51.412 57.3737 51.695 56.8719 52.0912 56.4816C52.544 56.0356 52.7987 55.506 52.8553 54.8927C53.2515 54.7254 53.5345 54.5024 53.7043 54.2237C53.9307 53.8892 54.2703 53.694 54.7231 53.6383C54.7797 53.3595 54.7514 53.1365 54.6382 52.9692C54.525 52.802 54.4967 52.579 54.5533 52.3002C54.8363 52.133 55.091 51.91 55.3174 51.6312C55.5438 51.3524 55.8268 51.1573 56.1664 51.0458C56.3362 50.9343 56.4211 50.7949 56.4211 50.6277C56.4777 50.4047 56.5909 50.2374 56.7607 50.1259C57.7795 50.1259 58.6851 49.7078 59.4775 48.8715C59.7039 48.8715 59.902 48.8994 60.0718 48.9551C60.2982 48.9551 60.5246 48.9272 60.751 48.8715C61.034 48.8715 61.2321 48.7879 61.3453 48.6206C61.4585 48.4533 61.6283 48.314 61.8547 48.2025C62.4773 48.091 63.0433 48.0352 63.5527 48.0352C64.1187 48.0352 64.6564 47.8958 65.1658 47.6171C65.1092 47.2825 65.1092 46.9759 65.1658 46.6972C65.279 46.3626 65.3639 46.056 65.4205 45.7772C65.5337 45.4427 65.6186 45.1361 65.6752 44.8573C65.7318 44.5786 65.7035 44.2998 65.5903 44.0211C65.7601 43.575 65.9582 43.1569 66.1846 42.7666C66.411 42.3764 66.5242 41.9582 66.5242 41.5122C66.5242 41.2892 66.4393 41.122 66.2695 41.0104C66.1563 40.8432 66.0997 40.7038 66.0997 40.5923C66.2129 40.0905 66.2129 39.756 66.0997 39.5888C65.9865 39.3658 65.9299 39.1706 65.9299 39.0034C65.9299 38.8361 65.9582 38.6967 66.0148 38.5852C66.128 38.4737 66.2129 38.3344 66.2695 38.1671C66.3827 38.0556 66.411 37.9162 66.3544 37.749C66.3544 37.5817 66.411 37.4423 66.5242 37.3308C66.9204 37.3866 67.2034 37.3308 67.3732 37.1636C67.543 36.9963 67.6845 36.7454 67.7977 36.4109C68.0807 36.4667 68.3071 36.4667 68.4769 36.4109C68.7033 36.2994 68.958 36.2437 69.241 36.2437C69.6938 36.2437 70.1183 36.3552 70.5145 36.5782C70.9107 36.8012 71.3352 36.9127 71.788 36.9127C71.9578 37.2472 72.1276 37.5538 72.2974 37.8326C72.5238 38.1113 72.8068 38.3622 73.1464 38.5852C72.9766 38.7525 72.92 39.0034 72.9766 39.3379C73.0332 39.6724 72.9483 39.8954 72.7219 40.0069C72.8917 40.4529 72.9483 40.9547 72.8917 41.5122C72.8917 42.014 72.8917 42.5436 72.8917 43.1011C72.8917 43.6029 72.8917 44.1047 72.8917 44.6065C72.9483 45.0525 73.0898 45.4427 73.3162 45.7772C73.0898 45.833 73.0049 46.0281 73.0615 46.3626C73.1181 46.6972 73.1464 46.948 73.1464 47.1153C73.486 47.5613 73.7407 47.8122 73.9105 47.8679C74.1369 47.9237 74.335 47.8958 74.5048 47.7843C74.6746 47.6171 74.8444 47.4498 75.0142 47.2825C75.184 47.1153 75.3821 47.0317 75.6085 47.0317C75.8915 47.0317 76.0896 47.1432 76.2028 47.3662C76.3726 47.5334 76.5707 47.6728 76.7971 47.7843C77.1933 47.7286 77.5612 47.8122 77.9008 48.0352C78.297 48.2025 78.6649 48.1746 79.0045 47.9516C79.2875 48.2303 79.7403 48.6206 80.3629 49.1224C80.9855 49.6241 81.5232 49.7914 81.976 49.6241C81.8628 50.1816 81.8911 50.4883 82.0609 50.544C82.2307 50.5998 82.4288 50.8228 82.6552 51.2131C83.2778 51.3803 83.8721 51.6312 84.4381 51.9657C85.0041 52.3002 85.5701 52.6069 86.1361 52.8856C85.8531 53.4989 85.8531 54.14 86.1361 54.8091C86.4191 55.4223 86.5606 56.0356 86.5606 56.6489C85.938 57.3179 85.5984 57.736 85.5418 57.9033C85.5418 58.0706 85.3154 58.1542 84.8626 58.1542C84.806 58.4329 84.6645 58.7117 84.4381 58.9905C84.2683 59.2692 84.0136 59.4086 83.674 59.4086L82.6552 59.0741C82.3722 58.9626 82.1175 58.879 81.8911 58.8232C81.7213 58.7675 81.6081 58.7117 81.5515 58.656C81.3817 58.5444 81.2119 58.4329 81.0421 58.3214C80.9289 58.2099 80.7874 58.0984 80.6176 57.9869C80.5044 57.8754 80.3629 57.7918 80.1931 57.736C80.0233 57.6803 79.8818 57.5688 79.7686 57.4015C79.3724 57.0113 79.1743 56.5931 79.1743 56.1471C78.7781 55.6453 78.2404 55.3108 77.5612 55.1436C76.9386 54.9763 76.4858 54.5861 76.2028 53.9728C75.5802 53.917 74.9576 53.7777 74.335 53.5546C73.769 53.3316 73.1747 53.3595 72.5521 53.6383C72.2691 53.3038 71.9295 53.1644 71.5333 53.2201C71.1937 53.2201 70.8541 53.1644 70.5145 53.0529C69.7221 52.8299 69.1278 52.7741 68.7316 52.8856C68.392 52.9414 68.0241 53.025 67.6279 53.1365C67.2883 53.1923 66.9487 53.2201 66.6091 53.2201C66.2695 53.2201 65.9299 53.1086 65.5903 52.8856C64.8545 53.1086 64.147 53.3874 63.4678 53.7219C62.8452 54.0564 62.3924 54.6139 62.1094 55.3945C61.6566 55.506 61.2321 55.6732 60.8359 55.8962C60.4963 56.0635 60.1001 56.2586 59.6473 56.4816V57.736C59.3643 57.736 59.1662 57.8475 59.053 58.0706C58.9964 58.2936 58.8266 58.3772 58.5436 58.3214C58.3172 58.8232 58.1474 59.3529 58.0342 59.9104C57.921 60.4679 57.6663 60.9697 57.2701 61.4157C57.3833 61.8617 57.4682 62.3077 57.5248 62.7537C57.638 63.1997 57.7512 63.6458 57.8644 64.0918C58.1474 64.3148 58.4021 64.482 58.6285 64.5935C58.8549 64.6493 58.9115 64.9002 58.7983 65.3462C59.0813 65.7365 59.4492 65.9873 59.902 66.0988C60.4114 66.2103 60.6944 66.5727 60.751 67.186C61.034 67.2975 61.317 67.4369 61.6 67.6041C61.883 67.7157 62.166 67.7435 62.449 67.6878C62.5056 67.9108 62.6188 68.078 62.7886 68.1895C63.015 68.2453 63.2131 68.3289 63.3829 68.4404C63.6659 68.3289 63.9489 68.2732 64.2319 68.2732C64.5715 68.2732 64.8262 68.1617 64.996 67.9387C65.3356 67.8829 65.5054 67.9665 65.5054 68.1895C65.562 68.3568 65.7601 68.4404 66.0997 68.4404C66.4393 68.4404 66.7506 68.4683 67.0336 68.5241C67.3732 68.5241 67.6845 68.5241 67.9675 68.5241C68.2505 68.5241 68.5052 68.4683 68.7316 68.3568C69.0146 68.1895 69.2976 68.1059 69.5806 68.1059C70.0334 68.1059 70.3447 68.1617 70.5145 68.2732C70.6843 68.3289 70.9956 68.2732 71.4484 68.1059C71.6748 68.1059 71.8729 68.1617 72.0427 68.2732C72.2691 68.3847 72.4955 68.4404 72.7219 68.4404C72.8917 68.4404 73.0332 68.4126 73.1464 68.3568C73.3162 68.301 73.4577 68.2732 73.5709 68.2732C73.9105 68.2732 74.2218 68.3289 74.5048 68.4404C74.8444 68.4962 75.184 68.3847 75.5236 68.1059C75.8066 68.2174 76.0896 68.3289 76.3726 68.4404C76.6556 68.4962 76.9103 68.3847 77.1367 68.1059C77.4197 68.3289 77.731 68.4683 78.0706 68.5241C78.4668 68.5241 78.8347 68.4962 79.1743 68.4404C79.8535 68.8864 80.6176 69.1652 81.4666 69.2767C82.3156 69.3325 83.1363 69.4161 83.9287 69.5276C83.9853 69.9179 84.1834 70.1966 84.523 70.3639C84.8626 70.4754 85.0324 70.7541 85.0324 71.2002C85.655 71.3117 86.0795 71.5625 86.3059 71.9528C86.5889 72.3431 86.9568 72.6776 87.4096 72.9563C87.4662 73.5696 87.6643 74.0435 88.0039 74.378C88.3435 74.7125 88.5133 75.1585 88.5133 75.7161C88.7963 75.8833 89.0227 76.1063 89.1926 76.3851C89.419 76.6081 89.6454 76.859 89.8718 77.1377C89.5888 77.974 89.5888 78.8103 89.8718 79.6466C90.2114 80.4271 90.3246 81.2355 90.2114 82.0718Z" fill="#F4F1EB"/>
</svg>
