<svg xmlns="http://www.w3.org/2000/svg" viewBox="0 0 205.81 205.38"><defs><style>.cls-1{font-size:12px;font-family:JosefinSans-Light, Josefin Sans;font-weight:300;}.cls-2{letter-spacing:0.05em;}.cls-3{fill:none;stroke:#aab2b5;stroke-miterlimit:10;stroke-width:0.5px;}.cls-4{fill:#2a363c;}</style></defs><g id="Layer_2" data-name="Layer 2"><g id="Content"><text class="cls-1" transform="translate(76.6 202.59)">L</text><text class="cls-1" transform="translate(84.43 202.59)">o</text><text class="cls-1" transform="translate(91.26 202.59)">g</text><text class="cls-1" transform="translate(98.61 202.59)"><tspan class="cls-2">o</tspan><tspan x="6.83" y="0">t</tspan></text><text class="cls-1" transform="translate(109.94 202.59)">y</text><text class="cls-1" transform="translate(115.98 202.59)">p</text><text class="cls-1" transform="translate(123.32 202.59)">e</text><line class="cls-3" y1="183.47" x2="205.81" y2="183.47"/><path class="cls-4" d="M138.55,102.81c.22-.2.4-.35.57-.52,2.14-2.18,4.22-4.43,6.44-6.54,1.8-1.71,3.76-3.26,5.67-4.86.54-.46,1.13-.86,1.67-1.32a1.57,1.57,0,0,1,1.36-.42c.8.11,1.63.07,2.45.12a13.75,13.75,0,0,1,4.23,1c.55.23,1.14.34,1.7.57a5.84,5.84,0,0,1,2.2,1.69,8.39,8.39,0,0,1-.3,3.64c-.42,1.5-.44,3.08-.77,4.67a2.42,2.42,0,0,0,1.22-.75c.82-.67,1.6-1.4,2.41-2.09s1.45-1.25,2.18-1.88a1.38,1.38,0,0,1,.9-.48c.26,0,.53-.32.77-.53l3.39-2.93q2.31-2,4.8-3.73c.2-.14.37-.31.65-.55l-.46-.16,0-.13a1.18,1.18,0,0,1,.8-.23,21.31,21.31,0,0,1,4.17.86,30,30,0,0,1,4.23,2c.12.07.21.19.33.26a1.71,1.71,0,0,1,.83,1.6,31.82,31.82,0,0,1-.42,4.88c-.18,1.27-.37,2.54-.65,3.79-.21.93-.39,1.87-.61,2.81-.27,1.14-.57,2.27-.84,3.41a4.34,4.34,0,0,0-.05.63,29.68,29.68,0,0,1-.74,4,4.62,4.62,0,0,0-.19,1.37,18.47,18.47,0,0,1-.42,3.06c-.12.81-.35,1.6-.43,2.41-.13,1.27-.4,2.52-.59,3.79-.23,1.61-.45,3.23-.7,4.85-.2,1.33-.42,2.67-.65,4-.25,1.54-.6,3.08-.75,4.63-.13,1.39-.57,2.7-.73,4.07-.14,1.13-.26,2.26-.38,3.39,0,.25,0,.5,0,.75a1.48,1.48,0,0,1-.88,1.21,3.73,3.73,0,0,1-2.27.24,4.49,4.49,0,0,1-2-.44c-.17-.11-.42-.06-.63-.11a4.06,4.06,0,0,1-1.46-.58,12.37,12.37,0,0,0-1.89-.95,7.7,7.7,0,0,1-1.89-1.36.68.68,0,0,1-.18-.87l.08-.19a15.39,15.39,0,0,0,1.21-4.4c.58-2.78,1.13-5.57,1.63-8.37.4-2.17.69-4.36,1-6.53q.63-3.84,1.28-7.68t1.24-7.36c.12-.67.26-1.33.36-2,.16-1,.3-2,.43-3a2.35,2.35,0,0,0-.06-.51,1.21,1.21,0,0,0-.87.47c-1.23,1.07-2.44,2.18-3.69,3.23-1.07.89-2.19,1.7-3.28,2.56-.53.41-1.07.82-1.58,1.26a4.07,4.07,0,0,1-3.11.85,19.62,19.62,0,0,1-2-.28.69.69,0,0,0-.93.7c-.14,1.88-.34,3.76-.44,5.64s-.09,3.91-.22,5.86-.38,3.89-.58,5.84c0,.24,0,.49,0,.74a1.88,1.88,0,0,1-2.14,2,7.49,7.49,0,0,0-1.16,0,8.44,8.44,0,0,1-1.59-.08c-1-.17-1.94-.33-2.91-.6a31.13,31.13,0,0,1-3-1.08,2.41,2.41,0,0,1-1.43-2.17,6.6,6.6,0,0,1,.56-2.49,8.57,8.57,0,0,0,.58-2.25c.21-1.77.43-3.53.6-5.3.21-2.23.37-4.47.56-6.7.14-1.59.28-3.19.46-4.78a3.36,3.36,0,0,0-.28-1.82c-.16.13-.3.22-.42.33l-1.72,1.6c-.26.24-.5.5-.75.75-.78.78-1.54,1.58-2.36,2.32a45.09,45.09,0,0,0-3.2,3.43,4.57,4.57,0,0,1-1.09,1,7.34,7.34,0,0,0-.79.7c-.5.39-1,.78-1.54,1.13a1.56,1.56,0,0,1-.61.19c-.38.08-.76.14-1.2.21a4.85,4.85,0,0,0-.36,2.26c0,.68,0,1.36,0,2,0,1-.13,2.06-.17,3.09s-.06,2-.08,3c0,.36-.05.71-.06,1.07a15,15,0,0,0,.09,2.12c.12,1,.11,2.06.15,3.09,0,.18,0,.36,0,.53.08,1.78.17,3.55.26,5.33.06,1.06.13,2.13.18,3.19a1.32,1.32,0,0,1-1.33,1.58,1.82,1.82,0,0,1-.33,0,10.28,10.28,0,0,1-3.54-.66c-.28-.13-.61-.17-.91-.29-.46-.18-.9-.41-1.35-.61a7.15,7.15,0,0,0-1.47-.61,16.1,16.1,0,0,1-2.16-.84,1.28,1.28,0,0,1-.81-1.16,4.53,4.53,0,0,1,0-.64c.05-2.06.11-4.12.15-6.18,0-2.46.07-4.91.14-7.36,0-1.67.13-3.34.23-5,.06-1.13.2-2.26.28-3.4.06-.88.08-1.77.13-2.66.07-1.45.09-2.91.24-4.36.18-1.69.24-3.4.39-5.09.1-1.24.24-2.48.36-3.72.13-1.48.25-3,.39-4.46.16-1.7.34-3.4.5-5.1a14.61,14.61,0,0,0,0-1.48c0-.53.08-.58.68-.65s1.4-.08,2.1-.19a4,4,0,0,1,1.78.18,12.57,12.57,0,0,1,3.14,1.31,11.67,11.67,0,0,1,1.44,1.1,3.39,3.39,0,0,1,1.12,2.66,40.27,40.27,0,0,1-.14,4.91c-.17,1.55-.25,3.12-.36,4.68A1.58,1.58,0,0,0,138.55,102.81Z"/><path class="cls-4" d="M13,151.83c.77-.71,1.45-1.34,2.14-2,1.18-1.08,2.36-2.16,3.56-3.22s2.13-1.88,3.21-2.81S24,142.09,25,141.21c.43-.37.86-.74,1.28-1.13,1.91-1.77,4-3.32,6-5s4.17-3.44,6.26-5.16c.52-.43,1.06-.84,1.58-1.27a1,1,0,0,0,.51-.93c-.12,0-.3-.08-.38,0a4.58,4.58,0,0,1-1.72.52c-1.05.21-2.1.39-3.14.6a6.13,6.13,0,0,0-.61.18c-.27.09-.54.19-.81.26-2.19.48-4.38,1-6.56,1.45-.83.19-1.64.47-2.46.68s-1.6.33-2.4.5l-.41.11-2.28.55c-1.14.28-2.29.52-3.42.83a5.09,5.09,0,0,1-3.52-.39,1.46,1.46,0,0,1-.44-.29,7.28,7.28,0,0,1-2-3.1,6,6,0,0,0-.42-1,4.69,4.69,0,0,1-.54-1.71c-.09-1-.21-2-.29-3a4.58,4.58,0,0,1,.66-2.76,16.58,16.58,0,0,1,4.14-4.84c1.58-1.21,3.12-2.48,4.72-3.66q4-3,8.34-5.57c2.35-1.42,4.65-2.9,7-4.34,1.43-.88,2.89-1.68,4.3-2.59s2.73-1.66,4.15-2.4c1.71-.88,3.44-1.72,5.15-2.59A3.73,3.73,0,0,0,49,94.32a1.71,1.71,0,0,1,.73-.42,72.15,72.15,0,0,1,7.44-2.63,7.34,7.34,0,0,1,1.47-.21,1.26,1.26,0,0,1,1.33,1,2.48,2.48,0,0,1,.15,1.15,1.34,1.34,0,0,0,0,.63,11.15,11.15,0,0,1,0,2.45,1.84,1.84,0,0,1-.49,1.27,6.65,6.65,0,0,1-1.38,1.32,13.16,13.16,0,0,0-2.59,2,2.32,2.32,0,0,1-.44.31c-1.57.9-3.06,1.94-4.71,2.71a15.33,15.33,0,0,0-2.47,1.47,73.79,73.79,0,0,1-6.48,3.91c-.56.31-1.1.66-1.64,1q-5.15,3.34-10.28,6.7-1.87,1.23-3.73,2.49a4.49,4.49,0,0,0-.46.39c.05.3.25.28.41.27a16.15,16.15,0,0,0,3.78-.63c.54-.15,1.11-.25,1.66-.36,3-.61,6-1.23,9-1.81,1.85-.35,3.71-.67,5.58-.92a11.39,11.39,0,0,1,4.35.12,1.77,1.77,0,0,1,1.05.65c.44.56.92,1.08,1.37,1.63a3.64,3.64,0,0,1,.35.52,6.74,6.74,0,0,0,.38.64,16.54,16.54,0,0,1,2.34,4.41,8,8,0,0,1,.42,2.08,1.38,1.38,0,0,1-.12.72,4.35,4.35,0,0,1-.57.89c-.54.67-1.09,1.32-1.64,2a2.66,2.66,0,0,1-.53.53,11.47,11.47,0,0,0-2.6,2.51A16.73,16.73,0,0,1,48,135.62a17.63,17.63,0,0,0-2,1.75A15.19,15.19,0,0,1,43,140a1.67,1.67,0,0,0-.37.38c-.23.22-.44.47-.68.67l-5.56,4.66c-1.35,1.15-2.7,2.32-4,3.5s-2.7,2.42-4.06,3.62c-.15.14-.35.25-.51.38a3.25,3.25,0,0,0-1.1,1.28,1.94,1.94,0,0,1-.49.68,66.46,66.46,0,0,0-5,4.66c-1.12,1.14-2.26,2.26-3.39,3.39-.1.1-.22.18-.36.3a3.18,3.18,0,0,1-2.14-1.4,13.24,13.24,0,0,1-.85-1.22,1.51,1.51,0,0,1-.13-.29c-.23-.71-.49-1.41-.69-2.13s-.23-1.25-.4-1.87C12.8,155,13.14,153.32,13,151.83Z"/><path class="cls-4" d="M79.16,25.33a3.48,3.48,0,0,0,.57-.47c.79-1,1.6-2,2.33-3.05a1.78,1.78,0,0,1,1.8-.87,5.78,5.78,0,0,0,1.37-.09A8.53,8.53,0,0,1,90.65,22a2.76,2.76,0,0,1,1,1,15.31,15.31,0,0,1,1.64,3.35l.06.2a36.38,36.38,0,0,1,2.27,7.21,4.61,4.61,0,0,0,.2.45,5.39,5.39,0,0,0,.68-.24l3.38-1.82c.28-.15.6-.23.89-.36a52.22,52.22,0,0,0,5.21-2.68c1.73-1,3.5-1.9,5.29-2.76,1-.47,2-.9,3-1.29a1,1,0,0,0,.77-.91,1.55,1.55,0,0,0,.07-.31c0-.72.51-.93,1.13-1A6.88,6.88,0,0,1,119,23a6.26,6.26,0,0,1,2,.72,3.79,3.79,0,0,1,1.34,1.6,3.38,3.38,0,0,1,.27,2.16,9.45,9.45,0,0,0-.07,1.07,11.5,11.5,0,0,1-.08,1.17,15.24,15.24,0,0,0-.21,2.86,20.52,20.52,0,0,1-.32,3.5c-.13.88-.17,1.77-.23,2.66-.11,1.52-.21,3-.32,4.57s-.25,3.19-.38,4.79c0,.28-.08.56-.09.85a5.06,5.06,0,0,0,0,1.16,5.13,5.13,0,0,1-.24,2.52,1.36,1.36,0,0,0-.09.52,9.86,9.86,0,0,1-.23,2.54c-.15,1.31-.3,2.61-.44,3.92,0,.21,0,.43-.07.64a.91.91,0,0,1-.65.75,3.69,3.69,0,0,1-2.3-.09c-.89-.21-1.77-.51-2.65-.77a.75.75,0,0,1-.36-.2,9.94,9.94,0,0,0-2.23-1.81,1,1,0,0,1-.51-1c0-.82.08-1.63.14-2.45a1.18,1.18,0,0,0-.16-.89,3.82,3.82,0,0,0-1.18-.14,8.58,8.58,0,0,1-2.53-.19c-1.06-.11-2.12-.27-3.17-.42-.57-.08-1.12-.22-1.69-.26a40.48,40.48,0,0,1-7.33-1.29c-1.28-.33-2.56-.62-3.8-1.06a5.6,5.6,0,0,0-1.46-.26,1.12,1.12,0,0,1-1-.54,4.36,4.36,0,0,1-.73-1.52c-.11-.56-.28-1.11-.35-1.67a13.37,13.37,0,0,1,0-4.14c.13-.7.29-1.39.41-2.09.07-.42.1-.84.16-1.39a15.94,15.94,0,0,1,2-1.38c.31-.2.85-.27.74-.77s-.56-.32-.89-.42c-1-.29-1.89-.61-2.82-.93a1.46,1.46,0,0,1-.88-.73,4.54,4.54,0,0,1-.44-1.08c-.2-.87-.33-1.75-.5-2.62-.1-.52-.25-1-.39-1.63a1.74,1.74,0,0,0-.5.28c-1,1.11-2.09,2.12-3,3.34a6.27,6.27,0,0,1-2.2,2,7.65,7.65,0,0,0-.09,1.16c.13,2,.28,4,.43,6,.13,1.81.29,3.62.39,5.43,0,.7-.09,1.42-.06,2.13a1.53,1.53,0,0,1-1.08,1.54,2.72,2.72,0,0,1-1.65.28c-.54-.11-1.13,0-1.69-.08a7,7,0,0,1-2.54-.65c-.59-.31-1.18-.64-1.79-.94a1.18,1.18,0,0,1-.72-1.18q0-3.41,0-6.83c0-.77-.11-1.55-.15-2.33,0-.53,0-1.07,0-1.6,0-1-.09-1.91-.12-2.87-.08-2.63-.22-5.26-.09-7.89.08-1.67.1-3.34.16-5,0-.71.08-.68.76-.94A7.27,7.27,0,0,1,75,20.79a6.29,6.29,0,0,1,3.31,1.58,1.87,1.87,0,0,1,.59,1.33A3.89,3.89,0,0,0,79.16,25.33Zm23.11,16.45a6.29,6.29,0,0,0,.79.25c1,.14,2,.29,3,.4,1.73.19,3.46.34,5.18.51,1.31.13,1.44,0,1.53-1.34l.3-5.09a5.51,5.51,0,0,0,0-.6c-.4.17-.73.28-1,.44-1.9,1-3.8,1.92-5.67,2.91-1.16.62-2.28,1.3-3.41,2A4.19,4.19,0,0,0,102.27,41.78Z"/><path class="cls-4" d="M111.42,84.89c.93.26,1.85.51,2.76.79a4,4,0,0,1,2.57,2.2,1.65,1.65,0,0,1,.14.62c0,.78,0,1.56,0,2.34v.64c0,.71.05,1.42,0,2.13-.16,2.49-.14,5-.12,7.46,0,1.11,0,2.21,0,3.31,0,1.85.11,3.7.15,5.54,0,.93,0,1.85,0,2.78,0,2.2.11,4.4.15,6.6,0,1.21,0,2.42,0,3.63,0,2,0,4,.07,6a.85.85,0,0,0,.09.51,1.36,1.36,0,0,1,.18.92c0,2,.08,4,.16,6,0,1.24.2,2.48.29,3.72a4.71,4.71,0,0,1,0,.84.78.78,0,0,1-.43.57,4.19,4.19,0,0,1-2,.43,4.46,4.46,0,0,1-1.25.08,2.13,2.13,0,0,0-1.25,0c-.89-.2-1.78-.4-2.67-.62A.56.56,0,0,1,110,141a4,4,0,0,1-.79-1.83c-.07-1.92-.22-3.84-.18-5.76s0-4,0-6v-.21c0-1-.17-1.07-1.11-1.12-1.45-.07-2.9-.18-4.35-.29a16.79,16.79,0,0,0-3.09,0,13.13,13.13,0,0,1-2.66,0,24.16,24.16,0,0,0-3.61.09q-3.67.19-7.34.42a21,21,0,0,0-2.64.23,5.45,5.45,0,0,1-1.8,0q-1.11-.18-2.19-.45a2.65,2.65,0,0,1-1.19-.68,8,8,0,0,1-2-3,18.63,18.63,0,0,1-1.12-4.42,11.53,11.53,0,0,1,0-2.35c0-.74.2-1.47.21-2.22a2.91,2.91,0,0,1,.43-1.19c.48-1,1-1.9,1.5-2.83a4.46,4.46,0,0,1,.75-1c1.1-1.11,2.21-2.21,3.36-3.28A55.81,55.81,0,0,1,88,100.45a46.39,46.39,0,0,1,10.64-5.36c2.79-1.07,5.66-1.91,8.5-2.82.67-.22,1.38-.34,2.07-.51s.71-.29.77-.86a7.79,7.79,0,0,0,.05-1.28,24.13,24.13,0,0,1,.17-3.4A1.23,1.23,0,0,1,111.42,84.89Zm-2.27,17.16a1.34,1.34,0,0,0-.35,0l-5.36,1.78c-.37.13-.75.23-1.11.38-1.35.54-2.72,1-4,1.66-1.48.69-2.91,1.47-4.34,2.27a32.68,32.68,0,0,0-3.43,2.13,31,31,0,0,0-6,5.7,1.88,1.88,0,0,0-.19.42,4.08,4.08,0,0,0,.46.08,11.46,11.46,0,0,0,1.17.06c1.06,0,2.12-.08,3.19-.15,1.77-.13,3.53-.29,5.31-.31,1.32,0,2.63-.12,3.94-.14s2.56,0,3.84,0c1.67,0,3.33-.07,5-.13.54,0,1.07-.09,1.59-.15.26,0,.53-.13.58-.4a6.77,6.77,0,0,0,.27-2.1,7.18,7.18,0,0,1,0-1.39,77.32,77.32,0,0,0-.19-7.76A9.56,9.56,0,0,0,109.15,102.05Z"/><path class="cls-4" d="M147.59,14.26c-.37.14-.31.42-.34.65-.18,1.38-.31,2.76-.54,4.13-.37,2.28-.83,4.54-1.21,6.82-.34,2-.63,4.07-.94,6.11a.91.91,0,0,0,0,.43c.23.72-.11,1.4-.13,2.1a2.06,2.06,0,0,1-.23.7c-.11.3-.22.59-.35.92a4.48,4.48,0,0,0,.62.46,19.8,19.8,0,0,1,2.62,1.64c.19.15.41.26.62.4s.42.18.53.34c.62.86,1.58,1.43,2,2.44a3.66,3.66,0,0,0,.38.5,1.34,1.34,0,0,1-.15,1.76,2,2,0,0,1-1.28.7c-.61,0-1.21.11-1.81.14l-3.52.18a3,3,0,0,0-.42,0,.73.73,0,0,0-.69.69c-.13.88-.28,1.76-.42,2.64q-.44,3-.86,5.91c-.38,2.6-.74,5.21-1.12,7.81-.09.6-.28,1.18-.36,1.78a38,38,0,0,0-.43,4.88,12.58,12.58,0,0,1-.2,2.12c-.19,1.06-.75,1.43-1.83,1.27a4.27,4.27,0,0,1-2.22-.64l-.2-.08c-1.31-.11-2.22-1-3.31-1.59a2.09,2.09,0,0,1-.76-.87,2.62,2.62,0,0,0-.71-.77c-.39-.31-.76-.64-1.12-1a.62.62,0,0,1-.11-.69,5.93,5.93,0,0,0,.24-1c.24-1.58.48-3.16.69-4.75.34-2.5.64-5,1-7.5.3-2.08.67-4.14,1-6.21.09-.56.15-1.12.21-1.66a3.46,3.46,0,0,0-1.54-.59A6.63,6.63,0,0,1,127.88,43a12.64,12.64,0,0,1-3.07-3.52,6.94,6.94,0,0,0-.6-.74l-.4-.49c.12-.11.18-.21.27-.23a1.54,1.54,0,0,1,.52-.06,77.41,77.41,0,0,0,8.2-.46c.58,0,.67-.13.81-.66a4.7,4.7,0,0,0,.13-.63c.29-1.6.57-3.21.86-4.82.21-1.19.39-2.38.62-3.57q1.13-5.8,2.26-11.62a75.6,75.6,0,0,0,1.27-8.86c.09-1.17.3-2.33.39-3.5.07-.88,0-1.78.05-2.67,0-1.13.38-1.4,1.46-1a17.07,17.07,0,0,1,2.15.94,4.12,4.12,0,0,0,1.5.48,7.63,7.63,0,0,1,2.61.89c.69.35,1.32.82,2,1.23a6.82,6.82,0,0,1,1.93,2.11A20,20,0,0,1,153.31,11c.7,2.16,1.46,4.31,2.19,6.46.17.51.31,1,.48,1.52.62,1.86,1.26,3.71,1.88,5.56a5.66,5.66,0,0,1,.28,1.13.67.67,0,0,1-.7.76A3.5,3.5,0,0,1,155.8,26c-.58-.27-1.16-.55-1.72-.84a6,6,0,0,1-.62-.41,4.44,4.44,0,0,0-.62-.41,12.92,12.92,0,0,1-2.8-1.9c-.17-.13-.29-.31-.45-.45a1.17,1.17,0,0,1-.39-1.43,1.64,1.64,0,0,0,0-1.05q-.67-2.36-1.36-4.71A3.51,3.51,0,0,0,147.59,14.26Z"/><path class="cls-4" d="M54.82,36.88c0-.27,0-.44,0-.61,0-.82-.08-1.63-.11-2.45-.05-1.46-.1-2.92-.12-4.37s0-2.78,0-4.16c-.12-2.13-.09-4.26-.05-6.39a2.64,2.64,0,0,0-.33-1.54,1.9,1.9,0,0,0,0-1.94c0-.53-.07-1.06-.08-1.6,0-.78,0-1.56,0-2.34,0-1.46.06-2.91.18-4.37a6.55,6.55,0,0,0-.11-2.75,14.32,14.32,0,0,0-.07-3.07.84.84,0,0,1,.73-.81A7.53,7.53,0,0,1,58.7.93c.61.52,1.35.93,1.43,1.88s.21,1.83.26,2.75c.1,1.85.16,3.69.23,5.54.05,1.45.08,2.91.16,4.36,0,.71.2,1.41.25,2.11.11,1.6.19,3.19.26,4.79s.14,3.13.2,4.69c0,.75.09,1.49.09,2.24,0,2.35.34,4.68.49,7a2.12,2.12,0,0,0,.11.62,5.75,5.75,0,0,1,.26,1.79,17.4,17.4,0,0,0,.19,1.91,34.69,34.69,0,0,1,.43,3.81c.08,1.32.2,2.63.31,3.94a1.83,1.83,0,0,0,.09.52,5.73,5.73,0,0,1,.34,1.88c.18,1.8.36,3.6.62,5.39a29,29,0,0,0,.72,3.33,1,1,0,0,1-.41,1.19,5.17,5.17,0,0,1-2.67,1.23,1.1,1.1,0,0,0-.52.1,6,6,0,0,1-1.95.49.77.77,0,0,1-.42,0c-.63-.31-1.32.09-2-.21a2.08,2.08,0,0,1-1.26-1,2.81,2.81,0,0,0-.23-.39,18.06,18.06,0,0,0-2.54.17c-1.35.07-2.69.22-4,.23-.67,0-1.34-.15-2-.09l-4.79.38a8.73,8.73,0,0,1-2.34,0,2.08,2.08,0,0,0-.74.06c-1.2.16-2.39.34-3.6.43A7.3,7.3,0,0,1,32,61.52a6.07,6.07,0,0,1-2.29-2c-.31-.43-.61-.87-.9-1.31a3.86,3.86,0,0,1-.37-.65A24.61,24.61,0,0,1,27.33,54a3.82,3.82,0,0,1,.49-3.27A10,10,0,0,1,29.44,49c1-.87,2.13-1.66,3.2-2.49a5.48,5.48,0,0,0,.64-.55,2.51,2.51,0,0,1,1.2-.83,1.73,1.73,0,0,0,.89-.55A5.86,5.86,0,0,1,37,43.38a39.11,39.11,0,0,1,3.62-2.05,52.46,52.46,0,0,1,10.13-3.89c.93-.24,1.88-.4,2.83-.55A8.77,8.77,0,0,1,54.82,36.88Zm-.56,6.33-1.53.49a7.92,7.92,0,0,0-1,.37,26.59,26.59,0,0,1-3.89,1.75l-.09,0-2.67,1.34a3.3,3.3,0,0,0-.8.51,5.32,5.32,0,0,1-1.23.83c-.59.34-1.18.66-1.76,1-.76.46-1.53.92-2.27,1.41s-1.75,1.21-2.61,1.84c-.09.06-.12.21-.22.42a17.13,17.13,0,0,0,1.89,0q3.35-.29,6.69-.64c2.87-.31,5.72-.68,8.57-1.17.66-.11,1.31-.25,1.95-.37.07-.15.16-.25.15-.34-.11-2.38-.23-4.75-.34-7.09Z"/><path class="cls-4" d="M178.81,31.82c.42.74.81,1.34,1.1,2a7,7,0,0,0,1.63,2.2,10.06,10.06,0,0,1,2,2.36c.15.27.39.51.55.78a4.6,4.6,0,0,1,.44,1,.77.77,0,0,1-.84,1A3.76,3.76,0,0,1,183,41a6,6,0,0,0-2-.14,11.84,11.84,0,0,1-3.09,0,5.08,5.08,0,0,0-1.17,0c-.81,0-1.63.06-2.45.13-1.38.11-2.76.25-4.14.38a1.28,1.28,0,0,0-1.26,1.1c-.23,1.08-.43,2.16-.67,3.24a24.59,24.59,0,0,1-.59,2.91,18.89,18.89,0,0,0-.5,2.51,37.5,37.5,0,0,0-.67,5.17c-.06,1.14-.28,2.26-.43,3.39a12.53,12.53,0,0,0-.15,1.49,44.29,44.29,0,0,1-.53,5.51c-.48,4-1.19,8-1.87,12-.06.32-.1.63-.15.95-.09.57-.31.87-.85.93a4.12,4.12,0,0,1-2-.1,5.68,5.68,0,0,0-1-.28,6.69,6.69,0,0,1-1.95-.78c-.67-.38-1.09-1-1.71-1.41s-1.09-.9-1.6-1.32c.17-.81.3-1.58.48-2.33s.42-1.43.56-2.16c.34-1.78.87-3.52,1.08-5.33a18.81,18.81,0,0,1,.45-2.08A72,72,0,0,0,158,57.6c.21-1.3.44-2.59.66-3.89.05-.32.09-.63.13-1a5.8,5.8,0,0,1,.07-.74c.52-1.93.75-3.91,1.19-5.85.16-.73.37-1.45.52-2.18a3.89,3.89,0,0,0,.19-1.55,17.68,17.68,0,0,1-2.54-1.1A11.22,11.22,0,0,1,155.61,39a6.77,6.77,0,0,1-.82-1.11,19.88,19.88,0,0,1-.88-1.94,5.63,5.63,0,0,1-.22-.85,1,1,0,0,1,.09-.17l.08-.06L163,33a4.41,4.41,0,0,0,.24-.63c.49-2,1-3.93,1.46-5.9.33-1.31.7-2.61,1-3.92.4-1.65.77-3.32,1.17-5,.17-.69.39-1.37.57-2.05.13-.48.24-1,.35-1.45a1.21,1.21,0,0,0,0-.53A2.61,2.61,0,0,1,168,12.2c.31-1.32.65-2.63.93-3.94s.51-2.51.73-3.77A1.93,1.93,0,0,0,169.48,3a.9.9,0,0,1,0-.91c.08-.23.11-.48.19-.72a.67.67,0,0,1,.84-.48,8.25,8.25,0,0,1,3.32,1.35,12,12,0,0,1,1.45,1.23,4,4,0,0,1,.92,1.76,10.66,10.66,0,0,1,0,5c-.15.8-.36,1.6-.53,2.39a4.12,4.12,0,0,0-.15.84,27.15,27.15,0,0,1-.48,3.59,10.59,10.59,0,0,1-.36,1.45,23.21,23.21,0,0,0-.71,3.1,28.46,28.46,0,0,1-.76,3c-.11.45-.19.91-.3,1.35-.24.9-.5,1.78-.72,2.68s-.47,1.93-.66,2.91c-.1.53.09.71.65.68s1.35-.15,2-.18C175.71,32,177.24,31.89,178.81,31.82Z"/><path class="cls-4" d="M65.35,101.17c-.57-.57-.34-1.08.16-1.55A2.46,2.46,0,0,1,65.25,98c0-.78.11-1.56.19-2.34.12-1.2.27-2.4.38-3.6a4.41,4.41,0,0,1,.33-1.76.67.67,0,0,0,.06-.42,10.49,10.49,0,0,1,.22-3.16,8.6,8.6,0,0,0,.16-1.91A6,6,0,0,1,66.82,83a21.62,21.62,0,0,0,.46-3.38l.06-.75c.19-1.87.34-3.75.6-5.61.11-.78.08-1.56.17-2.33.18-1.48.34-3,.57-4.44.25-1.65.5-3.3.65-5,0-.24.08-.49.11-.74l.16-1.44c.69,0,1.37-.57,2.16-.15a4.65,4.65,0,0,1,3.09,1.21,1.17,1.17,0,0,1,.52.65,7.91,7.91,0,0,1,.32,1.34,16,16,0,0,1,0,3.09c-.19,2-.28,4-.42,6,0,.53-.11,1.06-.18,1.59a21.73,21.73,0,0,0-.32,3.61,13.69,13.69,0,0,1-.2,2q-.3,2.82-.62,5.62c-.11.88-.25,1.76-.35,2.64s-.22,2-.3,3c-.19,2.09-.28,4.19-.55,6.27-.33,2.54-.43,5.1-.68,7.65-.16,1.63-.19,3.27-.28,4.9,0,.39-.06.78-.08,1.17,0,.71-.1,1.42-.11,2.13,0,1.28.05,2.56-.06,3.84a22.09,22.09,0,0,0,.06,2.44c0,.64,0,1.28.06,1.92,0,1.39.11,2.77.15,4.16,0,.6,0,1.21,0,1.81.18,3,.37,6,.55,9,.11,1.81.19,3.62.32,5.43.11,1.63.3,3.26.41,4.89.1,1.34.14,2.69.2,4,0,.82.07,1.64.07,2.46,0,.57-.06,1.13-.09,1.7l-.09,1.38a7.91,7.91,0,0,1-.06.85,1.8,1.8,0,0,1-1.57,1.65l-1.14.24a1.07,1.07,0,0,0-.5.17,2.11,2.11,0,0,1-1.49.43,4,4,0,0,0-.85.1,5.41,5.41,0,0,1-3.74-.85,1.48,1.48,0,0,1-.8-1.2,6.19,6.19,0,0,1,0-1.49,44,44,0,0,0,.46-4.88c.09-1.53,0-3.05,0-4.57,0-1.07-.05-2.13-.05-3.19,0-.61.06-1.21.06-1.81,0-.75,0-1.5,0-2.24s0-1.5,0-2.24c0-.57.31-1,.32-1.55a12.66,12.66,0,0,0-.29-1.44,2.77,2.77,0,0,1,.05-1,4.23,4.23,0,0,0,0-1.7c0-.1-.08-.22,0-.31.3-.85-.08-1.7,0-2.54,0-.57.08-1.13.09-1.7a20.92,20.92,0,0,0,0-2.24c-.07-.92.09-1.84.11-2.75,0-1.1.18-2.19.13-3.29a15.44,15.44,0,0,1,.24-3.39,1.55,1.55,0,0,0,.06-.31c0-1.31.08-2.62.15-3.93a8.7,8.7,0,0,1,.24-2.54,3.29,3.29,0,0,0,.07-.63l.15-1.81a3.05,3.05,0,0,0,0-.85,7,7,0,0,1,.28-2.5C65.1,101.49,65.25,101.34,65.35,101.17Zm.2-2.83v-.1l-.13.06,0,.08Z"/><path class="cls-4" d="M177.41,89.08c0,.26,0,.54-.41.59l.42-.59Z"/><polygon class="cls-4" points="178.8 88.43 178.69 88.4 178.86 88.2 178.95 88.23 178.8 88.43"/><path class="cls-4" d="M177.42,89.08l.57-.16c-.14.36-.37.21-.58.16Z"/><polygon class="cls-4" points="176.15 90.23 176.31 90.14 176.3 90.27 176.15 90.32 176.15 90.23"/><polygon class="cls-4" points="90.74 161.72 90.72 161.78 90.69 161.73 90.74 161.72"/><polygon class="cls-4" points="88.13 172.92 88.2 172.93 88.22 173.1 88.09 173.08 88.13 172.92"/><polygon class="cls-4" points="65.55 98.34 65.47 98.38 65.42 98.3 65.55 98.24 65.55 98.34"/></g></g></svg>