<svg width="140" height="140" viewBox="0 0 140 140" fill="none" xmlns="http://www.w3.org/2000/svg">
<path d="M0.428981 74.1961C1.8785 61.4729 4.19544 44.8697 15.2665 31.0186C33.8477 7.64776 59.4025 -2.83079 87.6281 0.654541C103.367 2.59459 119.392 10.6593 127.826 29.2139C136.466 48.1407 140.872 67.0901 139.856 87.3027C139.491 94.6569 136.432 102.507 132.552 108.959C117.554 134.225 85.8248 143.993 61.6281 138.534C42.4877 134.225 25.8354 127.457 11.6941 113.516C1.39913 103.41 -1.14608 91.7017 0.428981 74.1961Z" fill="#16559D"/>
<rect x="40.2969" y="33.9009" width="53.7208" height="68.6447" fill="#F4F1EB" stroke="#F4F1EB" stroke-linecap="round" stroke-linejoin="round"/>
<path d="M59.1828 121.859C58.9003 121.729 58.6719 121.556 58.4978 121.339C58.3846 121.109 58.2475 120.916 58.0865 120.76C57.9124 120.543 57.7276 120.424 57.532 120.403C57.3365 120.381 57.1344 120.33 56.9257 120.247C56.8255 120.078 56.7188 119.879 56.6056 119.649C56.5054 119.48 56.351 119.354 56.1423 119.272C55.8514 119.398 55.6278 119.542 55.4716 119.703C55.3153 119.864 55.1156 119.97 54.8723 120.023C54.6851 119.745 54.3936 119.427 53.9978 119.067C53.6758 118.755 53.4821 118.447 53.4165 118.143C53.246 117.353 53.1346 116.837 53.0821 116.594C53.0428 116.412 53.1925 116.22 53.5311 116.02L53.1127 114.966C53.6898 114.396 54.2932 113.948 54.9229 113.621C55.5525 113.295 56.0253 112.684 56.3414 111.789C56.7325 111.832 56.9561 111.688 57.0121 111.358C57.0682 111.028 57.1744 110.783 57.3306 110.622C57.5476 110.448 57.7843 110.365 58.0407 110.373C58.2971 110.381 58.3489 110.179 58.1963 109.767C58.9392 109.67 59.4496 109.528 59.7274 109.341C60.0184 109.215 60.205 109.047 60.2873 108.839C60.3696 108.63 60.4084 108.368 60.4036 108.051C60.4597 107.721 60.6308 107.334 60.9171 106.891C61.2867 107.129 61.6277 107.087 61.9402 106.765C62.2657 106.504 62.6414 106.328 63.0671 106.236C63.4319 106.157 63.829 105.785 64.2584 105.12C64.7008 104.516 65.1522 104.101 65.6125 103.874C65.7425 103.592 65.879 103.34 66.0221 103.118C66.2391 102.944 66.3453 102.699 66.3405 102.382C66.7317 102.425 66.9314 102.318 66.9398 102.062C66.9481 101.806 67.1109 101.675 67.4281 101.67C67.7405 101.348 67.8878 100.999 67.8699 100.621C67.9129 100.23 68.2689 99.9626 68.9378 99.8182C69.2765 99.618 69.5478 99.4004 69.7517 99.1657C69.9556 98.9309 70.116 98.6419 70.2329 98.2987C71.1582 98.1626 71.7748 97.7752 72.0824 97.1365C72.4032 96.5586 72.7545 95.9741 73.1361 95.383C73.2315 95.2352 73.47 94.8658 73.8516 94.2747C74.2332 93.6837 74.374 93.3036 74.2738 93.1344C74.6649 93.1772 74.9297 92.9293 75.068 92.3907C75.2803 91.8998 75.4818 91.5065 75.6727 91.211C75.2983 90.6559 74.8589 90.242 74.3545 89.9693C73.8501 89.6966 73.3219 89.4609 72.7698 89.2621C72.2177 89.0633 71.6657 88.8645 71.1136 88.6657C70.5615 88.4669 70.0506 88.1638 69.5808 87.7565C69.3375 87.809 69.1419 87.7876 68.9941 87.6924C68.8593 87.6578 68.6465 87.7038 68.3555 87.8302C67.6986 87.1453 66.9527 86.6386 66.118 86.31C65.2834 85.9814 64.5614 85.4377 63.9521 84.679C62.892 84.7806 61.9292 84.4479 61.0635 83.6808L60.0601 83.8974C59.725 83.5246 59.3011 83.3299 58.7884 83.3134C58.2756 83.2969 57.8452 83.0718 57.497 82.6383C57.1452 82.7778 56.8149 82.7219 56.5061 82.4706C56.2104 82.28 55.8843 82.096 55.5278 81.9186C55.3191 81.8365 55.0866 81.7913 54.8302 81.783C54.6346 81.7616 54.426 81.6795 54.2042 81.5366C53.93 81.1507 53.6038 80.9667 53.2258 80.9847C52.8478 81.0027 52.6738 80.7859 52.7036 80.3343C52.5605 80.556 52.3846 80.6257 52.1759 80.5436C52.0412 80.5091 51.8826 80.5115 51.7002 80.5509C51.5344 80.0779 51.2256 79.8266 50.7737 79.797C50.3349 79.8281 50.0565 79.5702 49.9384 79.0234C49.4519 79.1284 49.0543 79.0552 48.7454 78.8039C48.5105 78.6003 48.2083 78.3793 47.8386 78.1412C47.5954 78.1937 47.3998 78.1723 47.252 78.077C47.1041 77.9818 46.8913 78.0277 46.6134 78.2148L46.4167 77.3034C45.9648 77.2738 45.4234 76.9773 44.7927 76.4139C44.2227 75.8375 43.8853 75.3062 43.7804 74.8201C43.7494 74.3817 43.8097 73.9235 43.9612 73.4457C44.1735 72.9548 44.3726 72.4031 44.5587 71.7906C44.8056 71.1651 45.0047 70.6134 45.1562 70.1355C45.3685 69.6446 45.4985 69.3622 45.5462 69.2883C45.6547 69.2013 45.8175 69.0708 46.0345 68.8968C46.3255 68.7704 46.5318 68.6941 46.6534 68.6678C46.8967 68.6153 47.0618 68.6433 47.1488 68.7517C47.3098 68.9077 47.4642 69.0333 47.6121 69.1286C48.8033 69.6346 49.5163 69.9894 49.7512 70.1931C49.9992 70.4575 50.5489 70.4979 51.4004 70.3141C51.7616 70.8084 52.2183 71.155 52.7704 71.3538C53.3356 71.6134 53.7684 71.9969 54.0689 72.5043C54.6555 72.5685 55.0794 72.7632 55.3406 73.0884C55.6756 73.4612 56.0584 73.7601 56.4888 73.9851C56.7845 74.1757 57.0778 74.2078 57.3688 74.0814C57.7337 74.0026 58.0813 73.9912 58.4116 74.0471C59.1902 74.7057 59.8186 75.1106 60.2967 75.2618C60.7749 75.413 61.1272 75.7184 61.3538 76.1783L62.266 75.9814C62.5402 76.3673 62.9033 76.5751 63.3552 76.6048C63.8203 76.6952 64.2311 76.8291 64.5876 77.0065C65.1659 77.3268 65.4747 77.5781 65.5141 77.7604C65.6142 77.9296 65.7382 78.0618 65.8861 78.157C66.121 78.3607 66.4036 78.4905 66.7339 78.5464C67.0642 78.6023 67.3295 78.7994 67.5298 79.1377C67.9901 78.9112 68.3138 78.9367 68.501 79.2142C68.749 79.4787 69.0489 79.5411 69.4007 79.4016C69.44 79.5839 69.5032 79.7292 69.5902 79.8376C69.7381 79.9329 69.8317 80.0717 69.871 80.2539C70.162 80.1275 70.4857 80.1531 70.8423 80.3305C71.2596 80.4948 71.6769 80.6591 72.0943 80.8233C72.5247 81.0484 72.9486 81.2431 73.366 81.4074C73.7833 81.5716 74.1375 81.5906 74.4284 81.4642C74.5202 81.8895 74.7008 82.1367 74.9703 82.2057C75.3006 82.2616 75.6136 82.3848 75.9093 82.5754C76.279 82.8135 76.5574 83.0714 76.7446 83.349C77.0057 83.6741 77.3211 83.9558 77.6907 84.194C78.1427 84.2236 78.5946 84.2533 79.0465 84.2829C79.5724 84.3602 79.9486 84.6288 80.1751 85.0886C80.5615 84.8144 80.8566 84.56 81.0605 84.3252C81.3384 84.138 81.5488 83.9337 81.692 83.712C81.8351 83.4903 81.9716 83.2383 82.1016 82.9559C82.2447 82.7343 82.429 82.4083 82.6544 81.9782C82.7367 81.7696 82.8798 81.548 83.0837 81.3132C83.2876 81.0784 83.3568 80.8091 83.2912 80.5053C83.7515 80.2788 84.2899 79.9719 84.9064 79.5845C85.5969 79.2447 86.0918 78.8835 86.3911 78.501C86.9897 77.7359 87.5258 77.2705 87.9992 77.1047C88.4857 76.9997 88.8089 76.5802 88.9687 75.8463C89.4934 75.0335 89.9901 74.3858 90.4588 73.9032C91.0014 73.4681 91.2482 72.8425 91.1994 72.0264C91.3556 71.8655 91.5488 71.7284 91.7789 71.6152C92.0091 71.5019 92.1588 71.3107 92.2279 71.0414C92.4748 70.4158 92.7133 70.0464 92.9435 69.9331C93.1736 69.8199 93.3668 69.6828 93.523 69.5219C93.7532 69.4086 93.9398 69.2412 94.0829 69.0195C94.2868 68.7847 94.4884 68.3915 94.6875 67.8398C95.3386 67.3178 95.957 66.6438 96.5425 65.818C97.202 65.0398 97.7768 64.3116 98.2669 63.6335C98.5185 63.3249 98.7332 62.9924 98.9109 62.6361C99.0886 62.2798 99.3098 61.9777 99.5745 61.7298C99.8393 61.4819 100.178 61.2816 100.591 61.129C101.003 60.9764 101.316 60.6546 101.528 60.1636C101.61 59.9551 101.599 59.6078 101.494 59.1217C102.028 58.9429 102.488 58.7163 102.875 58.4422C103.322 58.1549 103.756 57.8069 104.177 57.3981C104.777 57.523 105.4 57.611 106.048 57.662C106.709 57.7738 107.315 57.9291 107.867 58.1279C108.054 58.4054 108.063 58.5943 107.894 58.6944C107.798 58.8422 107.807 59.031 107.921 59.2609C108.338 59.4252 108.647 59.6765 108.847 60.0148C109.06 60.4139 109.183 60.8327 109.214 61.2711C109.258 61.7703 109.234 62.2522 109.144 62.7169C109.127 63.2292 109.128 63.6743 109.145 64.0519C108.711 64.4 108.388 64.8195 108.176 65.3104C107.964 65.8013 107.634 66.1904 107.187 66.4777C107.191 66.7946 107.103 66.9728 106.92 67.0122C106.812 67.0992 106.858 67.3118 107.058 67.6501C106.285 68.1984 105.695 68.7074 105.287 69.1769C104.892 69.7072 104.454 70.1833 103.972 70.6052C103.694 70.7924 103.41 70.9492 103.119 71.0755C102.889 71.1888 102.672 71.3628 102.468 71.5976C101.93 72.3496 101.479 72.7649 101.114 72.8437C100.762 72.9832 100.454 73.1769 100.189 73.4248C99.8205 74.0766 99.5451 74.4222 99.3626 74.4616C99.2541 74.5486 99.1521 74.666 99.0567 74.8137C98.8051 75.1224 98.6143 75.4179 98.4843 75.7003C98.3674 76.0435 98.2136 76.3629 98.0228 76.6584C97.1022 77.1114 96.373 77.7139 95.8351 78.4659C95.3712 79.2655 94.9508 80.1193 94.574 81.0273C93.9575 81.4147 93.4888 81.8974 93.168 82.4753C92.8603 83.114 92.4048 83.6575 91.8014 84.1056C91.6845 84.4488 91.5175 84.7074 91.3005 84.8814C91.1443 85.0423 91.0685 85.2812 91.0733 85.5981C90.0788 86.0035 89.554 86.8162 89.4991 88.0363C89.6732 88.2531 89.8819 88.3352 90.1251 88.2827C90.4423 88.2779 90.7225 88.2492 90.9658 88.1967C90.9574 88.4528 90.9968 88.6351 91.0838 88.7435C91.2316 88.8388 91.3729 88.9037 91.5077 88.9382C91.7164 89.0203 91.8577 89.0852 91.9316 89.1329C92.0794 89.2281 92.1557 89.4342 92.1605 89.7511C92.517 89.9286 92.8735 90.106 93.2301 90.2834C93.6474 90.4477 94.0647 90.612 94.4821 90.7763C94.8816 90.5629 95.216 90.4907 95.4855 90.5597C95.7681 90.6895 96.105 90.7758 96.4961 90.8185C96.5008 91.1354 96.5467 91.3481 96.6338 91.4565C96.7816 91.5518 96.8925 91.6232 96.9665 91.6708C97.1012 91.7054 97.2055 91.7464 97.2795 91.7941C97.4273 91.8893 97.5036 92.0954 97.5084 92.4124C98.0998 92.7934 98.6715 93.0834 99.2236 93.2822C99.8496 93.5286 100.38 93.9228 100.815 94.4648C101.12 94.3992 101.382 94.4378 101.604 94.5807C101.9 94.7712 102.2 94.8337 102.504 94.7681C102.63 95.0587 102.798 95.2451 103.006 95.3273C103.228 95.4702 103.474 95.5762 103.743 95.6452C104.026 95.775 104.272 95.8809 104.48 95.9631C104.75 96.0321 104.978 96.2054 105.165 96.4829C105.639 96.3172 106.023 96.3296 106.319 96.5201C106.675 96.6975 107.067 96.7403 107.492 96.6484C107.78 97.0951 108.162 97.394 108.641 97.5452C109.119 97.6964 109.501 97.9953 109.789 98.442C110.08 98.3156 110.269 98.3066 110.356 98.415C110.504 98.5103 110.743 98.5859 111.073 98.6418C111.234 98.7978 111.367 99.1188 111.472 99.6049C112.32 99.9943 113.154 100.323 113.976 100.591C114.871 100.906 115.6 101.48 116.161 102.313C116.331 102.213 116.494 102.082 116.65 101.921C116.88 101.808 117.112 101.853 117.347 102.057C117.452 102.543 117.618 103.016 117.845 103.476C118.071 103.936 118.237 104.408 118.342 104.895C118.407 105.198 118.382 105.522 118.265 105.865C118.222 106.256 118.27 106.627 118.409 106.978C118.192 107.152 117.975 107.326 117.758 107.5C117.554 107.735 117.455 108.011 117.46 108.328C117.225 108.124 117.029 108.103 116.873 108.264C116.73 108.485 116.574 108.646 116.404 108.746C116 108.643 115.794 108.719 115.785 108.975C115.777 109.232 115.378 109.445 114.587 109.616C114.1 109.721 113.649 109.691 113.231 109.527C112.814 109.362 112.414 109.131 112.031 108.832C111.579 108.802 111.333 108.696 111.294 108.514C111.268 108.392 111.181 108.284 111.033 108.189C110.716 108.194 110.453 108.155 110.244 108.073C110.11 108.038 109.897 108.084 109.606 108.211C109.458 108.115 109.236 107.972 108.94 107.782C108.719 107.639 108.46 107.472 108.164 107.282C107.868 107.091 107.603 106.894 107.368 106.69C107.194 106.474 107.101 106.335 107.087 106.274C106.336 106.627 105.965 106.675 105.973 106.419C106.042 106.15 106.094 105.948 106.129 105.813C105.942 105.536 105.67 105.308 105.313 105.131C105.031 105.001 104.796 104.797 104.608 104.52C104.291 104.525 104.024 104.614 103.807 104.788C103.664 105.01 103.434 105.123 103.117 105.128L102.698 104.074C102.081 103.571 101.622 103.066 101.321 102.559C100.874 102.846 100.509 102.925 100.226 102.795C99.9569 102.726 99.6678 102.566 99.3589 102.314C99.124 102.111 98.8283 101.92 98.4718 101.743C98.1761 101.552 97.7677 101.577 97.2466 101.816C97.2764 101.365 97.1632 101.135 96.9068 101.127C96.7112 101.105 96.5199 100.956 96.3327 100.678C96.2504 100.887 96.0745 100.957 95.805 100.888C95.5963 100.805 95.3769 100.821 95.1468 100.934C94.9334 100.535 94.6484 100.247 94.2919 100.07C93.9961 99.879 93.7416 99.5842 93.5282 99.1851C93.1895 99.3854 92.9093 99.4141 92.6875 99.2712C92.5265 99.1151 92.3525 98.8983 92.1653 98.6208C91.6179 98.7389 91.1594 98.6789 90.7898 98.4407C90.4941 98.2502 90.1745 98.0966 89.8311 97.9799C89.6833 97.8847 89.4442 97.8091 89.1139 97.7532C88.7836 97.6973 88.5815 97.6455 88.5075 97.5979C88.1463 97.1036 87.9048 96.8695 87.7832 96.8958C87.7355 96.9696 87.6377 96.959 87.4899 96.8637C87.342 96.7684 87.218 96.6362 87.1178 96.4671C87.0308 96.3587 86.8829 96.2634 86.6743 96.1812C86.4525 96.0383 86.2438 95.9562 86.0483 95.9348C85.9266 95.9611 85.768 95.9635 85.5725 95.9421C85.4509 95.9684 85.2857 95.9404 85.077 95.8583C84.8684 95.7761 84.6031 95.579 84.2811 95.267C83.834 95.5542 83.4237 95.8653 83.0505 96.2002C82.7512 96.5828 82.3779 96.9177 81.9307 97.205C81.8401 97.6697 81.6385 98.0629 81.3261 98.3847C81.0136 98.7065 80.8491 99.1235 80.8323 99.6358C80.6499 99.6752 80.3959 99.8254 80.0703 100.086C79.8187 100.395 79.5367 100.71 79.2242 101.032C78.9857 101.402 78.7407 101.741 78.489 102.049C78.2982 102.345 78.1921 102.59 78.1706 102.786C77.5016 102.93 77.0306 103.254 76.7575 103.758C76.5452 104.249 76.1481 104.621 75.5662 104.874C75.4887 105.399 75.2263 105.806 74.7791 106.093C74.3319 106.38 74.0088 106.8 73.8096 107.351C73.4316 107.369 73.1341 107.465 72.917 107.639C72.7131 107.874 72.4591 108.024 72.155 108.09C71.851 108.156 71.6774 108.384 71.6345 108.775C71.6655 109.213 71.4615 109.448 71.0227 109.479C70.8796 109.701 70.854 110.024 70.9458 110.449C70.3722 110.446 70.027 110.616 69.9101 110.959C69.8671 111.35 69.5589 111.544 68.9853 111.54C68.4475 112.292 67.8703 112.862 67.2538 113.249C66.6981 113.624 66.3666 114.299 66.2592 115.276C65.5425 115.494 65.078 115.849 64.8657 116.34C64.7274 116.879 64.5586 117.424 64.3595 117.975C64.1424 118.149 63.9534 118.158 63.7924 118.002C63.6446 117.907 63.4794 117.879 63.297 117.919C62.9321 117.997 62.5934 118.198 62.281 118.519C62.0425 118.889 61.7497 119.302 61.4027 119.758C61.1165 120.201 60.7933 120.621 60.4332 121.017C60.073 121.412 59.6563 121.693 59.1828 121.859Z" fill="#C06D5B"/>
</svg>
