<svg width="140" height="140" viewBox="0 0 140 140" fill="none" xmlns="http://www.w3.org/2000/svg">
<path d="M0.428981 74.1961C1.8785 61.4729 4.19544 44.8697 15.2665 31.0186C33.8477 7.64776 59.4025 -2.83079 87.6281 0.654541C103.367 2.59459 119.392 10.6593 127.826 29.2139C136.466 48.1407 140.872 67.0901 139.856 87.3027C139.491 94.6569 136.432 102.507 132.552 108.959C117.554 134.225 85.8248 143.993 61.6281 138.534C42.4877 134.225 25.8354 127.457 11.6941 113.516C1.39913 103.41 -1.14608 91.7017 0.428981 74.1961Z" fill="#16559D"/>
<path d="M36.2981 41.3952C36.482 39.7806 36.7761 37.6736 38.181 35.9159C40.539 32.95 43.782 31.6203 47.364 32.0626C49.3613 32.3088 51.3949 33.3322 52.4653 35.6868C53.5617 38.0887 54.1208 40.4935 53.9919 43.0585C53.9456 43.9918 53.5574 44.988 53.0649 45.8068C51.1617 49.0131 47.1351 50.2527 44.0645 49.5599C41.6355 49.0131 39.5223 48.1543 37.7277 46.3851C36.4212 45.1025 36.0982 43.6168 36.2981 41.3952Z" fill="#F4F1EB"/>
<path d="M86.755 99.6697C86.9389 98.055 87.233 95.948 88.6379 94.1903C90.996 91.2244 94.239 89.8947 97.8209 90.337C99.8182 90.5832 101.852 91.6066 102.922 93.9613C104.019 96.3631 104.578 98.7679 104.449 101.333C104.402 102.266 104.014 103.262 103.522 104.081C101.619 107.288 97.592 108.527 94.5214 107.834C92.0924 107.288 89.9792 106.429 88.1846 104.659C86.8781 103.377 86.5551 101.891 86.755 99.6697Z" fill="#F4F1EB"/>
<path d="M61.8818 99.6697C62.0658 98.055 62.3598 95.948 63.7648 94.1903C66.1228 91.2244 69.3658 89.8947 72.9477 90.337C74.9451 90.5832 76.9786 91.6066 78.049 93.9613C79.1455 96.3631 79.7046 98.7679 79.5756 101.333C79.5293 102.266 79.1411 103.262 78.6487 104.081C76.7454 107.288 72.7189 108.527 69.6482 107.834C67.2192 107.288 65.106 106.429 63.3114 104.659C62.0049 103.377 61.682 101.891 61.8818 99.6697Z" fill="#F4F1EB"/>
<path d="M36.2981 99.6697C36.482 98.055 36.7761 95.948 38.181 94.1903C40.539 91.2244 43.782 89.8947 47.364 90.337C49.3613 90.5832 51.3949 91.6066 52.4653 93.9613C53.5617 96.3631 54.1208 98.7679 53.9919 101.333C53.9456 102.266 53.5574 103.262 53.0649 104.081C51.1617 107.288 47.1351 108.527 44.0645 107.834C41.6355 107.288 39.5223 106.429 37.7277 104.659C36.4212 103.377 36.0982 101.891 36.2981 99.6697Z" fill="#F4F1EB"/>
<path d="M86.755 70.5324C86.9389 68.9178 87.233 66.8108 88.6379 65.0531C90.996 62.0872 94.239 60.7575 97.8209 61.1998C99.8182 61.446 101.852 62.4694 102.922 64.824C104.019 67.2259 104.578 69.6307 104.449 72.1957C104.402 73.129 104.014 74.1252 103.522 74.944C101.619 78.1503 97.592 79.3899 94.5214 78.6971C92.0924 78.1503 89.9792 77.2915 88.1846 75.5223C86.8781 74.2398 86.5551 72.754 86.755 70.5324Z" fill="#F4F1EB"/>
<path d="M36.2981 70.5324C36.482 68.9178 36.7761 66.8108 38.181 65.0531C40.539 62.0872 43.782 60.7575 47.364 61.1998C49.3613 61.446 51.3949 62.4694 52.4653 64.824C53.5617 67.2259 54.1208 69.6307 53.9919 72.1957C53.9456 73.129 53.5574 74.1252 53.0649 74.944C51.1617 78.1503 47.1351 79.3899 44.0645 78.6971C41.6355 78.1503 39.5223 77.2915 37.7277 75.5223C36.4212 74.2398 36.0982 72.754 36.2981 70.5324Z" fill="#F4F1EB"/>
<path d="M86.755 41.3952C86.9389 39.7806 87.233 37.6736 88.6379 35.9159C90.996 32.95 94.239 31.6203 97.8209 32.0626C99.8182 32.3088 101.852 33.3322 102.922 35.6868C104.019 38.0887 104.578 40.4935 104.449 43.0585C104.402 43.9918 104.014 44.988 103.522 45.8068C101.619 49.0131 97.592 50.2527 94.5214 49.5599C92.0924 49.0131 89.9792 48.1543 88.1846 46.3851C86.8781 45.1025 86.5551 43.6168 86.755 41.3952Z" fill="#F4F1EB"/>
<path d="M61.8818 70.5324C62.0658 68.9178 62.3598 66.8108 63.7648 65.0531C66.1228 62.0872 69.3658 60.7575 72.9477 61.1998C74.9451 61.446 76.9786 62.4694 78.049 64.824C79.1455 67.2259 79.7046 69.6307 79.5756 72.1957C79.5293 73.129 79.1411 74.1252 78.6487 74.944C76.7454 78.1503 72.7189 79.3899 69.6482 78.6971C67.2192 78.1503 65.106 77.2915 63.3114 75.5223C62.0049 74.2398 61.682 72.754 61.8818 70.5324Z" fill="#F4F1EB"/>
<path d="M61.8818 41.3952C62.0658 39.7806 62.3598 37.6736 63.7648 35.9159C66.1228 32.95 69.3658 31.6203 72.9477 32.0626C74.9451 32.3088 76.9786 33.3322 78.049 35.6868C79.1455 38.0887 79.7046 40.4935 79.5756 43.0585C79.5293 43.9918 79.1411 44.988 78.6487 45.8068C76.7454 49.0131 72.7189 50.2527 69.6482 49.5599C67.2192 49.0131 65.106 48.1543 63.3114 46.3851C62.0049 45.1025 61.682 43.6168 61.8818 41.3952Z" fill="#F4F1EB"/>
</svg>
