<svg width="787" height="378" viewBox="0 0 787 378" fill="none" xmlns="http://www.w3.org/2000/svg">
<path d="M5.21192 310.761L5.21192 185.674C5.21192 185.674 -6.5149 39.0892 5.21193 19.5445C16.9388 -0.000243939 36.4835 -0.000243706 36.4835 -0.000243706L740.093 -0.000235315C760.773 3.26609 768.387 7.91227 777.228 19.5445C783.835 37.3558 786.443 48.1397 787 70.3607L787 216.946L787 322.487C785.951 342.165 782.789 352.367 767.455 367.44C745.426 376.236 731.96 379.418 702.958 377.213L173.296 377.213L36.4835 367.44C11.1204 350.638 6.72756 337.233 5.21192 310.761Z" fill="#16559D"/>
<path d="M49.8389 216.644C49.8389 195.796 49.8389 174.949 49.8389 154.101" stroke="#053B59" stroke-width="8" stroke-linecap="round" stroke-linejoin="round"/>
<path d="M734.531 214.702C728.953 214.074 721.673 213.07 715.6 208.273C705.353 200.222 700.759 189.149 702.287 176.919C703.138 170.099 706.674 163.155 714.809 159.501C723.107 155.757 731.416 153.848 740.278 154.288C743.502 154.446 746.944 155.772 749.773 157.453C760.851 163.952 765.134 177.7 762.74 188.184C760.851 196.478 757.884 203.693 751.771 209.821C747.34 214.281 742.207 215.384 734.531 214.702Z" fill="#053B59"/>
</svg>
