<svg width="140" height="140" viewBox="0 0 140 140" fill="none" xmlns="http://www.w3.org/2000/svg">
<path d="M0.428981 74.1961C1.8785 61.4729 4.19544 44.8697 15.2665 31.0186C33.8477 7.64776 59.4025 -2.83079 87.6281 0.654541C103.367 2.59459 119.392 10.6593 127.826 29.2139C136.466 48.1407 140.872 67.0901 139.856 87.3027C139.491 94.6569 136.432 102.507 132.552 108.959C117.554 134.225 85.8248 143.993 61.6282 138.534C42.4877 134.225 25.8354 127.457 11.6941 113.516C1.39913 103.41 -1.14608 91.7017 0.428981 74.1961Z" fill="#DA9255"/>
<path d="M65.4603 58.5859C57.3945 79.0664 19.9336 92.3464 19.9336 92.3464C2.42318 101.182 2.93979 105.54 16.3519 116.707C34.7903 132.125 54.021 137.597 75.2326 139.327C71.1011 112.551 79.4027 81.6866 65.4603 58.5859Z" fill="#053B59"/>
<path d="M0.428981 73.8713C1.8785 61.2038 4.19544 44.6733 15.2665 30.8828C33.8477 7.61428 59.4025 -2.81839 87.6281 0.651676C103.367 2.58324 119.392 10.6127 127.826 29.086C136.466 47.93 140.872 66.7964 139.856 86.9205C139.491 94.2425 136.432 102.059 132.552 108.482C117.554 133.637 98.7495 72.8624 74.5528 67.4271C55.4124 63.1373 25.8354 126.899 11.6941 113.019C1.39913 102.957 -1.14608 91.3002 0.428981 73.8713Z" fill="#16559D"/>
</svg>
