<svg xmlns="http://www.w3.org/2000/svg" viewBox="0 0 497.52 222.96"><defs><style>.cls-1{font-size:21px;font-family:JosefinSans-SemiBoldItalic, Josefin Sans;font-weight:600;}.cls-1,.cls-13,.cls-15,.cls-17,.cls-4,.cls-6,.cls-8{fill:#2a363c;}.cls-1,.cls-4,.cls-6{font-style:italic;}.cls-2{letter-spacing:0.05em;}.cls-3{letter-spacing:0.05em;}.cls-4,.cls-6{font-size:32px;font-family:JosefinSans-BoldItalic, Josefin Sans;font-weight:700;}.cls-13,.cls-5{letter-spacing:0.05em;}.cls-6{letter-spacing:0.05em;}.cls-7{letter-spacing:0em;}.cls-13,.cls-15,.cls-17,.cls-8{font-size:16px;font-family:JosefinSans-Light, Josefin Sans;font-weight:300;}.cls-9{letter-spacing:0.05em;}.cls-10{letter-spacing:0.05em;}.cls-11,.cls-15{letter-spacing:0.05em;}.cls-12,.cls-17{letter-spacing:0.05em;}.cls-14{letter-spacing:0em;}.cls-16{letter-spacing:0em;}.cls-18{letter-spacing:0.05em;}.cls-19{fill:none;stroke:#f36e2a;stroke-miterlimit:10;stroke-width:2px;}.cls-20,.cls-21,.cls-23{font-size:12px;fill:#f86d28;font-family:JosefinSans-Regular, Josefin Sans;}.cls-21{letter-spacing:0.05em;}.cls-22{letter-spacing:0em;}.cls-23{letter-spacing:0.05em;}</style></defs><g id="Layer_2" data-name="Layer 2"><g id="Content"><text class="cls-1" transform="translate(1 17.87)">W</text><text class="cls-1" transform="translate(21.5 17.87)">e</text><text class="cls-1" transform="translate(33.76 17.87)"><tspan class="cls-2">l</tspan><tspan class="cls-3" x="6.66" y="0">c</tspan><tspan class="cls-2" x="17.56" y="0">o</tspan><tspan x="30.3" y="0">m</tspan></text><text class="cls-1" transform="translate(82.79 17.87)">e</text><text class="cls-1" transform="translate(102.41 17.87)">T</text><text class="cls-1" transform="translate(113.54 17.87)">o</text><text class="cls-4" transform="translate(1 56.27)">D</text><text class="cls-4" transform="translate(27.11 56.27)">R</text><text class="cls-4" transform="translate(50.69 56.27)">A</text><text class="cls-4" transform="translate(74.53 56.27)">F</text><text class="cls-4" transform="translate(95.34 56.27)"><tspan class="cls-5">T</tspan><tspan x="20.29" y="0"> </tspan></text><text class="cls-6" transform="translate(126.82 56.27)">SL<tspan class="cls-7" x="42.4" y="0">A</tspan></text><text class="cls-4" transform="translate(193.09 56.27)">M</text><text class="cls-8" transform="translate(1 97.47)">D</text><text class="cls-8" transform="translate(13.56 97.47)">r</text><text class="cls-8" transform="translate(19.73 97.47)">a</text><text class="cls-8" transform="translate(29.48 97.47)">f</text><text class="cls-8" transform="translate(35.45 97.47)"><tspan class="cls-9">t</tspan><tspan x="6" y="0"> </tspan></text><text class="cls-8" transform="translate(47.16 97.47)">S</text><text class="cls-8" transform="translate(57.24 97.47)">l</text><text class="cls-8" transform="translate(61.64 97.47)"><tspan class="cls-10">a</tspan><tspan x="9.73" y="0">m</tspan></text><text class="cls-8" transform="translate(90.45 97.47)">i</text><text class="cls-8" transform="translate(94.84 97.47)"><tspan class="cls-11">s</tspan><tspan class="cls-9" x="6.67" y="0"> </tspan><tspan x="12.38" y="0">t</tspan></text><text class="cls-8" transform="translate(113.24 97.47)"><tspan class="cls-5">h</tspan><tspan x="8.96" y="0">e</tspan></text><text class="cls-8" transform="translate(130.79 97.47)"><tspan class="cls-12"> </tspan><tspan x="5.71" y="0">p</tspan></text><text class="cls-8" transform="translate(146.29 97.47)">l</text><text class="cls-8" transform="translate(150.68 97.47)">a</text><text class="cls-8" transform="translate(160.42 97.47)">c</text><text class="cls-8" transform="translate(168.13 97.47)"><tspan class="cls-11">e</tspan><tspan x="8.58" y="0"> </tspan></text><text class="cls-8" transform="translate(182.44 97.47)">f</text><text class="cls-8" transform="translate(188.18 97.47)">o</text><text class="cls-8" transform="translate(197.27 97.47)"><tspan class="cls-11">r</tspan><tspan x="6.26" y="0"> </tspan></text><text class="cls-8" transform="translate(209.25 97.47)">c</text><text class="cls-8" transform="translate(216.96 97.47)">r</text><text class="cls-8" transform="translate(222.96 97.47)">e</text><text class="cls-8" transform="translate(231.56 97.47)">a</text><text class="cls-8" transform="translate(241.28 97.47)">t</text><text class="cls-8" transform="translate(247.28 97.47)">i</text><text class="cls-8" transform="translate(251.67 97.47)">v</text><text class="cls-8" transform="translate(259.64 97.47)">e</text><text class="cls-8" transform="translate(268.21 97.47)"><tspan class="cls-11"> </tspan><tspan x="5.7" y="0">w</tspan></text><text class="cls-8" transform="translate(285.36 97.47)"><tspan class="cls-5">r</tspan><tspan x="6.24" y="0">i</tspan></text><text class="cls-8" transform="translate(296 97.47)">t</text><text class="cls-8" transform="translate(302 97.47)">e</text><text class="cls-8" transform="translate(310.58 97.47)">r</text><text class="cls-13" transform="translate(316.85 97.47)">s<tspan class="cls-14" x="6.66" y="0">,</tspan></text><text class="cls-8" transform="translate(327.52 97.47)"><tspan class="cls-12" xml:space="preserve"> b</tspan><tspan x="15.5" y="0">l</tspan></text><text class="cls-8" transform="translate(347.43 97.47)"><tspan class="cls-5">ogg</tspan><tspan x="28.66" y="0">e</tspan></text><text class="cls-8" transform="translate(384.71 97.47)">r</text><text class="cls-15" transform="translate(390.98 97.47)">s<tspan class="cls-16" x="6.67" y="0">,</tspan></text><text class="cls-8" transform="translate(407.36 97.47)">j</text><text class="cls-8" transform="translate(411.73 97.47)">o</text><text class="cls-13" transform="translate(420.84 97.47)">u<tspan class="cls-14" x="8.91" y="0">r</tspan></text><text class="cls-8" transform="translate(436.02 97.47)">n</text><text class="cls-8" transform="translate(445.01 97.47)">a</text><text class="cls-8" transform="translate(454.74 97.47)">l</text><text class="cls-8" transform="translate(459.14 97.47)"><tspan class="cls-5">i</tspan><tspan x="4.37" y="0">s</tspan></text><text class="cls-8" transform="translate(470.19 97.47)">t</text><text class="cls-8" transform="translate(476.19 97.47)">s</text><text class="cls-8" transform="translate(482.86 97.47)">,</text><text class="cls-8" transform="translate(1 119.47)"><tspan class="cls-5">c</tspan><tspan x="7.7" y="0">r</tspan></text><text class="cls-8" transform="translate(14.97 119.47)"><tspan class="cls-9">i</tspan><tspan x="4.4" y="0">t</tspan></text><text class="cls-13" transform="translate(25.37 119.47)">ic<tspan class="cls-14" x="12.06" y="0">s</tspan></text><text class="cls-8" transform="translate(44.14 119.47)"><tspan class="cls-10">,</tspan><tspan class="cls-12" x="4" y="0"> </tspan><tspan x="9.71" y="0">p</tspan></text><text class="cls-13" transform="translate(63.66 119.47)">l<tspan class="cls-16" x="4.37" y="0">a</tspan></text><text class="cls-8" transform="translate(77.77 119.47)">y</text><text class="cls-8" transform="translate(85.83 119.47)"><tspan class="cls-5">wri</tspan><tspan x="22.02" y="0">g</tspan></text><text class="cls-8" transform="translate(117.7 119.47)"><tspan class="cls-9">h</tspan><tspan x="8.99" y="0">t</tspan></text><text class="cls-13" transform="translate(132.69 119.47)">s<tspan class="cls-14" x="6.66" y="0">,</tspan></text><text class="cls-8" transform="translate(143.37 119.47)"><tspan class="cls-12"> </tspan><tspan x="5.71" y="0">s</tspan></text><text class="cls-8" transform="translate(155.77 119.47)">c</text><text class="cls-8" transform="translate(163.48 119.47)">r</text><text class="cls-15" transform="translate(169.48 119.47)">e<tspan class="cls-14" x="8.58" y="0">e</tspan></text><text class="cls-8" transform="translate(186.63 119.47)">n</text><text class="cls-8" transform="translate(195.62 119.47)"><tspan class="cls-5">w</tspan><tspan class="cls-11" x="11.41" y="0">r</tspan><tspan x="17.66" y="0">i</tspan></text><text class="cls-8" transform="translate(217.69 119.47)"><tspan class="cls-9">t</tspan><tspan x="6" y="0">e</tspan></text><text class="cls-13" transform="translate(232.28 119.47)">rs<tspan class="cls-14" x="12.9" y="0">,</tspan></text><text class="cls-8" transform="translate(249.2 119.47)"><tspan class="cls-12"> </tspan><tspan x="5.71" y="0">p</tspan></text><text class="cls-8" transform="translate(264.71 119.47)"><tspan class="cls-5">o</tspan><tspan x="9.07" y="0">e</tspan></text><text class="cls-8" transform="translate(282.37 119.47)">t</text><text class="cls-8" transform="translate(288.37 119.47)">s</text><text class="cls-8" transform="translate(295.04 119.47)"><tspan class="cls-11">,</tspan><tspan x="4" y="0"> </tspan></text><text class="cls-13" transform="translate(304.77 119.47)">a<tspan class="cls-16" x="9.71" y="0">n</tspan></text><text class="cls-8" transform="translate(323.48 119.47)"><tspan class="cls-12">d</tspan><tspan x="9.79" y="0"> </tspan></text><text class="cls-8" transform="translate(338.98 119.47)"><tspan class="cls-11">m</tspan><tspan x="13.38" y="0">o</tspan></text><text class="cls-8" transform="translate(361.44 119.47)">r</text><text class="cls-8" transform="translate(367.44 119.47)">e</text><text class="cls-17" transform="translate(376.02 119.47)"> <tspan class="cls-16" x="5.71" y="0">t</tspan></text><text class="cls-8" transform="translate(387.73 119.47)">o</text><text class="cls-8" transform="translate(396.82 119.47)"><tspan class="cls-12"> </tspan><tspan class="cls-10" x="5.71" y="0">a</tspan><tspan x="15.44" y="0">c</tspan></text><text class="cls-13" transform="translate(420 119.47)">h<tspan class="cls-16" x="8.96" y="0">i</tspan></text><text class="cls-8" transform="translate(433.36 119.47)">e</text><text class="cls-8" transform="translate(441.81 119.47)">v</text><text class="cls-15" transform="translate(449.78 119.47)">e<tspan class="cls-12" x="8.58" y="0" xml:space="preserve"> t</tspan><tspan class="cls-16" x="20.29" y="0">h</tspan></text><text class="cls-8" transform="translate(479.07 119.47)">e</text><text class="cls-8" transform="translate(487.65 119.47)">i</text><text class="cls-8" transform="translate(492.05 119.47)">r</text><text class="cls-8" transform="translate(1 141.47)"><tspan class="cls-5">g</tspan><tspan x="9.79" y="0">o</tspan></text><text class="cls-8" transform="translate(19.89 141.47)">a</text><text class="cls-8" transform="translate(29.64 141.47)"><tspan class="cls-5">ls</tspan><tspan x="11.02" y="0">.</tspan></text><text class="cls-17" transform="translate(44.12 141.47)"> <tspan class="cls-16" x="5.71" y="0">D</tspan></text><text class="cls-8" transform="translate(62.41 141.47)">r</text><text class="cls-8" transform="translate(68.58 141.47)">a</text><text class="cls-8" transform="translate(78.33 141.47)">f</text><text class="cls-8" transform="translate(84.29 141.47)"><tspan class="cls-9">t</tspan><tspan x="6" y="0"> </tspan></text><text class="cls-8" transform="translate(96.01 141.47)"><tspan class="cls-11">S</tspan><tspan class="cls-5" x="10.08" y="0">la</tspan><tspan x="24.16" y="0">m</tspan></text><text class="cls-8" transform="translate(139.28 141.47)"><tspan class="cls-5">loo</tspan><tspan x="22.51" y="0">k</tspan></text><text class="cls-8" transform="translate(169.85 141.47)"><tspan class="cls-11">s</tspan><tspan x="6.67" y="0"> </tspan></text><text class="cls-13" transform="translate(182.25 141.47)">a<tspan class="cls-16" x="9.71" y="0">n</tspan></text><text class="cls-8" transform="translate(200.95 141.47)"><tspan class="cls-12">d</tspan><tspan x="9.79" y="0"> </tspan></text><text class="cls-8" transform="translate(216.45 141.47)">f</text><text class="cls-8" transform="translate(222.18 141.47)">e</text><text class="cls-8" transform="translate(230.77 141.47)"><tspan class="cls-11">e</tspan><tspan x="8.58" y="0">l</tspan></text><text class="cls-8" transform="translate(243.73 141.47)"><tspan class="cls-11">s</tspan><tspan x="6.67" y="0"> </tspan></text><text class="cls-8" transform="translate(256.13 141.47)"><tspan class="cls-5">l</tspan><tspan x="4.37" y="0">i</tspan></text><text class="cls-8" transform="translate(264.9 141.47)">k</text><text class="cls-8" transform="translate(272.56 141.47)"><tspan class="cls-12">e</tspan><tspan x="8.59" y="0"> </tspan></text><text class="cls-8" transform="translate(286.87 141.47)">a</text><text class="cls-8" transform="translate(302.31 141.47)">n</text><text class="cls-8" transform="translate(311.28 141.47)">o</text><text class="cls-8" transform="translate(320.39 141.47)">t</text><text class="cls-8" transform="translate(326.37 141.47)"><tspan class="cls-11">e</tspan><tspan x="8.58" y="0">b</tspan></text><text class="cls-8" transform="translate(344.75 141.47)">o</text><text class="cls-8" transform="translate(353.84 141.47)">o</text><text class="cls-8" transform="translate(362.95 141.47)">k</text><text class="cls-8" transform="translate(370.95 141.47)"><tspan class="cls-11"> </tspan><tspan x="5.7" y="0">w</tspan></text><text class="cls-8" transform="translate(388.1 141.47)">i</text><text class="cls-8" transform="translate(392.48 141.47)">t</text><text class="cls-8" transform="translate(398.48 141.47)">h</text><text class="cls-8" transform="translate(407.46 141.47)"><tspan class="cls-12" xml:space="preserve"> bu</tspan><tspan x="24.45" y="0">i</tspan></text><text class="cls-13" transform="translate(436.3 141.47)">l<tspan class="cls-16" x="4.37" y="0">t</tspan></text><text class="cls-8" transform="translate(446.67 141.47)">-</text><text class="cls-8" transform="translate(452.3 141.47)">i</text><text class="cls-8" transform="translate(456.69 141.47)">n</text><text class="cls-8" transform="translate(1 163.47)">p</text><text class="cls-8" transform="translate(10.79 163.47)">r</text><text class="cls-8" transform="translate(16.79 163.47)">o</text><text class="cls-8" transform="translate(25.89 163.47)"><tspan class="cls-11">je</tspan><tspan x="12.94" y="0">c</tspan></text><text class="cls-8" transform="translate(46.55 163.47)"><tspan class="cls-9">t</tspan><tspan x="6" y="0"> </tspan></text><text class="cls-15" transform="translate(58.26 163.47)">m<tspan class="cls-18" x="13.38" y="0">an</tspan><tspan class="cls-16" x="32.05" y="0">a</tspan></text><text class="cls-8" transform="translate(100.07 163.47)">g</text><text class="cls-8" transform="translate(109.89 163.47)"><tspan class="cls-11">eme</tspan><tspan x="30.53" y="0">n</tspan></text><text class="cls-8" transform="translate(149.4 163.47)"><tspan class="cls-9">t</tspan><tspan x="6" y="0"> </tspan></text><text class="cls-8" transform="translate(161.11 163.47)"><tspan class="cls-5">so</tspan><tspan x="15.73" y="0">f</tspan></text><text class="cls-8" transform="translate(182.84 163.47)">t</text><text class="cls-8" transform="translate(188.84 163.47)">w</text><text class="cls-8" transform="translate(200.15 163.47)">a</text><text class="cls-8" transform="translate(209.89 163.47)">r</text><text class="cls-8" transform="translate(215.89 163.47)">e</text><text class="cls-8" transform="translate(224.48 163.47)">.</text><rect class="cls-19" x="1" y="185.96" width="88" height="36"/><text class="cls-20" transform="translate(18.48 207.16)">S</text><text class="cls-21" transform="translate(26.05 207.16)">IG<tspan class="cls-22" x="13.85" y="0">N</tspan></text><text class="cls-23" transform="translate(50.57 207.16)"> <tspan class="cls-22" x="4.37" y="0">U</tspan></text><text class="cls-20" transform="translate(64.31 207.16)">P</text></g></g></svg>