<svg xmlns="http://www.w3.org/2000/svg" viewBox="0 0 133.75 175.61"><defs><style>.cls-1{fill:#b38c6d;}.cls-2{fill:#f1dbd4;}.cls-3{fill:#eabbae;}.cls-4{fill:#da9255;}.cls-5{fill:#16559d;}</style></defs><g id="Layer_2" data-name="Layer 2"><g id="Layer_1-2" data-name="Layer 1"><path class="cls-1" d="M133.7,76.23c-.28,5.52-.78,11-.78,16.56,0,8.1-2.23,15.68-4.69,23.25-.45,1.37-.64,2.83-1.13,4.18-.9,2.45-2.09,4.81-2.89,7.29a77.23,77.23,0,0,1-5.2,11.63,54.2,54.2,0,0,1-6.08,8.84,78,78,0,0,1-6.26,6.48c-2.77,2.72-6.37,4-9.81,5.56a4,4,0,0,1-3.93-.11,1.26,1.26,0,0,0-1.78.19c-5.83,4.92-12.49,8.48-19.34,11.7a14.88,14.88,0,0,1-11.62.35c-3-1.06-5.88-2.46-8.77-3.82a18.69,18.69,0,0,1-2.87-2c-.57-.41-1-.31-1.51.14-2.22,1.85-4.91,2.52-7.69,3a34.72,34.72,0,0,0-4.55.84c-3.79,1.17-7.51,2.56-11.31,3.69a48.87,48.87,0,0,1-7.08,1.56,4.57,4.57,0,0,1-4.75-6.06A11.45,11.45,0,0,1,13,167.29c1.89-2.69,3.71-5.45,5.75-8,2.33-2.94,3.06-6.45,3.93-9.9A20.05,20.05,0,0,0,21,135.25c-1.28-2.62-2.85-5-4.31-7.55-2-3.51-3.82-7.16-5.5-10.85s-3.05-7.31-4.49-11C5.35,102.42,4.12,99,2.85,95.5a11.64,11.64,0,0,0-.67-1.91C-.31,89.32-.19,84.72.25,80c.5-5.36,2.32-10.39,3.52-15.58C5.34,57.61,8.49,51.36,11,44.87c1.19-3.06,3.43-5.3,5-8,.77-1.34,1.8-2.52,2.65-3.82a13.4,13.4,0,0,1,4.18-4c1.48-.92,2.84-2,4.33-2.92a17.46,17.46,0,0,1,3.41-1.54c1.09-.37,2.29-.44,3.4-.77a14,14,0,0,1,9.6.4,12.36,12.36,0,0,1,4.2,2.48c.83.81,1.09.74,1.61-.22,1.76-3.22,3.3-6.6,5.34-9.64C58,12,62,7.69,67.31,5a56.13,56.13,0,0,1,15.75-5,4.5,4.5,0,0,1,1.16,0c6.67.52,13.32,1.11,19.54,4a32.16,32.16,0,0,1,9.75,7.21,33.92,33.92,0,0,1,7.5,12c1.6,4.36,3.79,8.51,5.21,12.92a160.46,160.46,0,0,1,5.19,19.07C132.73,62.07,134,69.08,133.7,76.23ZM100.83,89.67h0c0-2.62.08-5.23,0-7.85-.13-3.58-.39-7.15-.61-10.73-.15-2.42-.45-4.83-.47-7.24a36.69,36.69,0,0,0-1.46-11.48c-.88-2.65-2.16-5.16-3-7.81-2.15-6.38-7.56-8.51-13.25-10a46,46,0,0,0-11.8-1.28c-4.55,0-9.09-.2-13.62.38-1.37.18-2.56.8-3.84,1-2.12.38-4.38-.09-6.34,1.27-.3.21-.94,0-1.4-.11a8.43,8.43,0,0,0-5.88.81,14.94,14.94,0,0,0-7.5,7,17.13,17.13,0,0,1-1.07,1.73,35.25,35.25,0,0,0-5.82,19.47c.06,3.58,0,7.17,0,10.75,0,4.17.06,8.33.08,12.5,0,2.22,0,4.45,0,6.67.11,6.58.06,13.18.43,19.75.3,5.21,1,10.42,1.78,15.58a29,29,0,0,0,4,11.41c2.1,3.26,4.3,6.43,6.6,9.55a36.3,36.3,0,0,0,6.06,7,9.8,9.8,0,0,1,1.44,1.44,28.89,28.89,0,0,0,14.2,9.64c2.38.75,4.8,1.83,7.36,1.33a29.27,29.27,0,0,0,6.93-2,83.7,83.7,0,0,0,10.37-5.83c5.22-3.49,9.53-7.87,12-13.86,1.8-4.4,3.44-8.77,3.83-13.63.42-5.3,1-10.56.47-15.87a9.31,9.31,0,0,1,.07-2,67.37,67.37,0,0,0,.62-12.14C100.62,100,100.83,94.8,100.83,89.67Zm30.55-12.43c-.3-3.92-.54-8.37-1-12.8a95.75,95.75,0,0,0-4-19.3,46.67,46.67,0,0,1-1.42-4.73,46.41,46.41,0,0,0-3.29-9.61c-1.15-2.55-2.23-5.15-3.36-7.71-4.27-9.67-11-16.54-21.6-19-3-.71-6.11-.94-9.15-1.45A16,16,0,0,0,79.76,3c-2.21.72-4.37,1.6-6.61,2.2A22.65,22.65,0,0,0,62,11.76c-1.7,1.85-3.27,3.82-4.88,5.76-.12.15,0,.47-.05.71a2.17,2.17,0,0,0,.51-.24c.44-.38.88-.76,1.28-1.18a26.49,26.49,0,0,1,15.71-8.1,14.76,14.76,0,0,1,2.87-.32,72.26,72.26,0,0,1,7.79.52,40.53,40.53,0,0,1,14.34,5.25,13.38,13.38,0,0,1,4.68,5c.16.25.41.42.57.66a34.57,34.57,0,0,1,3.43,5c1.37,3,2.38,6.11,3.52,9.19s2.39,6.35,3.41,9.58c1.93,6.09,3.73,12.21,5.57,18.32a15,15,0,0,1,.51,2c.28,1.82.61,3.64.74,5.47.32,4.43,1.64,8.77,1.21,13.28a3.56,3.56,0,0,0,.18,1.41,29,29,0,0,1,.84,13.51c-1,7-2.34,13.93-5.52,20.37-.8,1.62-1.11,3.49-1.83,5.17-1.15,2.66-2.46,5.26-3.7,7.88-1.78,3.75-3.54,7.5-6.8,10.29a4.07,4.07,0,0,0-.89,1.44,9.11,9.11,0,0,1-5.94,5.4,3,3,0,0,0-1.34,1.39c-1.37,2.34-2.68,4.71-4,7.09a13.2,13.2,0,0,0-.71,1.78c.65,0,1.32.05,2,0a4,4,0,0,0,1.11-.33,31.41,31.41,0,0,0,10-6.34,53.87,53.87,0,0,0,12.16-16.85,192.9,192.9,0,0,0,9.42-26.23,60.67,60.67,0,0,0,2.32-16C130.57,87.66,131.06,82.72,131.38,77.24ZM78.79,17.07c5-.36,9.06,1.94,12.95,4.56,3,2,4.49,5.28,6.68,8a.58.58,0,0,1,.1.27c.57,3.1,2.49,5.63,3.69,8.47,2.28,5.44,4.64,10.78,6,16.59,1.39,6.12,3.36,12.11,5.06,18.17a8.27,8.27,0,0,1,.29,1.71c.27,5,.72,10,.71,15a51.61,51.61,0,0,1-1.74,13.52c-.43,1.59-.75,3.21-1.15,4.8a28,28,0,0,1-1.3,4.75c-1.19,2.63-2.59,5.17-4,7.68a5.77,5.77,0,0,1-2.08,2.31,2.17,2.17,0,0,0-1.25,2.32,46.42,46.42,0,0,1-.25,6.68c-.6,3.81-.4,7.77-1.9,11.43-.06.14.07.35.11.53.25-.12.58-.17.74-.36,1.65-2,3.28-4.05,4.91-6.08a3.21,3.21,0,0,0,.31-.5c1.91-3.59,4-7.07,5.66-10.79,2.32-5.33,4.27-10.81,6.33-16.25a13.6,13.6,0,0,0,.74-2.8c.76-4.79,1.6-9.57,2.16-14.38a34.91,34.91,0,0,0-.76-10.38c-.82-4.47-1.75-8.93-2.61-13.39-.33-1.71-.45-3.47-.91-5.14-1-3.73-2.14-7.44-3.3-11.13-1.86-5.91-3.78-11.81-5.68-17.7-1.52-4.73-3.23-9.35-6.86-13C99,19.59,97.44,16.28,94,14.82c-2-.82-3.73-2-5.86-2.47-7.75-1.84-14.77.07-21.49,3.82a3.79,3.79,0,0,0-.93.7C63.41,19.45,61,22,58.81,24.66a11.06,11.06,0,0,0-2.52,5.17,1.49,1.49,0,0,0,.27.92,3.93,3.93,0,0,0,1.29-.35c.13,0,.17-.33.23-.51A16.44,16.44,0,0,1,70.24,18.57C73,17.84,75.93,17.55,78.79,17.07ZM14.28,81c.31-4.35.49-8.7,1-13,.33-3,1.07-5.89,1.65-8.83a50.09,50.09,0,0,1,4.65-13.41,27.76,27.76,0,0,1,7-9.19,37.57,37.57,0,0,1,11.25-5.84,2.59,2.59,0,0,1,1.11-.08,18,18,0,0,1,5.77,1.72c.46.23.79,1.07,1.39.42.18-.2-.07-.89-.26-1.29-.86-1.83-1.74-3.73-3.55-4.79a10.72,10.72,0,0,0-7.81-1.5c-3.5.73-6.9,1.6-9.9,3.79-2.36,1.72-4.85,3.17-6.19,5.94-.46.94-1.31,1.68-1.87,2.58-1.18,1.87-2.79,3.51-3.16,5.83a2.52,2.52,0,0,1-.57,1c-3.18,4.14-4.91,9-6.56,13.83C7,61.64,6.18,65.34,5.15,69A70.07,70.07,0,0,0,2.54,81.15a22,22,0,0,0,.8,9.2c1,3.1,2.4,6.1,3.56,9.17,1.24,3.25,2.51,6.5,3.59,9.81C12.68,116,16.25,122,19.89,128c.45.73.8,1.82,2,1.76a15,15,0,0,0-.07-2.85,21.82,21.82,0,0,0-1.07-2.69c-1.86-5.21-3.79-10.46-4.25-16C15.78,99.13,13.91,90.13,14.28,81Zm2.76,92,.07.23c1.66-.44,3.38-.75,5-1.35a78.33,78.33,0,0,1,11.58-3.59,1.24,1.24,0,0,0,1.09-1.68c-.13-.56-.22-1.14-.38-1.69-1.36-4.53-2.62-9.09-4.15-13.56-.82-2.4-1.26-5.06-3.33-6.89l-1-.91a8.75,8.75,0,0,0-.3,1.4c-.17,3.62-1.3,7-2.33,10.44a12.38,12.38,0,0,1-1.64,3.37c-1.66,2.47-3.44,4.86-5.2,7.28-.79,1.09-1.7,2.1-2.44,3.23a2.35,2.35,0,0,0,1.61,3.7A7.69,7.69,0,0,0,17,172.92ZM80.29,21.08c-1.51.22-3.06.36-4.56.68a15.48,15.48,0,0,0-7.57,4,2.55,2.55,0,0,0-.38.69,5,5,0,0,0,.55,0c5.68-.86,11.14.34,16.55,1.82A42.72,42.72,0,0,1,94,31.92a2.8,2.8,0,0,0,.72.16,2.19,2.19,0,0,0-.24-.76c-1.19-1.39-2.55-2.66-3.6-4.14-2.06-2.93-5.13-4.33-8.23-5.69A9.68,9.68,0,0,0,80.29,21.08Zm26.82,79.36.22,0c0,.48,0,1,0,1.45,0,1.44,0,2.89.07,4.34.52-1.4,1.13-2.77,1.55-4.19a43.51,43.51,0,0,0,1.64-13.18c-.06-3.09-.28-6.17-.52-9.24-.14-1.83-.44-3.64-.7-5.46a1.83,1.83,0,0,0-.35-.78c-.09-.13-.3-.18-.45-.27a.76.76,0,0,0-.12.26,10.12,10.12,0,0,0-.22,1.72c0,3.46.13,6.93.19,10.39a17,17,0,0,1-.07,2Q107.75,94,107.11,100.44Z"/><path class="cls-2" d="M100.83,89.67c0,5.13-.21,10.28.06,15.4a67.37,67.37,0,0,1-.62,12.14,9.31,9.31,0,0,0-.07,2c.51,5.31,0,10.57-.47,15.87-.39,4.86-2,9.23-3.83,13.63-2.43,6-6.74,10.37-12,13.86a83.7,83.7,0,0,1-10.37,5.83,29.27,29.27,0,0,1-6.93,2c-2.56.5-5-.58-7.36-1.33a28.89,28.89,0,0,1-14.2-9.64,9.8,9.8,0,0,0-1.44-1.44,36.3,36.3,0,0,1-6.06-7c-2.3-3.12-4.5-6.29-6.6-9.55a29,29,0,0,1-4-11.41c-.81-5.16-1.48-10.37-1.78-15.58-.37-6.57-.32-13.17-.43-19.75,0-2.22,0-4.45,0-6.67,0-4.17-.06-8.33-.08-12.5,0-3.58,0-7.17,0-10.75a35.25,35.25,0,0,1,5.82-19.47,17.13,17.13,0,0,0,1.07-1.73,14.94,14.94,0,0,1,7.5-7,8.43,8.43,0,0,1,5.88-.81c.46.12,1.1.32,1.4.11,2-1.36,4.22-.89,6.34-1.27,1.28-.23,2.47-.85,3.84-1,4.53-.58,9.07-.35,13.62-.38a46,46,0,0,1,11.8,1.28c5.69,1.46,11.1,3.59,13.25,10,.89,2.65,2.17,5.16,3,7.81a36.69,36.69,0,0,1,1.46,11.48c0,2.41.32,4.82.47,7.24.22,3.58.48,7.15.61,10.73.1,2.62,0,5.23,0,7.85Z"/><path class="cls-3" d="M131.38,77.24c-.32,5.48-.81,10.42-.85,15.36a60.67,60.67,0,0,1-2.32,16,192.9,192.9,0,0,1-9.42,26.23,53.87,53.87,0,0,1-12.16,16.85,31.41,31.41,0,0,1-10,6.34,4,4,0,0,1-1.11.33c-.65.05-1.32,0-2,0a13.2,13.2,0,0,1,.71-1.78c1.29-2.38,2.6-4.75,4-7.09a3,3,0,0,1,1.34-1.39,9.11,9.11,0,0,0,5.94-5.4,4.07,4.07,0,0,1,.89-1.44c3.26-2.79,5-6.54,6.8-10.29,1.24-2.62,2.55-5.22,3.7-7.88.72-1.68,1-3.55,1.83-5.17,3.18-6.44,4.48-13.36,5.52-20.37a29,29,0,0,0-.84-13.51,3.56,3.56,0,0,1-.18-1.41c.43-4.51-.89-8.85-1.21-13.28-.13-1.83-.46-3.65-.74-5.47a15,15,0,0,0-.51-2c-1.84-6.11-3.64-12.23-5.57-18.32-1-3.23-2.25-6.4-3.41-9.58s-2.15-6.22-3.52-9.19a34.57,34.57,0,0,0-3.43-5c-.16-.24-.41-.41-.57-.66a13.38,13.38,0,0,0-4.68-5A40.53,40.53,0,0,0,85.24,8.91a72.26,72.26,0,0,0-7.79-.52,14.76,14.76,0,0,0-2.87.32,26.49,26.49,0,0,0-15.71,8.1c-.4.42-.84.8-1.28,1.18a2.17,2.17,0,0,1-.51.24c0-.24-.07-.56.05-.71,1.61-1.94,3.18-3.91,4.88-5.76A22.65,22.65,0,0,1,73.15,5.24c2.24-.6,4.4-1.48,6.61-2.2a16,16,0,0,1,7.77-.41c3,.51,6.15.74,9.15,1.45,10.55,2.47,17.33,9.34,21.6,19,1.13,2.56,2.21,5.16,3.36,7.71a46.41,46.41,0,0,1,3.29,9.61,46.67,46.67,0,0,0,1.42,4.73,95.75,95.75,0,0,1,4,19.3C130.84,68.87,131.08,73.32,131.38,77.24Z"/><path class="cls-3" d="M78.79,17.07c-2.86.48-5.77.77-8.55,1.5A16.44,16.44,0,0,0,58.08,29.89c-.06.18-.1.46-.23.51a3.93,3.93,0,0,1-1.29.35,1.49,1.49,0,0,1-.27-.92,11.06,11.06,0,0,1,2.52-5.17c2.19-2.69,4.6-5.21,6.93-7.79a3.79,3.79,0,0,1,.93-.7c6.72-3.75,13.74-5.66,21.49-3.82,2.13.51,3.91,1.65,5.86,2.47,3.42,1.46,4.93,4.77,7.36,7.18,3.63,3.61,5.34,8.23,6.86,13,1.9,5.89,3.82,11.79,5.68,17.7,1.16,3.69,2.28,7.4,3.3,11.13.46,1.67.58,3.43.91,5.14.86,4.46,1.79,8.92,2.61,13.39a34.91,34.91,0,0,1,.76,10.38c-.56,4.81-1.4,9.59-2.16,14.38a13.6,13.6,0,0,1-.74,2.8c-2.06,5.44-4,10.92-6.33,16.25-1.61,3.72-3.75,7.2-5.66,10.79a3.21,3.21,0,0,1-.31.5c-1.63,2-3.26,4.07-4.91,6.08-.16.19-.49.24-.74.36,0-.18-.17-.39-.11-.53,1.5-3.66,1.3-7.62,1.9-11.43a46.42,46.42,0,0,0,.25-6.68,2.17,2.17,0,0,1,1.25-2.32,5.77,5.77,0,0,0,2.08-2.31c1.42-2.51,2.82-5,4-7.68a28,28,0,0,0,1.3-4.75c.4-1.59.72-3.21,1.15-4.8a51.61,51.61,0,0,0,1.74-13.52c0-5-.44-10-.71-15a8.27,8.27,0,0,0-.29-1.71c-1.7-6.06-3.67-12.05-5.06-18.17-1.31-5.81-3.67-11.15-6-16.59-1.2-2.84-3.12-5.37-3.69-8.47a.58.58,0,0,0-.1-.27c-2.19-2.68-3.71-6-6.68-8C87.85,19,83.82,16.71,78.79,17.07Z"/><path class="cls-3" d="M14.28,81c-.37,9.18,1.5,18.18,2.25,27.25.46,5.51,2.39,10.76,4.25,16a21.82,21.82,0,0,1,1.07,2.69,15,15,0,0,1,.07,2.85c-1.23.06-1.58-1-2-1.76-3.64-6-7.21-11.93-9.4-18.62C9.41,106,8.14,102.77,6.9,99.52c-1.16-3.07-2.52-6.07-3.56-9.17a22,22,0,0,1-.8-9.2A70.07,70.07,0,0,1,5.15,69c1-3.63,1.84-7.33,3.06-10.89,1.65-4.85,3.38-9.69,6.56-13.83a2.52,2.52,0,0,0,.57-1c.37-2.32,2-4,3.16-5.83.56-.9,1.41-1.64,1.87-2.58,1.34-2.77,3.83-4.22,6.19-5.94,3-2.19,6.4-3.06,9.9-3.79a10.72,10.72,0,0,1,7.81,1.5c1.81,1.06,2.69,3,3.55,4.79.19.4.44,1.09.26,1.29-.6.65-.93-.19-1.39-.42a18,18,0,0,0-5.77-1.72,2.59,2.59,0,0,0-1.11.08,37.57,37.57,0,0,0-11.25,5.84,27.76,27.76,0,0,0-7,9.19,50.09,50.09,0,0,0-4.65,13.41C16.33,62,15.59,65,15.26,67.92,14.77,72.25,14.59,76.6,14.28,81Z"/><path class="cls-3" d="M17,172.92a7.69,7.69,0,0,1-1.44,0A2.35,2.35,0,0,1,14,169.2c.74-1.13,1.65-2.14,2.44-3.23,1.76-2.42,3.54-4.81,5.2-7.28a12.38,12.38,0,0,0,1.64-3.37c1-3.41,2.16-6.82,2.33-10.44a8.75,8.75,0,0,1,.3-1.4l1,.91c2.07,1.83,2.51,4.49,3.33,6.89,1.53,4.47,2.79,9,4.15,13.56.16.55.25,1.13.38,1.69a1.24,1.24,0,0,1-1.09,1.68A78.33,78.33,0,0,0,22.1,171.8c-1.61.6-3.33.91-5,1.35Z"/><path class="cls-3" d="M80.29,21.08a9.68,9.68,0,0,1,2.31.41c3.1,1.36,6.17,2.76,8.23,5.69,1,1.48,2.41,2.75,3.6,4.14a2.19,2.19,0,0,1,.24.76,2.8,2.8,0,0,1-.72-.16,42.72,42.72,0,0,0-9.07-3.62C79.47,26.82,74,25.62,68.33,26.48a5,5,0,0,1-.55,0,2.55,2.55,0,0,1,.38-.69,15.48,15.48,0,0,1,7.57-4C77.23,21.44,78.78,21.3,80.29,21.08Z"/><path class="cls-3" d="M107.11,100.44q.63-6.47,1.24-12.92a17,17,0,0,0,.07-2c-.06-3.46-.14-6.93-.19-10.39a10.12,10.12,0,0,1,.22-1.72.76.76,0,0,1,.12-.26c.15.09.36.14.45.27a1.83,1.83,0,0,1,.35.78c.26,1.82.56,3.63.7,5.46.24,3.07.46,6.15.52,9.24A43.51,43.51,0,0,1,109,102.06c-.42,1.42-1,2.79-1.55,4.19,0-1.45-.05-2.9-.07-4.34,0-.48,0-1,0-1.45Z"/><path class="cls-4" d="M48.22,128.78c-1.62,1.45-4.9,1.32-5.82-.16a9.52,9.52,0,0,1,4-3.17,4.67,4.67,0,0,1,5.45.82c1.12,1.07,2.09,2.3,3.16,3.42,1.28,1.34,2.07,3.11,3.73,4.1.12.07.19.23.28.36,1.37,1.95,3.65,1.75,5.09,0A9.54,9.54,0,0,0,65.4,132a4.67,4.67,0,0,0,.26-1.76c0-1.55,0-3.11-.07-4.66a14.66,14.66,0,0,0-.33-2.47,66.23,66.23,0,0,0-2.09-7.44c-.71-2-1.37-4.09-2-6.17A56,56,0,0,1,58.9,98.84c-.07-1-.25-2-.41-3-.33-2-.74-3.88-1-5.83s-.48-4.21-.63-6.32c-.1-1.58,0-3.18-.09-4.77a6.72,6.72,0,0,0-.31-1.29c1.53-1.33,4.65-.57,5.12,1.34a5.35,5.35,0,0,1,.36,1.86A5,5,0,0,0,62.26,83a8.51,8.51,0,0,1,.19,1.9c.09.78.19,1.56.31,2.33s.25,1.4.38,2.11c0,.07,0,.15,0,.22.48,1.65.42,3.38.78,5A46.52,46.52,0,0,1,65,101.22a29.89,29.89,0,0,0,1.1,5.79,15.24,15.24,0,0,1,.83,4.11,1.31,1.31,0,0,0,0,.34c.57,2.08,1.13,4.16,1.72,6.24a38.4,38.4,0,0,1,1.58,11.21,21.07,21.07,0,0,1-.41,3.05,2.74,2.74,0,0,1-.39.81c-.14.22-.35.4-.48.63-1.41,2.53-3.85,3.37-6.45,4a13.21,13.21,0,0,1-5.73-.4A5.38,5.38,0,0,1,54,135.25c-1.61-1.65-3.15-3.37-4.7-5.07C49,129.76,48.62,129.29,48.22,128.78Z"/><path class="cls-5" d="M83.06,92.06a13.65,13.65,0,0,1-7.8-2.52C73,88,71.12,83.05,72,80.29a11.41,11.41,0,0,1,2.14-3.66,7,7,0,0,1,2-1.76,17.77,17.77,0,0,1,6.29-2.44,10.28,10.28,0,0,1,1.84,0c.8,0,1.6.16,2.4.21a6.38,6.38,0,0,1,3.45,1.48,9.11,9.11,0,0,1,3.65,6.71,9.66,9.66,0,0,1-2,7.15,10.06,10.06,0,0,1-8,4.08Zm5.88-14.6a10.75,10.75,0,0,0-1.07-1.67,4.13,4.13,0,0,0-1.68-1.26,10.68,10.68,0,0,0-1.86-.43,3.7,3.7,0,0,0-1.37.13c-.82.26-1.62.6-2.42.94a8.52,8.52,0,0,0-5.21,6.31,2.81,2.81,0,0,0-.16,1.09c.26,1.13.24,2.35,1.08,3.31a3.71,3.71,0,0,1,.43.92,3.16,3.16,0,0,0,.44.81,7.1,7.1,0,0,0,3.67,2.24,4.2,4.2,0,0,0,3-.32,5.13,5.13,0,0,1-.49-.33c-.71-.6-1.44-1.17-2.11-1.81a2.64,2.64,0,0,1-.75-1.75,7.13,7.13,0,0,1,.93-4.38,7,7,0,0,1,5-3.56C87.22,77.57,88,77.55,88.94,77.46Z"/></g></g></svg>