<svg width="196" height="188" viewBox="0 0 196 188" fill="none" xmlns="http://www.w3.org/2000/svg">
<path d="M107.904 12.1168C112.275 12.1185 116.642 12.3815 120.978 12.9044C136.126 14.7068 156.43 21.5831 167.189 44.2113C179.001 69.0659 184.141 92.7543 182.896 116.625C182.544 123.471 179.448 132.058 174.435 140.177C160.995 161.866 133.811 175.876 105.159 175.876C99.7244 175.885 94.306 175.316 89.0051 174.179C60.3687 167.97 41.3256 158.897 25.3633 143.887C14.6047 133.679 11.3324 122.016 13.3117 100.842C15.4187 83.1063 18.5474 64.4918 31.3172 49.1489C51.4298 24.9152 77.9113 12.1168 107.904 12.1168ZM107.904 0C74.2719 0 44.0552 14.207 21.2929 41.6516C5.87327 60.2055 2.63292 82.5459 0.605701 99.6306C-1.61306 123.137 1.9625 138.859 16.3605 152.43C36.1378 171.15 59.4269 180.238 86.1957 186.024C92.431 187.346 98.8018 188.006 105.191 187.993C135.216 187.993 168.242 174.134 185.465 146.311C190.829 137.647 195.171 127.106 195.681 117.23C197.102 90.0886 190.893 64.6433 178.857 39.2282C166.981 14.313 144.57 3.48359 122.558 0.87847C117.698 0.295562 112.803 0.00216383 107.904 0V0Z" fill="#F4F1EB"/>
</svg>
