<svg width="787" height="585" viewBox="0 0 787 585" fill="none" xmlns="http://www.w3.org/2000/svg">
<path d="M781.788 83.4897L781.788 239.066C781.788 239.066 793.515 421.382 781.788 445.691C770.061 470 750.517 470 750.517 470L46.9073 470C26.2267 465.937 18.6132 460.159 9.77238 445.691C3.16484 423.538 0.557233 410.126 -1.67191e-05 382.488L-8.7498e-06 200.172L-3.01191e-06 68.9044C1.04938 44.4298 4.21057 31.7416 19.5447 12.9941C41.5742 2.05457 55.0403 -1.90322 84.0422 0.839662L613.704 0.839685L750.517 12.9941C775.88 33.892 780.272 50.5649 781.788 83.4897Z" fill="#053B59"/>
<path d="M9.83752 445.556C3.18597 423.279 0.560912 409.792 0 382L787 382L777.5 438.5C765.695 462.944 745 470 745 470L47.2201 470C26.4016 465.915 18.7373 460.104 9.83752 445.556Z" fill="#16559D" fill-opacity="0.25"/>
<rect x="33" y="47" width="714" height="306" fill="#16559D"/>
<path d="M289.712 573C213.712 557 344.712 470 344.712 470H445.712C445.712 470 569.212 557 500.712 573C432.211 589 365.711 589 289.712 573Z" fill="#053B59"/>
<path d="M381.08 426.309C381.349 423.855 381.779 420.653 383.835 417.982C387.286 413.475 392.032 411.454 397.274 412.126C400.197 412.5 403.173 414.056 404.739 417.634C406.344 421.284 407.162 424.939 406.973 428.837C406.905 430.255 406.337 431.769 405.617 433.014C402.832 437.886 396.939 439.77 392.445 438.717C388.891 437.886 385.798 436.581 383.172 433.892C381.26 431.943 380.787 429.685 381.08 426.309Z" fill="#053B59"/>
</svg>
