<svg xmlns="http://www.w3.org/2000/svg" viewBox="0 0 31.55 37.67"><defs><style>.cls-1{stroke:#000;stroke-miterlimit:10;}.cls-2{fill:#fff;}</style></defs><g id="Layer_2" data-name="Layer 2"><g id="Layer_1-2" data-name="Layer 1"><path class="cls-1" d="M10.66,1.88C13,.32,15.38.43,18.27.58,20.59.69,23,.81,24.7,2.76A7,7,0,0,1,26.22,6.2c.09.69.07,1.32-.68,4.63-.89,3.87-1.16,4.34-1,5.51a8.06,8.06,0,0,0,1.52,3.43C26.93,21,27.3,21,28.7,22.61s2.17,2.53,2.32,3.71c.19,1.5-.54,2.74-1.48,4.36a14.27,14.27,0,0,1-4.19,4.42,13,13,0,0,1-2.2,1.19,11.94,11.94,0,0,1-6.51.71A14,14,0,0,1,9.7,33.67c-1.72-1.41-4-3.29-4.94-6.55-.36-1.29-.2-1.73.26-8.67.41-6,.3-5.75.47-6.65C6,9.14,7,4.33,10.66,1.88Z"/><path class="cls-2" d="M19.18,13.8a1.54,1.54,0,0,1-.26-.91,2,2,0,0,1,1-1.54A1.22,1.22,0,0,1,21,11.24,2.27,2.27,0,0,1,22,12a1,1,0,0,1,.13.46,1.74,1.74,0,0,1-1,1.5,2.52,2.52,0,0,1-1.27.32A.84.84,0,0,1,19.18,13.8Z"/><path d="M16.1,21.33c0,.66-.09,1.33-.09,2a9.17,9.17,0,0,1-.56,2.8c-.06.17-.08.34-.14.51s-.25.57-.35.87a8.81,8.81,0,0,1-.63,1.4A6.33,6.33,0,0,1,13.6,30a7.87,7.87,0,0,1-.75.78,3.64,3.64,0,0,1-1.18.67.51.51,0,0,1-.48,0,.15.15,0,0,0-.21,0,10.64,10.64,0,0,1-2.33,1.41,1.79,1.79,0,0,1-1.4,0c-.36-.13-.71-.3-1.06-.46a1.91,1.91,0,0,1-.34-.24c-.07,0-.12,0-.18,0a2,2,0,0,1-.93.36,5.3,5.3,0,0,0-.55.1c-.45.14-.9.31-1.36.44a5.19,5.19,0,0,1-.85.19.55.55,0,0,1-.58-.73c0-.09.11-.18.16-.27.23-.32.45-.65.7-1a2.92,2.92,0,0,0,.47-1.19,2.39,2.39,0,0,0-.2-1.7c-.16-.32-.35-.61-.52-.91a14.6,14.6,0,0,1-.66-1.31c-.2-.43-.37-.88-.55-1.33s-.3-.83-.46-1.24a.9.9,0,0,0-.08-.23A2.65,2.65,0,0,1,0,21.78a14.87,14.87,0,0,1,.42-1.87,16.3,16.3,0,0,1,.88-2.36,6.83,6.83,0,0,1,.6-1c.09-.16.21-.3.32-.46a1.64,1.64,0,0,1,.5-.48c.18-.11.34-.24.52-.35a1.65,1.65,0,0,1,.41-.18c.13,0,.28-.06.41-.1a1.78,1.78,0,0,1,1.16.05,1.48,1.48,0,0,1,.5.3c.1.1.13.09.2,0,.21-.38.39-.79.64-1.16a4.07,4.07,0,0,1,1.52-1.42,6.94,6.94,0,0,1,1.89-.6h.14a6.79,6.79,0,0,1,2.36.47,4,4,0,0,1,1.17.87,4.19,4.19,0,0,1,.91,1.44c.19.53.45,1,.62,1.56a18.65,18.65,0,0,1,.63,2.3A10.8,10.8,0,0,1,16.1,21.33Zm-4,1.62h0c0-.32,0-.64,0-.95s-.05-.86-.08-1.29-.05-.58-.05-.87a4.66,4.66,0,0,0-.18-1.39c-.11-.32-.26-.62-.37-.94a2,2,0,0,0-1.59-1.2,5.2,5.2,0,0,0-1.42-.15,12.79,12.79,0,0,0-1.64,0c-.17,0-.31.1-.47.13a1.69,1.69,0,0,0-.76.15.34.34,0,0,1-.17,0,1,1,0,0,0-.71.09,1.81,1.81,0,0,0-.9.85l-.13.21A4.2,4.2,0,0,0,3,20c0,.43,0,.86,0,1.3s0,1,0,1.5v.8c0,.8,0,1.59.06,2.38a16.89,16.89,0,0,0,.21,1.88,3.56,3.56,0,0,0,.48,1.37c.25.4.52.78.8,1.15a3.9,3.9,0,0,0,.73.84,1.45,1.45,0,0,1,.17.18,3.54,3.54,0,0,0,1.71,1.16,1.83,1.83,0,0,0,.89.16,3.45,3.45,0,0,0,.83-.25,9,9,0,0,0,1.25-.7,3.66,3.66,0,0,0,1.44-1.67A5.21,5.21,0,0,0,12,28.42a11.09,11.09,0,0,0,.06-1.91,1,1,0,0,1,0-.25,7.9,7.9,0,0,0,.07-1.46C12.12,24.18,12.15,23.56,12.15,23Zm3.67-1.5c0-.47-.06-1-.11-1.54a12.38,12.38,0,0,0-.49-2.33,5.36,5.36,0,0,1-.17-.57,6.12,6.12,0,0,0-.4-1.16c-.14-.3-.27-.62-.4-.92a3.68,3.68,0,0,0-2.6-2.29c-.37-.09-.74-.12-1.11-.18a2,2,0,0,0-.93,0c-.27.09-.53.19-.8.27a2.61,2.61,0,0,0-1.34.78c-.21.22-.4.46-.59.69,0,0,0,.06,0,.09l.06,0,.15-.14a3.16,3.16,0,0,1,1.89-1c.12,0,.23,0,.35,0,.31,0,.63,0,.94.07a4.89,4.89,0,0,1,1.72.63,1.72,1.72,0,0,1,.57.6l.07.08a4.07,4.07,0,0,1,.41.61,11.3,11.3,0,0,1,.42,1.1c.14.39.29.77.42,1.16.23.73.44,1.47.67,2.21l.06.23c0,.22.07.44.09.66a9.61,9.61,0,0,1,.14,1.6.88.88,0,0,0,0,.17A3.33,3.33,0,0,1,15,23.9a8,8,0,0,1-.66,2.45c-.1.2-.13.42-.22.62s-.3.64-.45,1a3.24,3.24,0,0,1-.82,1.24.61.61,0,0,0-.1.18A1.11,1.11,0,0,1,12,30a.41.41,0,0,0-.16.16l-.48.86a1.31,1.31,0,0,0-.08.21,1.76,1.76,0,0,0,.23,0,.33.33,0,0,0,.14,0,3.6,3.6,0,0,0,1.2-.76,6.45,6.45,0,0,0,1.47-2,23.78,23.78,0,0,0,1.13-3.16,7,7,0,0,0,.28-1.93C15.73,22.7,15.79,22.11,15.82,21.45ZM9.49,14.2a2.43,2.43,0,0,1,1.56.55,4.39,4.39,0,0,1,.81,1,0,0,0,0,0,0,0,5.42,5.42,0,0,0,.44,1,11.93,11.93,0,0,1,.72,2c.17.74.4,1.46.61,2.19a.69.69,0,0,1,0,.2c0,.61.09,1.21.09,1.82a6.37,6.37,0,0,1-.21,1.62c-.05.2-.09.39-.14.58a3.41,3.41,0,0,1-.16.57,10.2,10.2,0,0,1-.48.93.69.69,0,0,1-.25.28.26.26,0,0,0-.15.28,5.3,5.3,0,0,1,0,.8,5.86,5.86,0,0,1-.23,1.38s0,0,0,.06a.25.25,0,0,0,.09,0l.59-.73,0-.06c.23-.44.49-.86.68-1.3.28-.64.52-1.31.77-2a1.89,1.89,0,0,0,.09-.34c.09-.57.19-1.15.25-1.73a4,4,0,0,0-.09-1.25c-.1-.54-.21-1.08-.31-1.61,0-.21-.06-.42-.11-.62-.12-.45-.26-.9-.4-1.34-.22-.72-.45-1.42-.68-2.13a3.67,3.67,0,0,0-.83-1.57c-.29-.29-.47-.69-.89-.86a4,4,0,0,0-.7-.3A3.52,3.52,0,0,0,8,14.09a.31.31,0,0,0-.11.09c-.28.31-.57.61-.84.93a1.42,1.42,0,0,0-.3.63.16.16,0,0,0,0,.11l.16,0a.33.33,0,0,0,0-.06,2,2,0,0,1,1.46-1.37C8.8,14.29,9.15,14.26,9.49,14.2ZM1.72,21.89c0-.52.06-1,.12-1.56,0-.36.13-.71.2-1.07a5.81,5.81,0,0,1,.56-1.61,3.27,3.27,0,0,1,.84-1.11,4.29,4.29,0,0,1,1.36-.7.2.2,0,0,1,.13,0,2.1,2.1,0,0,1,.69.2c.06,0,.1.13.17,0s0-.1,0-.15a1.19,1.19,0,0,0-.43-.58,1.29,1.29,0,0,0-.94-.18,2.9,2.9,0,0,0-1.19.46,2.13,2.13,0,0,0-.75.71,1.73,1.73,0,0,1-.22.31,2,2,0,0,0-.38.71.26.26,0,0,1-.07.11A5.81,5.81,0,0,0,1,19.14c-.15.43-.25.87-.37,1.31a8.18,8.18,0,0,0-.31,1.47A2.6,2.6,0,0,0,.4,23c.13.37.29.73.43,1.1s.3.78.43,1.18A11.06,11.06,0,0,0,2.4,27.56c.05.08.09.22.24.21a1.37,1.37,0,0,0,0-.35,2.15,2.15,0,0,0-.13-.32A8.13,8.13,0,0,1,2,25.18,27.88,27.88,0,0,1,1.72,21.89ZM2.05,33v0a5.87,5.87,0,0,0,.6-.16,8.7,8.7,0,0,1,1.4-.43.16.16,0,0,0,.13-.21c0-.06,0-.13-.05-.2-.16-.55-.31-1.1-.5-1.63a1.74,1.74,0,0,0-.4-.83l-.12-.11c0,.05,0,.11,0,.17a4.92,4.92,0,0,1-.28,1.25,1.53,1.53,0,0,1-.19.41c-.2.3-.42.58-.63.88-.1.13-.21.25-.29.38a.28.28,0,0,0,.19.45ZM9.67,14.68c-.18,0-.37.05-.55.09a1.79,1.79,0,0,0-.91.48.73.73,0,0,0-.05.09h.07a4.8,4.8,0,0,1,2,.22,5.49,5.49,0,0,1,1.1.44l.08,0s0-.07,0-.09c-.14-.17-.3-.32-.43-.5a2.28,2.28,0,0,0-1-.69A2,2,0,0,0,9.67,14.68Zm3.23,9.56h0v.17c0,.17,0,.35,0,.52.06-.17.13-.33.18-.5a5.34,5.34,0,0,0,.2-1.59q0-.55-.06-1.11,0-.33-.09-.66a.15.15,0,0,0,0-.09.1.1,0,0,0-.05,0s0,0,0,0a1.49,1.49,0,0,0,0,.21c0,.42,0,.84,0,1.25a2.09,2.09,0,0,1,0,.25Z"/><path class="cls-2" d="M12.15,23c0,.61,0,1.23,0,1.85a7.9,7.9,0,0,1-.07,1.46,1,1,0,0,0,0,.25A11.09,11.09,0,0,1,12,28.42a5.21,5.21,0,0,1-.46,1.64,3.66,3.66,0,0,1-1.44,1.67,9,9,0,0,1-1.25.7,3.45,3.45,0,0,1-.83.25,1.83,1.83,0,0,1-.89-.16,3.54,3.54,0,0,1-1.71-1.16,1.45,1.45,0,0,0-.17-.18,3.9,3.9,0,0,1-.73-.84c-.28-.37-.55-.75-.8-1.15a3.56,3.56,0,0,1-.48-1.37A16.89,16.89,0,0,1,3,25.94c0-.79,0-1.58-.06-2.38v-.8c0-.5,0-1,0-1.5s0-.87,0-1.3a4.2,4.2,0,0,1,.7-2.34l.13-.21a1.81,1.81,0,0,1,.9-.85,1,1,0,0,1,.71-.09.34.34,0,0,0,.17,0,1.69,1.69,0,0,1,.76-.15c.16,0,.3-.11.47-.13a12.79,12.79,0,0,1,1.64,0,5.2,5.2,0,0,1,1.42.15,2,2,0,0,1,1.59,1.2c.11.32.26.62.37.94A4.66,4.66,0,0,1,12,19.84c0,.29,0,.58.05.87s.06.86.08,1.29,0,.63,0,.95Z"/><path class="cls-2" d="M15.82,21.45c0,.66-.09,1.25-.1,1.85a7,7,0,0,1-.28,1.93,23.78,23.78,0,0,1-1.13,3.16,6.45,6.45,0,0,1-1.47,2,3.6,3.6,0,0,1-1.2.76.33.33,0,0,1-.14,0,1.76,1.76,0,0,1-.23,0,1.31,1.31,0,0,1,.08-.21l.48-.86A.41.41,0,0,1,12,30a1.11,1.11,0,0,0,.72-.65.61.61,0,0,1,.1-.18,3.24,3.24,0,0,0,.82-1.24c.15-.31.31-.63.45-1s.12-.42.22-.62A8,8,0,0,0,15,23.9a3.33,3.33,0,0,0-.1-1.63.88.88,0,0,1,0-.17,9.61,9.61,0,0,0-.14-1.6c0-.22-.06-.44-.09-.66l-.06-.23c-.23-.74-.44-1.48-.67-2.21-.13-.39-.28-.77-.42-1.16a11.3,11.3,0,0,0-.42-1.1,4.07,4.07,0,0,0-.41-.61l-.07-.08a1.72,1.72,0,0,0-.57-.6,4.89,4.89,0,0,0-1.72-.63c-.31-.05-.63-.05-.94-.07-.12,0-.23,0-.35,0a3.16,3.16,0,0,0-1.89,1l-.15.14-.06,0s0-.07,0-.09c.19-.23.38-.47.59-.69a2.61,2.61,0,0,1,1.34-.78c.27-.08.53-.18.8-.27a2,2,0,0,1,.93,0c.37.06.74.09,1.11.18a3.68,3.68,0,0,1,2.6,2.29c.13.3.26.62.4.92a6.12,6.12,0,0,1,.4,1.16,5.36,5.36,0,0,0,.17.57,12.38,12.38,0,0,1,.49,2.33C15.76,20.44,15.79,21,15.82,21.45Z"/><path class="cls-2" d="M9.49,14.2c-.34.06-.69.09-1,.18A2,2,0,0,0,7,15.75a.33.33,0,0,1,0,.06l-.16,0a.16.16,0,0,1,0-.11,1.42,1.42,0,0,1,.3-.63c.27-.32.56-.62.84-.93A.31.31,0,0,1,8,14.09a3.52,3.52,0,0,1,2.59-.46,4,4,0,0,1,.7.3c.42.17.6.57.89.86A3.67,3.67,0,0,1,13,16.36c.23.71.46,1.41.68,2.13.14.44.28.89.4,1.34.05.2.07.41.11.62.1.53.21,1.07.31,1.61a4,4,0,0,1,.09,1.25c-.06.58-.16,1.16-.25,1.73a1.89,1.89,0,0,1-.09.34c-.25.65-.49,1.32-.77,2-.19.44-.45.86-.68,1.3l0,.06-.59.73a.25.25,0,0,1-.09,0s0,0,0-.06A5.86,5.86,0,0,0,12.34,28a5.3,5.3,0,0,0,0-.8.26.26,0,0,1,.15-.28.69.69,0,0,0,.25-.28,10.2,10.2,0,0,0,.48-.93,3.41,3.41,0,0,0,.16-.57c.05-.19.09-.38.14-.58A6.37,6.37,0,0,0,13.76,23c0-.61,0-1.21-.09-1.82a.69.69,0,0,0,0-.2c-.21-.73-.44-1.45-.61-2.19a11.93,11.93,0,0,0-.72-2,5.42,5.42,0,0,1-.44-1,0,0,0,0,1,0,0,4.39,4.39,0,0,0-.81-1A2.43,2.43,0,0,0,9.49,14.2Z"/><path class="cls-2" d="M1.72,21.89A27.88,27.88,0,0,0,2,25.18,8.13,8.13,0,0,0,2.5,27.1a2.15,2.15,0,0,1,.13.32,1.37,1.37,0,0,1,0,.35c-.15,0-.19-.13-.24-.21a11.06,11.06,0,0,1-1.14-2.25c-.13-.4-.28-.79-.43-1.18S.53,23.4.4,23a2.6,2.6,0,0,1-.09-1.11,8.18,8.18,0,0,1,.31-1.47c.12-.44.22-.88.37-1.31a5.81,5.81,0,0,1,.79-1.67.26.26,0,0,0,.07-.11,2,2,0,0,1,.38-.71,1.73,1.73,0,0,0,.22-.31,2.13,2.13,0,0,1,.75-.71,2.9,2.9,0,0,1,1.19-.46,1.29,1.29,0,0,1,.94.18,1.19,1.19,0,0,1,.43.58c0,.05,0,.13,0,.15s-.11,0-.17,0a2.1,2.1,0,0,0-.69-.2.2.2,0,0,0-.13,0,4.29,4.29,0,0,0-1.36.7,3.27,3.27,0,0,0-.84,1.11A5.81,5.81,0,0,0,2,19.26c-.07.36-.16.71-.2,1.07C1.78,20.85,1.76,21.37,1.72,21.89Z"/><path class="cls-2" d="M2.05,33H1.88a.28.28,0,0,1-.19-.45c.08-.13.19-.25.29-.38.21-.3.43-.58.63-.88a1.53,1.53,0,0,0,.19-.41,4.92,4.92,0,0,0,.28-1.25c0-.06,0-.12,0-.17l.12.11a1.74,1.74,0,0,1,.4.83c.19.53.34,1.08.5,1.63,0,.07,0,.14.05.2a.16.16,0,0,1-.13.21,8.7,8.7,0,0,0-1.4.43,5.87,5.87,0,0,1-.6.16Z"/><path class="cls-2" d="M9.67,14.68a2,2,0,0,1,.28.05,2.28,2.28,0,0,1,1,.69c.13.18.29.33.43.5,0,0,0,.06,0,.09l-.08,0a5.49,5.49,0,0,0-1.1-.44,4.8,4.8,0,0,0-2-.22H8.16a.73.73,0,0,1,.05-.09,1.79,1.79,0,0,1,.91-.48C9.3,14.73,9.49,14.71,9.67,14.68Z"/><path class="cls-2" d="M12.9,24.24l.15-1.55a2.09,2.09,0,0,0,0-.25c0-.41,0-.83,0-1.25a1.49,1.49,0,0,1,0-.21s0,0,0,0a.1.1,0,0,1,.05,0,.15.15,0,0,1,0,.09q.06.33.09.66,0,.56.06,1.11a5.34,5.34,0,0,1-.2,1.59c0,.17-.12.33-.18.5,0-.17,0-.35,0-.52v-.17Z"/><path d="M5.81,27.66a.53.53,0,0,1-.7,0,1.06,1.06,0,0,1,.48-.38.54.54,0,0,1,.65.09c.14.13.25.28.38.42s.25.37.45.49c0,0,0,0,0,0a.36.36,0,0,0,.61,0A1.4,1.4,0,0,0,7.88,28a.49.49,0,0,0,0-.21c0-.19,0-.37,0-.56a1.54,1.54,0,0,0,0-.3,9,9,0,0,0-.25-.89q-.14-.37-.24-.75a7.89,7.89,0,0,1-.28-1.28,1.57,1.57,0,0,0,0-.37c0-.23-.08-.46-.12-.7s0-.51-.07-.76,0-.38,0-.57a.75.75,0,0,0,0-.16.41.41,0,0,1,.62.16.59.59,0,0,1,0,.23.59.59,0,0,0,0,.26,1.79,1.79,0,0,1,0,.23,5.69,5.69,0,0,0,.09.54s0,0,0,0c0,.2,0,.41.09.61a5.34,5.34,0,0,1,.13.8A3.23,3.23,0,0,0,8,25a1.78,1.78,0,0,1,.1.5v0l.21.75a4.41,4.41,0,0,1,.19,1.35,2.35,2.35,0,0,1-.05.37.24.24,0,0,1-.05.1l0,.07a1.06,1.06,0,0,1-.78.48,1.47,1.47,0,0,1-.69-.05.59.59,0,0,1-.33-.2c-.2-.2-.38-.41-.57-.62Z"/><path d="M10,23.23a1.59,1.59,0,0,1-.94-.3,1.21,1.21,0,0,1-.4-1.11,1.36,1.36,0,0,1,.26-.45,1.21,1.21,0,0,1,.24-.21,2.26,2.26,0,0,1,.76-.29.81.81,0,0,1,.22,0l.29,0a.83.83,0,0,1,.42.18,1.08,1.08,0,0,1,.43.81,1.15,1.15,0,0,1-.24.86,1.24,1.24,0,0,1-1,.49Zm.7-1.76c-.05-.07-.08-.14-.13-.2a.43.43,0,0,0-.2-.15l-.22-.05a.47.47,0,0,0-.17,0l-.29.11a1,1,0,0,0-.63.76.59.59,0,0,0,0,.13c0,.14,0,.28.14.4a1.17,1.17,0,0,1,.05.11.24.24,0,0,0,0,.1,1,1,0,0,0,.44.27.54.54,0,0,0,.37,0l-.06,0-.25-.22a.27.27,0,0,1-.09-.21.88.88,0,0,1,.72-1Z"/><path class="cls-2" d="M21.82,31.5s0-.08,0-.13a.16.16,0,0,1,.18-.19.61.61,0,0,1,.47.21c.2.25.41.48.62.72a.2.2,0,0,0,.08,0s0,0,0-.08-.07-.35-.1-.52c0,0,0,0,0,0-.09-.39.09-.51.43-.46l.1,0a.44.44,0,0,0-.06-.1c-.09-.11-.19-.2-.27-.31a2.24,2.24,0,0,1-.22-.4.28.28,0,0,1,.19-.42.27.27,0,0,1,.37.15,4.09,4.09,0,0,0,.74,1c.16.21.34.4.51.6s.1.19,0,.31a.55.55,0,0,1-.6.16l-.52-.23s-.06,0-.06.05c0,.27,0,.54.05.81s-.09.25-.2.33a.26.26,0,0,1-.3,0,1.15,1.15,0,0,1-.23-.21l-1.07-1.21Z"/><path class="cls-2" d="M20.71,31.9l.2-.12a.43.43,0,0,1,.56,0,.24.24,0,0,0,.08.06,1.89,1.89,0,0,1,.74.6,1.14,1.14,0,0,1,.32.91,1.56,1.56,0,0,1-.51.94.1.1,0,0,1-.07,0,2.27,2.27,0,0,1-.45,0,.76.76,0,0,1-.46-.2,3.08,3.08,0,0,1-.84-1.29,1.26,1.26,0,0,1-.06-.38.66.66,0,0,1,.25-.44,1.56,1.56,0,0,1,.25-.17ZM21,33.35a1.9,1.9,0,0,0,.53.59l.18.08s.08,0,.09,0,.19-.33.09-.53l-.43-.78a1.18,1.18,0,0,0-.45-.41.23.23,0,0,0-.26,0,.2.2,0,0,0-.09.24A1.58,1.58,0,0,0,21,33.35Z"/><path class="cls-2" d="M26.91,27.37c.17.22.1.41-.14.45a1.32,1.32,0,0,1-.28,0s-.07,0-.1,0a4.43,4.43,0,0,1-1.15,0l-.08,0,0,.06.77.72c.14.13.16.22.07.35s-.26.2-.41,0-.22-.24-.33-.35L24.52,28l-.09-.09a.33.33,0,0,1,.15-.5,1.25,1.25,0,0,1,.51,0l.69.07.06,0a.33.33,0,0,0,0-.06l-.68-.51a1.54,1.54,0,0,1-.19-.17c-.06-.05-.05-.11,0-.18a.32.32,0,0,1,.35-.15.75.75,0,0,1,.38.15l.54.43.47.3Z"/><path class="cls-2" d="M26.48,26.56a2.06,2.06,0,0,1-.29-1.33.24.24,0,0,1,0-.08.3.3,0,0,1,.25-.17c.11,0,.12.1.14.18a.59.59,0,0,1,0,.23,1,1,0,0,0,.14.62c.05.08.09.18.14.26s.06.17.16.15.07-.1.1-.17.08-.23.13-.35a1.13,1.13,0,0,1,.35-.43.57.57,0,0,1,.88.33,2.67,2.67,0,0,1,.1.63,4.65,4.65,0,0,0,.15.92c.06.25,0,.31-.21.36s-.33,0-.36-.26-.09-.67-.13-1a1.4,1.4,0,0,0-.15-.53l-.06-.06s-.06,0-.07.07-.05.15-.08.22l-.15.4c0,.11-.07.21-.19.24a.82.82,0,0,1-.46.1A.84.84,0,0,1,26.48,26.56Z"/><path class="cls-2" d="M19.45,30.2a1.25,1.25,0,0,0,.16.24,1.54,1.54,0,0,1,.3.69.67.67,0,0,1-.55.76,1.05,1.05,0,0,1-1-.3c-.24-.27-.49-.53-.73-.79l0-.06c-.08-.14-.09-.22,0-.3a.35.35,0,0,1,.38-.13.56.56,0,0,1,.23.2c.18.22.37.45.56.66a.76.76,0,0,0,.5.29c.12,0,.16,0,.13-.13a1.27,1.27,0,0,0-.12-.36,3.47,3.47,0,0,0-.69-.92s-.06-.1,0-.13a1,1,0,0,1,.2-.25c.14-.1.22-.09.33,0s.25.33.37.49Z"/><path class="cls-2" d="M22.82,27.37a.93.93,0,0,1-.1.05c-.19.07-.18.07-.26.23a.64.64,0,0,1-1,.22,3.38,3.38,0,0,1-.5-.5,1.17,1.17,0,0,1-.22-.51.25.25,0,0,1,0-.15,1.35,1.35,0,0,1,.19-.38.4.4,0,0,1,.43-.16.89.89,0,0,1,.37.17,4.07,4.07,0,0,0,1.15.65.17.17,0,0,1,.05.29Zm-1.69-.73s0,0,0,0a1.59,1.59,0,0,0,.1.39,1.31,1.31,0,0,0,.59.55c.11.06.16,0,.18-.08a1.36,1.36,0,0,0,0-.17c0-.14,0-.13-.06-.2l-.64-.43-.15-.09S21.15,26.64,21.13,26.64Z"/><path class="cls-2" d="M24,28.48l.11,0c.16-.05.25,0,.21.19a.84.84,0,0,1-.19.39c-.07.09-.06.12,0,.19l.17.11c.13.1.2.09.29,0s0,0,0-.06a.14.14,0,0,1,.19-.08.18.18,0,0,1,.11.21,1.16,1.16,0,0,1-.14.24c-.07.08-.05.13,0,.19s.23.18.34.27a.08.08,0,0,0,.14,0l.24-.4a2.18,2.18,0,0,1,.21-.22.33.33,0,0,1,.17,0c.08,0,.12.06.11.14a.64.64,0,0,1,0,.07,5.94,5.94,0,0,1-.33.67,1.23,1.23,0,0,0-.11.23.34.34,0,0,1-.59.11c-.19-.18-.4-.34-.6-.51s-.41-.34-.6-.52a.46.46,0,0,0-.28-.11c-.14,0-.17-.08-.11-.21l0-.07c.17-.21.34-.41.5-.62Z"/><path class="cls-2" d="M17.89,31.82l.32.44a.64.64,0,0,1-.22.91.71.71,0,0,1-.74-.08A.14.14,0,0,1,17.2,33a.44.44,0,0,1,.27-.39.13.13,0,0,1,.09,0,1.14,1.14,0,0,1,.11.11s.08.09.1.09.07-.12,0-.18a1.92,1.92,0,0,0-.27-.46,6.68,6.68,0,0,0-1-1s-.05-.07,0-.1a.28.28,0,0,1,.46-.2A4.05,4.05,0,0,1,17.89,31.82Z"/><path class="cls-2" d="M19.36,29.41c-.1-.13-.12-.22-.05-.31a.34.34,0,0,1,.31-.15.18.18,0,0,1,.09,0l.15.14.63.74c.25.28.24.24.47,0a.55.55,0,0,1,.35-.19.11.11,0,0,1,.12.13.25.25,0,0,1-.11.22,1.22,1.22,0,0,0-.37.41c0,.06-.11.09-.18.12a.68.68,0,0,1-.15,0,.33.33,0,0,1-.31-.13c-.2-.24-.42-.47-.63-.71S19.46,29.52,19.36,29.41Z"/><path class="cls-2" d="M20.18,27.94a.23.23,0,0,1,.29,0,2.67,2.67,0,0,1,.32.24,1.86,1.86,0,0,0,.47.32,1.35,1.35,0,0,1,.26.15.27.27,0,0,1,0,.39.21.21,0,0,1-.32.09.77.77,0,0,1-.18-.1c-.2-.15-.4-.29-.59-.45a2.91,2.91,0,0,1-.31-.3C20,28.13,20,28,20.18,27.94Z"/><path class="cls-2" d="M20.46,8.64a2.3,2.3,0,0,1-1.1-.31,1.77,1.77,0,0,1-.83-1.68,1.13,1.13,0,0,1,.68-1,3.29,3.29,0,0,1,1.47-.33,1.37,1.37,0,0,1,.55.15A1.55,1.55,0,0,1,22,7.15a2.21,2.21,0,0,1-.59,1.19A1.18,1.18,0,0,1,20.46,8.64Z"/><path class="cls-2" d="M14.23,9.82a2.3,2.3,0,0,1-1.1-.31,1.77,1.77,0,0,1-.83-1.68,1.13,1.13,0,0,1,.68-1,3.28,3.28,0,0,1,1.46-.33,1.37,1.37,0,0,1,.56.15,1.55,1.55,0,0,1,.81,1.65,2.21,2.21,0,0,1-.59,1.19A1.18,1.18,0,0,1,14.23,9.82Z"/></g></g></svg>