<svg width="272" height="216" viewBox="0 0 272 216" fill="none" xmlns="http://www.w3.org/2000/svg">
<path d="M186.052 204.893C162.841 211.048 132.287 218.541 102.656 213.489C52.5359 204.932 21.9724 179.746 14.9134 142.543C10.9411 121.833 17.7333 96.8876 46.6224 74.8C76.0718 52.273 107.553 34.9896 143.816 23.632C157.013 19.5005 172.379 18.441 185.587 19.1766C237.317 22.0477 269.563 55.3341 271.242 88.8038C272.58 115.228 268.366 140.128 250.384 166.356C237.284 185.435 217.766 195.915 186.052 204.893Z" fill="#DA9255"/>
<path d="M177.05 190.482C153.839 196.637 123.285 204.13 93.6541 199.078C43.5339 190.521 12.9704 165.335 5.91141 128.132C1.93919 107.423 8.73132 82.477 37.6205 60.3894C67.0698 37.8624 98.5513 20.5789 134.814 9.2214C148.011 5.08981 163.377 4.03031 176.585 4.76598C228.315 7.6371 260.561 40.9234 262.24 74.3932C263.578 100.817 259.364 125.717 241.382 151.945C228.282 171.025 208.764 181.504 177.05 190.482Z" stroke="#F4F1EB" stroke-width="8" stroke-miterlimit="10"/>
</svg>
