<svg xmlns="http://www.w3.org/2000/svg" viewBox="0 0 255.22 304.41"><defs><style>.cls-1{fill:#16559d;}.cls-2{fill:#da9255;}.cls-3{fill:#eabbae;}.cls-4{fill:#c06d5b;}.cls-5{fill:#b38c6d;}.cls-6{fill:#f1dbd4;}</style></defs><g id="Layer_2" data-name="Layer 2"><g id="Layer_1-2" data-name="Layer 1"><path class="cls-1" d="M86,11.46c19.46-13,39.14-12,63.19-10.82,19.22.94,39.35,1.93,53.34,18.14,10,11.6,12.2,25.58,12.61,28.53.8,5.73.62,10.95-5.65,38.47-7.32,32.13-9.57,36-8.11,45.71,1.91,12.73,8.14,21.93,12.61,28.53,7.1,10.48,10.14,10,21.74,23.55,12,14,18,21,19.28,30.8,1.6,12.44-4.44,22.76-12.31,36.2a116.38,116.38,0,0,1-34.78,36.64,107.12,107.12,0,0,1-18.26,10c-24.25,10.07-45.64,7.12-54.06,5.85-28.42-4.3-47-19-57.54-27.65C63.71,263.7,44.53,248.06,37,221c-3-10.69-1.69-14.38,2.17-72,3.35-50,2.41-47.76,3.9-55.22C47.47,71.74,55.44,31.79,86,11.46Z"/><path class="cls-2" d="M156.7,110.44a12.46,12.46,0,0,1-2.18-7.57,16.44,16.44,0,0,1,8.25-12.76c2.69-1.63,6.06-2.46,9.33-1a18.55,18.55,0,0,1,8,6.37,7.56,7.56,0,0,1,1.11,3.78c.27,5.19-3.71,10.31-8.1,12.48a20.92,20.92,0,0,1-10.49,2.62C159.91,114.25,158.28,113,156.7,110.44Z"/><path class="cls-3" d="M178.6,257.33a4.94,4.94,0,0,1-.33-1.08,1.33,1.33,0,0,1,1.51-1.58,5.06,5.06,0,0,1,3.92,1.8c1.63,2,3.39,4,5.11,6,.14.16.42.21.63.31a1.9,1.9,0,0,0,.08-.61c-.25-1.47-.53-2.92-.81-4.38,0-.07-.06-.13-.07-.2-.76-3.24.77-4.29,3.56-3.87.27,0,.54.11.8.17a4.35,4.35,0,0,0-.48-.84,33.34,33.34,0,0,1-2.22-2.56,20,20,0,0,1-1.85-3.33c-.74-1.67-.13-2.86,1.64-3.43,1.38-.45,2.45-.14,3,1.2,1.33,3.26,4.06,5.41,6.15,8.06,1.36,1.72,2.89,3.3,4.27,5,.91,1.13.84,1.54-.17,2.55a4.51,4.51,0,0,1-5,1.3c-1.45-.53-2.85-1.22-4.28-1.83-.34-.15-.52-.08-.5.34.13,2.25.13,4.53.41,6.76.19,1.48-.78,2.06-1.65,2.7a2.06,2.06,0,0,1-2.55-.33,12.61,12.61,0,0,1-1.87-1.71c-3-3.32-5.93-6.67-8.89-10Z"/><path class="cls-3" d="M169.4,260.67c.55-.32,1.1-.64,1.64-1a3.52,3.52,0,0,1,4.63.22c.23.17.4.45.64.54a14.94,14.94,0,0,1,6.22,5c1.73,2.12,3,4.4,2.63,7.54s-2.11,5.59-4.26,7.78a1,1,0,0,1-.53.33,22,22,0,0,1-3.78.29,6.36,6.36,0,0,1-3.81-1.69,25.45,25.45,0,0,1-7-10.75,8.38,8.38,0,0,1-.47-3.14,5.16,5.16,0,0,1,2-3.59,20.51,20.51,0,0,1,2.07-1.49Zm2.33,12.06a14,14,0,0,0,4.39,4.86,6.47,6.47,0,0,0,1.5.72c.21.07.68,0,.73-.16.5-1.43,1.59-2.79.72-4.42q-1.75-3.27-3.57-6.49a8.82,8.82,0,0,0-3.72-3.38,1.92,1.92,0,0,0-2.15-.06,1.67,1.67,0,0,0-.74,2C169.34,268.41,170,270.93,171.73,272.73Z"/><path class="cls-3" d="M220.87,223.05c1.35,1.83.78,3.41-1.19,3.8a13.54,13.54,0,0,1-2.3.13c-.28,0-.57-.15-.84-.1-3.18.6-6.35.21-9.53,0a1.88,1.88,0,0,0-.69.21,3.81,3.81,0,0,0,.37.5l6.34,6c1.15,1.08,1.31,1.88.63,3-1,1.57-2.16,1.62-3.4.22-.89-1-1.83-2-2.81-2.89-2.12-2-4.29-3.93-6.43-5.89a6.66,6.66,0,0,1-.72-.78,2.71,2.71,0,0,1,1.23-4.13,9.57,9.57,0,0,1,4.2-.31c1.88.32,3.8.43,5.71.6.17,0,.36-.12.55-.18-.1-.19-.15-.43-.3-.54-1.86-1.42-3.74-2.81-5.6-4.23a19.19,19.19,0,0,1-1.6-1.39c-.49-.47-.4-.94-.07-1.52a2.63,2.63,0,0,1,2.92-1.24,6.21,6.21,0,0,1,3.12,1.25c1.49,1.2,3,2.4,4.53,3.52,1.26.91,2.62,1.68,3.9,2.55C219.65,222,220.35,222.64,220.87,223.05Z"/><path class="cls-3" d="M217.25,216.38c-1.82-3.47-3.07-7.07-2.38-11.08a3.66,3.66,0,0,1,.17-.65,2.6,2.6,0,0,1,2.09-1.42c.86.06,1,.87,1.15,1.46a5.65,5.65,0,0,1,.08,2,8.34,8.34,0,0,0,1.14,5.12c.41.71.74,1.46,1.18,2.15.34.53.5,1.46,1.3,1.29.37-.08.62-.9.83-1.41.41-1,.68-2,1.14-2.9a8.69,8.69,0,0,1,2.92-3.58,4.71,4.71,0,0,1,7.28,2.69,25.42,25.42,0,0,1,.84,5.25,38.85,38.85,0,0,0,1.25,7.67c.46,2,.13,2.58-1.77,3s-2.74-.15-3-2.13c-.4-2.79-.7-5.59-1.08-8.39a10.57,10.57,0,0,0-1.24-4.46c-.12-.18-.38-.47-.44-.44a1.16,1.16,0,0,0-.6.53c-.27.6-.43,1.25-.66,1.88-.41,1.1-.85,2.19-1.24,3.3-.31.86-.65,1.7-1.6,2-1.24.41-2.4,1.14-3.82.78A7.54,7.54,0,0,1,217.25,216.38Z"/><path class="cls-3" d="M158.9,246.59a14.53,14.53,0,0,0,1.31,1.93c1.51,1.64,2,3.7,2.51,5.76.84,3.17-2.13,6-4.54,6.32-3.11.43-5.92-.1-8.16-2.51-2-2.18-4.06-4.34-6.08-6.52a2.3,2.3,0,0,1-.36-.52c-.71-1.19-.74-1.79-.14-2.51a2.88,2.88,0,0,1,3.2-1,4.28,4.28,0,0,1,1.91,1.61c1.51,1.87,3,3.72,4.63,5.53a6.36,6.36,0,0,0,4.13,2.39c1,.12,1.33-.08,1.11-1.14a9.42,9.42,0,0,0-1-3c-1.66-2.7-3.21-5.51-5.74-7.58-.25-.21-.46-.88-.31-1.1a7.58,7.58,0,0,1,1.71-2.06c1.15-.88,1.8-.78,2.72.36,1.06,1.32,2,2.73,3,4.1Z"/><path class="cls-3" d="M186.89,223.05a4.35,4.35,0,0,1-.82.46c-1.58.55-1.53.57-2.2,1.92-1.56,3.17-4.9,4.55-8.49,1.84a31.38,31.38,0,0,1-4.19-4.2,9.64,9.64,0,0,1-1.78-4.27,2.05,2.05,0,0,1,.18-1.21,16.27,16.27,0,0,1,1.61-3.17,3.42,3.42,0,0,1,3.58-1.33,8.22,8.22,0,0,1,3.05,1.39,33.32,33.32,0,0,0,9.53,5.44,1.47,1.47,0,0,1,.47,2.43A11.5,11.5,0,0,1,186.89,223.05Zm-14-6c0,.06-.08.13-.07.18a14.31,14.31,0,0,0,.8,3.25,10.73,10.73,0,0,0,4.9,4.56c.91.47,1.29.28,1.52-.69.11-.47.18-1,.33-1.43.36-1.1.36-1.08-.52-1.66-1.77-1.17-3.53-2.36-5.3-3.54a12.36,12.36,0,0,0-1.27-.74C173.19,216.89,173,217,172.89,217Z"/><path class="cls-3" d="M196.37,232.32c.22-.09.54-.25.87-.36,1.34-.43,2.1.24,1.8,1.61a7.7,7.7,0,0,1-1.58,3.2c-.62.77-.56,1,.17,1.57.44.36.93.64,1.4,1,1.09.76,1.63.7,2.42-.33a2.75,2.75,0,0,0,.28-.57,1.14,1.14,0,0,1,1.59-.62,1.41,1.41,0,0,1,.89,1.72,7.32,7.32,0,0,1-1.13,2c-.54.67-.43,1.07.2,1.55,1,.73,1.87,1.52,2.81,2.28.49.39.86.27,1.18-.29.63-1.1,1.26-2.21,2-3.25A9.15,9.15,0,0,1,211,240a2.31,2.31,0,0,1,1.36-.35c.68,0,1,.45.91,1.15a1.82,1.82,0,0,1-.15.61c-1,1.78-1.52,3.8-2.73,5.49a9.67,9.67,0,0,0-.88,1.9c-1,2.27-3.12,2.65-4.93,1-1.61-1.48-3.36-2.8-5-4.22s-3.34-2.84-4.95-4.33a3.61,3.61,0,0,0-2.28-.94c-1.2-.12-1.43-.64-1-1.74a2.78,2.78,0,0,1,.29-.57q2.06-2.56,4.13-5.12A5.55,5.55,0,0,1,196.37,232.32Z"/><path class="cls-3" d="M146,260l2.69,3.67c2.22,3,.14,6.09-1.86,7.54-1.47,1.07-4.8.57-6.16-.71a1.51,1.51,0,0,1-.44-.68c-.22-1,1.24-3.08,2.26-3.27a1.12,1.12,0,0,1,.79.19,12.57,12.57,0,0,1,.9.89c.28.26.7.78.85.72.66-.29.58-1,.32-1.47a19.84,19.84,0,0,0-2.24-3.82,56.23,56.23,0,0,0-8.21-8.26,1.14,1.14,0,0,1-.39-.88,2.38,2.38,0,0,1,3.83-1.66C141.12,254.75,144.18,257,146,260Z"/><path class="cls-3" d="M158.19,240c-.84-1.07-1-1.85-.46-2.61a3.09,3.09,0,0,1,2.58-1.23,1.31,1.31,0,0,1,.73.37,10.52,10.52,0,0,1,1.25,1.15c1.76,2,3.48,4.09,5.25,6.11,2.1,2.38,2,2,3.89.14a4.3,4.3,0,0,1,2.91-1.57.94.94,0,0,1,1,1,2.08,2.08,0,0,1-.92,1.8,9.78,9.78,0,0,0-3.07,3.44c-.24.48-.94.77-1.49,1a4.57,4.57,0,0,1-1.25.13,2.7,2.7,0,0,1-2.6-1.05c-1.68-2-3.45-3.93-5.2-5.88C160,241.87,159,240.9,158.19,240Z"/><path class="cls-3" d="M165,227.84a1.83,1.83,0,0,1,2.41-.19,22.86,22.86,0,0,1,2.73,2,14.91,14.91,0,0,0,3.82,2.62,14.08,14.08,0,0,1,2.19,1.28c1,.76,1.06,2,.29,3.24a1.91,1.91,0,0,1-2.73.72,7.88,7.88,0,0,1-1.47-.84c-1.65-1.22-3.3-2.43-4.89-3.72a25.29,25.29,0,0,1-2.59-2.48C163.68,229.38,163.79,228.67,165,227.84Z"/><path class="cls-4" d="M167.33,67.56c-2.68-.2-6.2-.54-9.18-2.6-5.05-3.47-7.43-8.39-6.9-13.93A9.54,9.54,0,0,1,157,43a27.46,27.46,0,0,1,12.12-2.74,11,11,0,0,1,4.61,1.28,12.89,12.89,0,0,1,6.72,13.66,18.66,18.66,0,0,1-4.9,9.92C173.47,67.17,171,67.75,167.33,67.56Z"/><path class="cls-3" d="M115.6,77.36c-2.68-.2-6.2-.54-9.18-2.6-5-3.47-7.43-8.4-6.9-13.93a9.57,9.57,0,0,1,5.72-8A27.5,27.5,0,0,1,117.37,50a11,11,0,0,1,4.6,1.28A12.89,12.89,0,0,1,128.7,65a18.61,18.61,0,0,1-4.91,9.91C121.74,77,119.3,77.55,115.6,77.36Z"/><path class="cls-5" d="M133.7,169.41c-.28,5.52-.78,11-.78,16.55,0,8.1-2.23,15.68-4.69,23.25-.45,1.37-.64,2.84-1.13,4.19-.9,2.45-2.09,4.8-2.89,7.28a76.9,76.9,0,0,1-5.2,11.64,55.07,55.07,0,0,1-6.08,8.84,78,78,0,0,1-6.26,6.48c-2.77,2.72-6.37,4-9.81,5.56a3.93,3.93,0,0,1-3.93-.12,1.25,1.25,0,0,0-1.78.2c-5.83,4.91-12.49,8.47-19.34,11.7a14.93,14.93,0,0,1-11.62.35c-3-1.07-5.88-2.46-8.77-3.82a19.43,19.43,0,0,1-2.87-2c-.57-.41-1-.31-1.51.14-2.22,1.84-4.91,2.51-7.69,3a33.14,33.14,0,0,0-4.55.84c-3.79,1.16-7.51,2.55-11.31,3.69a50.23,50.23,0,0,1-7.08,1.56,4.57,4.57,0,0,1-4.75-6.06A10.89,10.89,0,0,1,13,260.47c1.89-2.7,3.71-5.45,5.75-8,2.33-2.93,3.06-6.44,3.93-9.9A20,20,0,0,0,21,228.43c-1.28-2.63-2.85-5.05-4.31-7.56-2-3.5-3.82-7.16-5.5-10.84s-3.05-7.32-4.49-11c-1.33-3.43-2.56-6.89-3.83-10.34a12.09,12.09,0,0,0-.67-1.92c-2.49-4.27-2.37-8.87-1.93-13.57.5-5.35,2.32-10.39,3.52-15.57,1.57-6.84,4.72-13.08,7.24-19.57,1.19-3.06,3.43-5.3,5-8,.77-1.34,1.8-2.52,2.65-3.82a13.18,13.18,0,0,1,4.18-4c1.48-.92,2.84-2,4.33-2.92a17.46,17.46,0,0,1,3.41-1.54c1.09-.37,2.29-.44,3.4-.77a14,14,0,0,1,9.6.4,12.36,12.36,0,0,1,4.2,2.48c.83.8,1.09.74,1.61-.22,1.76-3.23,3.3-6.6,5.34-9.64,3.27-4.88,7.3-9.16,12.6-11.82a55.81,55.81,0,0,1,15.75-5,4.5,4.5,0,0,1,1.16,0c6.67.53,13.32,1.12,19.54,4a32,32,0,0,1,9.75,7.21,33.92,33.92,0,0,1,7.5,12c1.6,4.36,3.79,8.51,5.21,12.92a160.83,160.83,0,0,1,5.19,19.06C132.73,155.25,134,162.26,133.7,169.41Zm-32.87,13.44h0c0-2.62.08-5.24,0-7.85-.13-3.58-.39-7.16-.61-10.74-.15-2.41-.45-4.82-.47-7.23a36.69,36.69,0,0,0-1.46-11.48c-.88-2.65-2.16-5.17-3-7.81-2.15-6.39-7.56-8.52-13.25-10a46,46,0,0,0-11.8-1.29c-4.55,0-9.09-.19-13.62.39-1.37.17-2.56.8-3.84,1-2.12.38-4.38-.1-6.34,1.27-.3.21-.94,0-1.4-.11a8.43,8.43,0,0,0-5.88.81,14.9,14.9,0,0,0-7.5,7,18.33,18.33,0,0,1-1.07,1.73,35.23,35.23,0,0,0-5.82,19.47c.06,3.58,0,7.16,0,10.75,0,4.16.06,8.33.08,12.5,0,2.22,0,4.44,0,6.66.11,6.59.06,13.18.43,19.76.3,5.21,1,10.41,1.78,15.57a29,29,0,0,0,4,11.42c2.1,3.26,4.3,6.43,6.6,9.54a36.36,36.36,0,0,0,6.06,7,9.8,9.8,0,0,1,1.44,1.44,29,29,0,0,0,14.2,9.64c2.38.75,4.8,1.83,7.36,1.33a29.27,29.27,0,0,0,6.93-2,85,85,0,0,0,10.37-5.83c5.22-3.49,9.53-7.87,12-13.86,1.8-4.41,3.44-8.78,3.83-13.63.42-5.3,1-10.56.47-15.88a9.2,9.2,0,0,1,.07-2,67.48,67.48,0,0,0,.62-12.15C100.62,193.13,100.83,188,100.83,182.85Zm30.55-12.44c-.3-3.91-.54-8.36-1-12.79a95.61,95.61,0,0,0-4-19.3,47.45,47.45,0,0,1-1.42-4.73,46.41,46.41,0,0,0-3.29-9.61c-1.15-2.56-2.23-5.15-3.36-7.72-4.27-9.66-11-16.53-21.6-19-3-.7-6.11-.93-9.15-1.44a16.1,16.1,0,0,0-7.77.4c-2.21.73-4.37,1.61-6.61,2.21A22.56,22.56,0,0,0,62,104.93c-1.7,1.85-3.27,3.82-4.88,5.76-.12.15,0,.48-.05.72a2.17,2.17,0,0,0,.51-.24c.44-.38.88-.77,1.28-1.19a26.49,26.49,0,0,1,15.71-8.1,16.48,16.48,0,0,1,2.87-.32,74.92,74.92,0,0,1,7.79.52,40.92,40.92,0,0,1,14.34,5.25,13.48,13.48,0,0,1,4.68,5c.16.24.41.42.57.66a34.57,34.57,0,0,1,3.43,5c1.37,3,2.38,6.11,3.52,9.19s2.39,6.35,3.41,9.58c1.93,6.08,3.73,12.21,5.57,18.32a15,15,0,0,1,.51,2c.28,1.81.61,3.63.74,5.47.32,4.43,1.64,8.77,1.21,13.27a3.61,3.61,0,0,0,.18,1.42,29,29,0,0,1,.84,13.5c-1,7-2.34,13.94-5.52,20.37-.8,1.63-1.11,3.5-1.83,5.17-1.15,2.67-2.46,5.26-3.7,7.89-1.78,3.75-3.54,7.5-6.8,10.28a4,4,0,0,0-.89,1.45,9.14,9.14,0,0,1-5.94,5.4,3,3,0,0,0-1.34,1.38c-1.37,2.34-2.68,4.71-4,7.09a14.35,14.35,0,0,0-.71,1.78c.65,0,1.32.06,2,0a3.75,3.75,0,0,0,1.11-.34,31.07,31.07,0,0,0,10-6.34,53.82,53.82,0,0,0,12.16-16.84,193.39,193.39,0,0,0,9.42-26.23,60.74,60.74,0,0,0,2.32-16C130.57,180.83,131.06,175.9,131.38,170.41ZM78.79,110.24c5-.36,9.06,2,12.95,4.57,3,2,4.49,5.27,6.68,8a.67.67,0,0,1,.1.28c.57,3.1,2.49,5.63,3.69,8.47,2.28,5.43,4.64,10.77,6,16.58,1.39,6.13,3.36,12.12,5.06,18.17a8.36,8.36,0,0,1,.29,1.72c.27,5,.72,10,.71,15a51.61,51.61,0,0,1-1.74,13.52c-.43,1.59-.75,3.2-1.15,4.8a28,28,0,0,1-1.3,4.75c-1.19,2.63-2.59,5.17-4,7.68a5.77,5.77,0,0,1-2.08,2.31,2.17,2.17,0,0,0-1.25,2.32,46.23,46.23,0,0,1-.25,6.67c-.6,3.82-.4,7.77-1.9,11.44-.06.14.07.35.11.53.25-.12.58-.17.74-.36,1.65-2,3.28-4.05,4.91-6.09a3.12,3.12,0,0,0,.31-.49c1.91-3.59,4-7.08,5.66-10.79,2.32-5.33,4.27-10.82,6.33-16.25a13.53,13.53,0,0,0,.74-2.81c.76-4.78,1.6-9.56,2.16-14.38a34.82,34.82,0,0,0-.76-10.37c-.82-4.48-1.75-8.93-2.61-13.4-.33-1.7-.45-3.46-.91-5.13-1-3.74-2.14-7.44-3.3-11.14-1.86-5.91-3.78-11.8-5.68-17.7-1.52-4.72-3.23-9.34-6.86-12.95C99,112.77,97.44,109.45,94,108c-2-.83-3.73-2-5.86-2.47-7.75-1.84-14.77.06-21.49,3.82a3.55,3.55,0,0,0-.93.7c-2.33,2.58-4.74,5.09-6.93,7.79A11.06,11.06,0,0,0,56.29,123a1.51,1.51,0,0,0,.27.92,3.93,3.93,0,0,0,1.29-.35c.13,0,.17-.33.23-.51a16.44,16.44,0,0,1,12.16-11.32C73,111,75.93,110.73,78.79,110.24ZM14.28,174.12c.31-4.34.49-8.7,1-13,.33-3,1.07-5.9,1.65-8.84a50.15,50.15,0,0,1,4.65-13.4,27.76,27.76,0,0,1,7-9.19,37.34,37.34,0,0,1,11.25-5.84,2.6,2.6,0,0,1,1.11-.09,17.74,17.74,0,0,1,5.77,1.73c.46.23.79,1.07,1.39.42.18-.2-.07-.9-.26-1.3-.86-1.83-1.74-3.72-3.55-4.79a10.72,10.72,0,0,0-7.81-1.5c-3.5.74-6.9,1.61-9.9,3.8-2.36,1.72-4.85,3.17-6.19,5.94-.46.94-1.31,1.68-1.87,2.58-1.18,1.87-2.79,3.51-3.16,5.82a2.56,2.56,0,0,1-.57,1c-3.18,4.13-4.91,9-6.56,13.82-1.22,3.57-2,7.27-3.06,10.89a70.38,70.38,0,0,0-2.61,12.19,21.89,21.89,0,0,0,.8,9.19c1,3.11,2.4,6.11,3.56,9.18,1.24,3.25,2.51,6.5,3.59,9.81,2.19,6.69,5.76,12.67,9.4,18.62.45.73.8,1.81,2,1.76a15,15,0,0,0-.07-2.85,21.34,21.34,0,0,0-1.07-2.7c-1.86-5.2-3.79-10.45-4.25-16C15.78,192.31,13.91,183.31,14.28,174.12Zm2.76,92,.07.24c1.66-.44,3.38-.76,5-1.36a78.3,78.3,0,0,1,11.58-3.58,1.24,1.24,0,0,0,1.09-1.68c-.13-.57-.22-1.14-.38-1.7-1.36-4.52-2.62-9.08-4.15-13.55-.82-2.41-1.26-5.07-3.33-6.9l-1-.9a8.75,8.75,0,0,0-.3,1.4c-.17,3.62-1.3,7-2.33,10.44a12.18,12.18,0,0,1-1.64,3.36c-1.66,2.48-3.44,4.87-5.2,7.28-.79,1.09-1.7,2.11-2.44,3.23a2.35,2.35,0,0,0,1.61,3.71A7.69,7.69,0,0,0,17,266.09ZM80.29,114.26c-1.51.22-3.06.35-4.56.68a15.32,15.32,0,0,0-7.57,4,2.41,2.41,0,0,0-.38.69,5,5,0,0,0,.55,0c5.68-.86,11.14.33,16.55,1.82A42.69,42.69,0,0,1,94,125.09a2.81,2.81,0,0,0,.72.17c-.08-.26-.08-.58-.24-.76-1.19-1.39-2.55-2.66-3.6-4.14-2.06-2.93-5.13-4.34-8.23-5.69A9.68,9.68,0,0,0,80.29,114.26Zm26.82,79.36.22,0c0,.48,0,1,0,1.45,0,1.44,0,2.89.07,4.33.52-1.39,1.13-2.76,1.55-4.19a43.44,43.44,0,0,0,1.64-13.17c-.06-3.09-.28-6.17-.52-9.25-.14-1.82-.44-3.64-.7-5.45a1.87,1.87,0,0,0-.35-.79c-.09-.13-.3-.18-.45-.26a.76.76,0,0,0-.12.26,10.12,10.12,0,0,0-.22,1.72c0,3.46.13,6.92.19,10.39a17,17,0,0,1-.07,2Q107.75,187.15,107.11,193.62Z"/><path class="cls-6" d="M100.83,182.85c0,5.13-.21,10.28.06,15.39a67.48,67.48,0,0,1-.62,12.15,9.2,9.2,0,0,0-.07,2c.51,5.32,0,10.58-.47,15.88-.39,4.85-2,9.22-3.83,13.63-2.43,6-6.74,10.37-12,13.86a85,85,0,0,1-10.37,5.83,29.27,29.27,0,0,1-6.93,2c-2.56.5-5-.58-7.36-1.33a29,29,0,0,1-14.2-9.64,9.8,9.8,0,0,0-1.44-1.44,36.36,36.36,0,0,1-6.06-7c-2.3-3.11-4.5-6.28-6.6-9.54a29,29,0,0,1-4-11.42c-.81-5.16-1.48-10.36-1.78-15.57-.37-6.58-.32-13.17-.43-19.76,0-2.22,0-4.44,0-6.66,0-4.17-.06-8.34-.08-12.5,0-3.59,0-7.17,0-10.75a35.23,35.23,0,0,1,5.82-19.47,18.33,18.33,0,0,0,1.07-1.73,14.9,14.9,0,0,1,7.5-7,8.43,8.43,0,0,1,5.88-.81c.46.12,1.1.32,1.4.11,2-1.37,4.22-.89,6.34-1.27,1.28-.23,2.47-.86,3.84-1,4.53-.58,9.07-.35,13.62-.39a46,46,0,0,1,11.8,1.29c5.69,1.45,11.1,3.58,13.25,10,.89,2.64,2.17,5.16,3,7.81A36.69,36.69,0,0,1,99.68,157c0,2.41.32,4.82.47,7.23.22,3.58.48,7.16.61,10.74.1,2.61,0,5.23,0,7.85Z"/><path class="cls-3" d="M131.38,170.41c-.32,5.49-.81,10.42-.85,15.36a60.74,60.74,0,0,1-2.32,16,193.39,193.39,0,0,1-9.42,26.23,53.82,53.82,0,0,1-12.16,16.84,31.07,31.07,0,0,1-10,6.34,3.75,3.75,0,0,1-1.11.34c-.65.05-1.32,0-2,0a14.35,14.35,0,0,1,.71-1.78c1.29-2.38,2.6-4.75,4-7.09a3,3,0,0,1,1.34-1.38,9.14,9.14,0,0,0,5.94-5.4,4,4,0,0,1,.89-1.45c3.26-2.78,5-6.53,6.8-10.28,1.24-2.63,2.55-5.22,3.7-7.89.72-1.67,1-3.54,1.83-5.17,3.18-6.43,4.48-13.35,5.52-20.37a29,29,0,0,0-.84-13.5,3.61,3.61,0,0,1-.18-1.42c.43-4.5-.89-8.84-1.21-13.27-.13-1.84-.46-3.66-.74-5.47a15,15,0,0,0-.51-2c-1.84-6.11-3.64-12.24-5.57-18.32-1-3.23-2.25-6.4-3.41-9.58s-2.15-6.22-3.52-9.19a34.57,34.57,0,0,0-3.43-5c-.16-.24-.41-.42-.57-.66a13.48,13.48,0,0,0-4.68-5,40.92,40.92,0,0,0-14.34-5.25,74.92,74.92,0,0,0-7.79-.52,16.48,16.48,0,0,0-2.87.32A26.49,26.49,0,0,0,58.87,110c-.4.42-.84.81-1.28,1.19a2.17,2.17,0,0,1-.51.24c0-.24-.07-.57.05-.72,1.61-1.94,3.18-3.91,4.88-5.76a22.56,22.56,0,0,1,11.14-6.51c2.24-.6,4.4-1.48,6.61-2.21a16.1,16.1,0,0,1,7.77-.4c3,.51,6.15.74,9.15,1.44,10.55,2.48,17.33,9.35,21.6,19,1.13,2.57,2.21,5.16,3.36,7.72a46.41,46.41,0,0,1,3.29,9.61,47.45,47.45,0,0,0,1.42,4.73,95.61,95.61,0,0,1,4,19.3C130.84,162.05,131.08,166.5,131.38,170.41Z"/><path class="cls-3" d="M78.79,110.24c-2.86.49-5.77.77-8.55,1.51a16.44,16.44,0,0,0-12.16,11.32c-.06.18-.1.46-.23.51a3.93,3.93,0,0,1-1.29.35,1.51,1.51,0,0,1-.27-.92,11.06,11.06,0,0,1,2.52-5.17c2.19-2.7,4.6-5.21,6.93-7.79a3.55,3.55,0,0,1,.93-.7c6.72-3.76,13.74-5.66,21.49-3.82,2.13.51,3.91,1.64,5.86,2.47,3.42,1.45,4.93,4.77,7.36,7.18,3.63,3.61,5.34,8.23,6.86,12.95,1.9,5.9,3.82,11.79,5.68,17.7,1.16,3.7,2.28,7.4,3.3,11.14.46,1.67.58,3.43.91,5.13.86,4.47,1.79,8.92,2.61,13.4a34.82,34.82,0,0,1,.76,10.37c-.56,4.82-1.4,9.6-2.16,14.38a13.53,13.53,0,0,1-.74,2.81c-2.06,5.43-4,10.92-6.33,16.25-1.61,3.71-3.75,7.2-5.66,10.79a3.12,3.12,0,0,1-.31.49c-1.63,2-3.26,4.07-4.91,6.09-.16.19-.49.24-.74.36,0-.18-.17-.39-.11-.53,1.5-3.67,1.3-7.62,1.9-11.44a46.23,46.23,0,0,0,.25-6.67,2.17,2.17,0,0,1,1.25-2.32,5.77,5.77,0,0,0,2.08-2.31c1.42-2.51,2.82-5.05,4-7.68a28,28,0,0,0,1.3-4.75c.4-1.6.72-3.21,1.15-4.8A51.61,51.61,0,0,0,114.22,183c0-5-.44-10-.71-15a8.36,8.36,0,0,0-.29-1.72c-1.7-6-3.67-12-5.06-18.17-1.31-5.81-3.67-11.15-6-16.58-1.2-2.84-3.12-5.37-3.69-8.47a.67.67,0,0,0-.1-.28c-2.19-2.68-3.71-6-6.68-8C87.85,112.19,83.82,109.88,78.79,110.24Z"/><path class="cls-3" d="M14.28,174.12c-.37,9.19,1.5,18.19,2.25,27.26.46,5.51,2.39,10.76,4.25,16a21.34,21.34,0,0,1,1.07,2.7,15,15,0,0,1,.07,2.85c-1.23.05-1.58-1-2-1.76-3.64-5.95-7.21-11.93-9.4-18.62C9.41,199.2,8.14,196,6.9,192.7c-1.16-3.07-2.52-6.07-3.56-9.18a21.89,21.89,0,0,1-.8-9.19,70.38,70.38,0,0,1,2.61-12.19c1-3.62,1.84-7.32,3.06-10.89,1.65-4.84,3.38-9.69,6.56-13.82a2.56,2.56,0,0,0,.57-1c.37-2.31,2-3.95,3.16-5.82.56-.9,1.41-1.64,1.87-2.58,1.34-2.77,3.83-4.22,6.19-5.94,3-2.19,6.4-3.06,9.9-3.8a10.72,10.72,0,0,1,7.81,1.5c1.81,1.07,2.69,3,3.55,4.79.19.4.44,1.1.26,1.3-.6.65-.93-.19-1.39-.42a17.74,17.74,0,0,0-5.77-1.73,2.6,2.6,0,0,0-1.11.09,37.34,37.34,0,0,0-11.25,5.84,27.76,27.76,0,0,0-7,9.19,50.15,50.15,0,0,0-4.65,13.4c-.58,2.94-1.32,5.87-1.65,8.84C14.77,165.42,14.59,169.78,14.28,174.12Z"/><path class="cls-3" d="M17,266.09a7.69,7.69,0,0,1-1.44,0A2.35,2.35,0,0,1,14,262.37c.74-1.12,1.65-2.14,2.44-3.23,1.76-2.41,3.54-4.8,5.2-7.28a12.18,12.18,0,0,0,1.64-3.36c1-3.42,2.16-6.82,2.33-10.44a8.75,8.75,0,0,1,.3-1.4l1,.9c2.07,1.83,2.51,4.49,3.33,6.9,1.53,4.47,2.79,9,4.15,13.55.16.56.25,1.13.38,1.7a1.24,1.24,0,0,1-1.09,1.68A78.3,78.3,0,0,0,22.1,265c-1.61.6-3.33.92-5,1.36Z"/><path class="cls-3" d="M80.29,114.26a9.68,9.68,0,0,1,2.31.41c3.1,1.35,6.17,2.76,8.23,5.69,1,1.48,2.41,2.75,3.6,4.14.16.18.16.5.24.76a2.81,2.81,0,0,1-.72-.17,42.69,42.69,0,0,0-9.07-3.61C79.47,120,74,118.8,68.33,119.66a5,5,0,0,1-.55,0,2.41,2.41,0,0,1,.38-.69,15.32,15.32,0,0,1,7.57-4C77.23,114.61,78.78,114.48,80.29,114.26Z"/><path class="cls-3" d="M107.11,193.62q.63-6.47,1.24-12.92a17,17,0,0,0,.07-2c-.06-3.47-.14-6.93-.19-10.39a10.12,10.12,0,0,1,.22-1.72.76.76,0,0,1,.12-.26c.15.08.36.13.45.26a1.87,1.87,0,0,1,.35.79c.26,1.81.56,3.63.7,5.45.24,3.08.46,6.16.52,9.25A43.44,43.44,0,0,1,109,195.23c-.42,1.43-1,2.8-1.55,4.19,0-1.44-.05-2.89-.07-4.33,0-.49,0-1,0-1.45Z"/><path class="cls-2" d="M48.22,222c-1.62,1.45-4.9,1.32-5.82-.17a9.58,9.58,0,0,1,4-3.16,4.67,4.67,0,0,1,5.45.82c1.12,1.07,2.09,2.3,3.16,3.42,1.28,1.33,2.07,3.11,3.73,4.09a1.45,1.45,0,0,1,.28.36c1.37,2,3.65,1.76,5.09,0a9.25,9.25,0,0,0,1.31-2.12,4.7,4.7,0,0,0,.26-1.76c0-1.55,0-3.11-.07-4.66a14.78,14.78,0,0,0-.33-2.48,66.07,66.07,0,0,0-2.09-7.43c-.71-2-1.37-4.1-2-6.17A56.22,56.22,0,0,1,58.9,192c-.07-1-.25-2-.41-3.05-.33-1.94-.74-3.87-1-5.82-.28-2.1-.48-4.21-.63-6.32-.1-1.59,0-3.18-.09-4.77a6.38,6.38,0,0,0-.31-1.29c1.53-1.33,4.65-.57,5.12,1.34a5.35,5.35,0,0,1,.36,1.86,5,5,0,0,0,.32,2.22,8.39,8.39,0,0,1,.19,1.9c.09.77.19,1.55.31,2.33s.25,1.4.38,2.1c0,.08,0,.16,0,.23.48,1.64.42,3.38.78,5A46.3,46.3,0,0,1,65,194.4a30,30,0,0,0,1.1,5.79,15.16,15.16,0,0,1,.83,4.11,1.31,1.31,0,0,0,0,.34c.57,2.08,1.13,4.16,1.72,6.24a38.3,38.3,0,0,1,1.58,11.21,20.76,20.76,0,0,1-.41,3,2.53,2.53,0,0,1-.39.81c-.14.23-.35.41-.48.64-1.41,2.53-3.85,3.37-6.45,4a13.36,13.36,0,0,1-5.73-.4A5.33,5.33,0,0,1,54,228.42c-1.61-1.65-3.15-3.36-4.7-5.06C49,222.94,48.62,222.47,48.22,222Z"/><path class="cls-1" d="M83.06,185.23a13.57,13.57,0,0,1-7.8-2.52c-2.26-1.52-4.14-6.48-3.28-9.24a11.46,11.46,0,0,1,2.14-3.67,6.8,6.8,0,0,1,2-1.75,17.58,17.58,0,0,1,6.29-2.44,10.28,10.28,0,0,1,1.84,0c.8,0,1.6.16,2.4.2a6.38,6.38,0,0,1,3.45,1.48A9.13,9.13,0,0,1,93.77,174a9.66,9.66,0,0,1-2,7.15,10.09,10.09,0,0,1-8,4.08C83.5,185.24,83.28,185.23,83.06,185.23Zm5.88-14.6A10.62,10.62,0,0,0,87.87,169a4.13,4.13,0,0,0-1.68-1.26,9.13,9.13,0,0,0-1.86-.43,3.92,3.92,0,0,0-1.37.12c-.82.26-1.62.6-2.42.94a8.55,8.55,0,0,0-5.21,6.32,2.78,2.78,0,0,0-.16,1.08c.26,1.13.24,2.36,1.08,3.31a4,4,0,0,1,.43.93,3.16,3.16,0,0,0,.44.81A7,7,0,0,0,80.79,183a4.2,4.2,0,0,0,3-.31,5,5,0,0,1-.49-.34c-.71-.59-1.44-1.16-2.11-1.8a2.64,2.64,0,0,1-.75-1.75,7.12,7.12,0,0,1,.93-4.38,7,7,0,0,1,5-3.56C87.22,170.75,88,170.72,88.94,170.63Z"/></g></g></svg>