<svg width="294" height="291" viewBox="0 0 294 291" fill="none" xmlns="http://www.w3.org/2000/svg">
<path d="M211.984 32.0415C233.566 49.2082 261.419 72.2877 276.512 104.01C302.039 157.634 298.319 205.476 267.149 240.316C249.784 259.748 221.176 272.279 180.343 261.813C138.729 251.159 100.875 234.59 65.3726 209.079C52.494 199.821 41.1206 186.162 32.9301 173.17C0.8221 122.306 11.2335 66.7317 42.435 39.7699C67.0638 18.5004 93.9428 3.58991 131.41 0.657268C158.689 -1.50265 181.94 8.92647 211.984 32.0415Z" fill="#EABBAE"/>
<mask id="path-2-inside-1" fill="white">
<path d="M198.717 56.5881C220.299 73.7548 248.152 96.8343 263.246 128.557C288.772 182.181 285.052 230.022 253.882 264.863C236.518 284.294 207.909 296.825 167.076 286.36C125.462 275.706 87.6088 259.136 52.106 233.626C39.2274 224.368 27.854 210.709 19.6635 197.716C-12.4445 146.853 -2.03314 91.2783 29.1684 64.3165C53.7972 43.047 80.6762 28.1365 118.144 25.2039C145.422 23.044 168.674 33.4731 198.717 56.5881Z"/>
</mask>
<path d="M198.717 56.5881C220.299 73.7548 248.152 96.8343 263.246 128.557C288.772 182.181 285.052 230.022 253.882 264.863C236.518 284.294 207.909 296.825 167.076 286.36C125.462 275.706 87.6088 259.136 52.106 233.626C39.2274 224.368 27.854 210.709 19.6635 197.716C-12.4445 146.853 -2.03314 91.2783 29.1684 64.3165C53.7972 43.047 80.6762 28.1365 118.144 25.2039C145.422 23.044 168.674 33.4731 198.717 56.5881Z" stroke="#F4F1EB" stroke-width="16" mask="url(#path-2-inside-1)"/>
<text fill="#F4F1EB" xml:space="preserve" style="white-space: pre" font-family="Beth Ellen" font-size="36" letter-spacing="0em"><tspan x="65.3232" y="110.382">small </tspan><tspan x="65.3232" y="150.382">business&#10;</tspan><tspan x="65.3232" y="190.382">consulting</tspan></text>
</svg>
