<svg width="262" height="241" viewBox="0 0 262 241" fill="none" xmlns="http://www.w3.org/2000/svg">
<path d="M11.3884 122.141C13.4783 101.63 16.9862 74.7852 36.1846 52.2394C68.5954 14.146 113.897 -3.44083 164.497 1.386C192.685 4.08604 221.636 16.5749 237.515 46.2206C253.677 76.4088 262.291 106.764 261.263 139.296C260.881 151.136 255.642 163.85 249.036 174.327C223.19 215.361 166.778 232.003 123.258 223.886C88.896 217.484 58.8905 207.004 33.0684 185.09C14.2504 169.077 9.21682 150.334 11.3884 122.141Z" fill="#C06D5B"/>
<mask id="path-2-inside-1" fill="white">
<path d="M1.38641 136.278C3.47633 115.767 6.98425 88.9224 26.1826 66.3766C58.5935 28.2832 103.895 10.6964 154.495 15.5232C182.683 18.2232 211.634 30.7121 227.513 60.3578C243.675 90.546 252.289 120.901 251.261 153.433C250.879 165.273 245.64 177.988 239.034 188.465C213.188 229.498 156.776 246.14 113.256 238.023C78.8941 231.622 48.8885 221.141 23.0664 199.228C4.24842 183.215 -0.785137 164.471 1.38641 136.278Z"/>
</mask>
<path d="M1.38641 136.278C3.47633 115.767 6.98425 88.9224 26.1826 66.3766C58.5935 28.2832 103.895 10.6964 154.495 15.5232C182.683 18.2232 211.634 30.7121 227.513 60.3578C243.675 90.546 252.289 120.901 251.261 153.433C250.879 165.273 245.64 177.988 239.034 188.465C213.188 229.498 156.776 246.14 113.256 238.023C78.8941 231.622 48.8885 221.141 23.0664 199.228C4.24842 183.215 -0.785137 164.471 1.38641 136.278Z" stroke="#F4F1EB" stroke-width="16" mask="url(#path-2-inside-1)"/>
<text fill="#F4F1EB" xml:space="preserve" style="white-space: pre" font-family="Beth Ellen" font-size="36" letter-spacing="0em"><tspan x="23.2505" y="152.533">e-commerce</tspan></text>
</svg>
