<svg width="294" height="291" viewBox="0 0 294 291" fill="none" xmlns="http://www.w3.org/2000/svg">
<path d="M212.587 32.3696C234.169 49.5363 262.022 72.6158 277.115 104.338C302.642 157.963 298.922 205.804 267.752 240.644C250.388 260.076 221.779 272.607 180.946 262.141C139.332 251.487 101.478 234.918 65.9756 209.407C53.097 200.149 41.7236 186.491 33.5331 173.498C1.42513 122.634 11.8365 67.0598 43.0381 40.098C67.6668 18.8285 94.5458 3.91803 132.013 0.985392C159.292 -1.17452 182.543 9.25459 212.587 32.3696Z" fill="#EABBAE"/>
<path d="M260.237 130.604L260.237 130.604C285.279 183.211 281.309 229.209 251.504 262.524L251.503 262.526C235.169 280.804 208.111 292.922 168.672 282.813L168.671 282.813C127.48 272.267 90.0945 255.892 55.0438 230.706C42.7097 221.84 31.6635 208.623 23.6503 195.912L23.649 195.909C-7.56599 146.461 2.90317 93.1496 32.3859 67.6723C56.5547 46.7999 82.6571 32.3693 119.059 29.5201L119.062 29.5198C144.874 27.476 167.131 37.2014 196.856 60.0673C218.475 77.2646 245.594 99.8292 260.237 130.604Z" stroke="#F4F1EB" stroke-width="8"/>
</svg>
