<svg width="56" height="51" viewBox="0 0 56 51" fill="none" xmlns="http://www.w3.org/2000/svg">
<path d="M25.9773 14.6285C21.8833 14.2472 16.5516 13.7175 12.5432 12.641C5.76422 10.8196 3.51432 8.79666 5.95585 6.8956C7.3085 5.83612 10.6901 4.89036 17.1467 4.70583C23.7296 4.51723 30.1254 4.62617 36.6857 5.14229C39.0732 5.33022 41.4989 5.72037 43.4287 6.13095C50.9877 7.73855 52.7281 10.1796 49.8244 11.7565C47.534 13.0019 44.5469 14.0191 39.3504 14.7041C35.5675 15.2019 31.6246 15.1236 25.9773 14.6285Z" fill="#DA9255" stroke="#DA9255" stroke-width="8" stroke-miterlimit="10"/>
<path d="M30.1749 26.7596C34.2689 26.9699 39.6006 27.2621 43.6089 27.856C50.3879 28.8608 52.6378 29.9768 50.1963 31.0255C48.8437 31.61 45.462 32.1318 39.0054 32.2336C32.4225 32.3376 26.0268 32.2775 19.4664 31.9928C17.079 31.8891 14.6533 31.6739 12.7235 31.4474C5.16444 30.5605 3.42404 29.2139 6.32772 28.3439C8.6182 27.6569 11.6053 27.0957 16.8017 26.7179C20.5846 26.4433 24.5276 26.4865 30.1749 26.7596Z" fill="#C06D5B" stroke="#C06D5B" stroke-width="8" stroke-miterlimit="10"/>
<path d="M25.9773 46.9384C21.8833 46.8815 16.5516 46.8024 12.5432 46.6416C5.76422 46.3696 3.51432 46.0675 5.95585 45.7835C7.3085 45.6253 10.6901 45.4841 17.1467 45.4565C23.7296 45.4283 30.1254 45.4446 36.6857 45.5217C39.0732 45.5498 41.4989 45.608 43.4287 45.6694C50.9877 45.9094 52.7281 46.274 49.8244 46.5095C47.534 46.6955 44.5469 46.8474 39.3504 46.9497C35.5675 47.0241 31.6246 47.0124 25.9773 46.9384Z" fill="#DA9255" stroke="#DA9255" stroke-width="8" stroke-miterlimit="10"/>
</svg>
