<svg xmlns="http://www.w3.org/2000/svg" viewBox="0 0 242.05 309.81"><defs><style>.cls-1{fill:#053b59;}</style></defs><g id="Layer_2" data-name="Layer 2"><g id="Layer_1-2" data-name="Layer 1"><path class="cls-1" d="M106.87,308.89c-23.51,3.91-41.33-5.22-63.12-16.38C26.35,283.6,8.12,274.26,2,253.34c-4.36-15-.47-28.87.4-31.79C4.12,215.89,6.5,211.11,24,188.16c20.39-26.79,24.11-29.42,26.88-39.08,3.62-12.63,1.75-23.78.4-31.79-2.13-12.71-5.14-13.56-10.16-31-5.2-18-7.8-27.05-4.81-36.68C40.07,37.4,50,30.34,63,21.14a119.19,119.19,0,0,1,47.74-19.5A108.33,108.33,0,0,1,131.9,0c26.74.78,45.3,12.47,52.56,17.18C209,33.09,219.9,54.54,226.05,67c8.31,16.82,19.45,39.37,15,67.67-1.77,11.17-4.52,14.07-32.5,66C184.23,245.68,186,244,181.5,250.3,168.07,269,143.76,302.76,106.87,308.89Z"/></g></g></svg>