<svg width="1401" height="1017" viewBox="0 0 1401 1017" fill="none" xmlns="http://www.w3.org/2000/svg">
<path d="M1327.47 162.815C1394.1 247.822 1396.67 338.8 1399.81 449.998C1402.26 538.966 1404.98 631.907 1335.29 702.109C1285.43 752.371 1221.86 767.441 1208.3 770.593C1182.21 776.318 1158.1 777.339 1029.19 758.17C878.615 735.906 860.271 726.781 815.701 737.113C757.776 750.465 717.635 782.427 688.845 805.365C643.103 841.819 646.441 855.8 588.105 913.917C527.945 974.267 497.929 1004.23 453.179 1013.7C396.241 1025.39 346.778 1001.38 282.033 969.932C211.607 934.725 149.756 884.505 100.837 822.809C80.8116 797.741 63.3074 770.759 48.5786 742.255C-6.73033 633.95 -0.779169 534.397 2.10418 495.162C11.8025 362.825 72.9829 272.075 108.833 220.254C157.441 150.181 222.553 56.3857 344.499 11.9146C392.719 -5.62933 410.182 -1.02714 676.723 -3.65269C908.196 -6.06649 897.572 -9.5519 932.471 -5.36396C1035.84 6.91176 1222.66 29.4098 1327.47 162.815Z" fill="#053B59"/>
</svg>
