<svg width="375" height="667" viewBox="0 0 375 667" fill="none" xmlns="http://www.w3.org/2000/svg">
<path fill-rule="evenodd" clip-rule="evenodd" d="M214.982 667H97.7927C79.1706 659.242 60.5649 648.676 40.4374 637.245L40.4072 637.228C26.7464 629.471 12.8557 621.583 0 612.353V374.645C10.0308 360.095 18.1318 348.617 24.7343 339.263C45.9544 309.197 51.6953 301.063 56.2711 283.369C64.3254 252.209 60.1648 224.701 57.1611 204.939C54.5874 187.91 51.4362 179.51 47.3048 168.498C43.8288 159.233 39.6591 148.118 34.5556 128.459C22.9859 84.0506 17.201 61.7231 23.8536 37.9648C28.0442 22.8752 35.6795 10.9739 45.8924 0H375V477.067C370.366 486.77 366.767 494.363 363.892 500.428C353.786 521.746 352.628 524.19 346.894 533.091C321.371 572.498 278.186 639.013 214.982 667Z" fill="#053B59"/>
</svg>
