<svg width="553" height="705" viewBox="0 0 553 705" fill="none" xmlns="http://www.w3.org/2000/svg">
<path d="M243.86 702.906C190.229 711.802 149.578 691.028 99.8702 665.634C60.1772 645.36 18.5908 624.108 4.62978 576.506C-5.31628 542.375 3.55761 510.815 5.54226 504.171C9.46594 491.292 14.8952 480.416 54.8163 428.195C101.33 367.237 109.816 361.252 116.135 339.272C124.393 310.533 120.127 285.162 117.048 266.936C112.189 238.016 105.322 236.082 93.8706 196.399C82.0083 155.441 76.0772 134.849 82.898 112.936C91.4753 85.1536 114.128 69.0892 143.783 48.1554C176.404 25.6153 213.575 10.4707 252.688 3.78482C268.617 0.96799 284.785 -0.281899 300.958 0.0531393C361.958 1.82796 404.297 28.4275 420.859 39.1447C476.84 75.3466 501.705 124.154 515.734 152.506C534.691 190.778 560.104 242.089 549.952 306.483C545.914 331.899 539.641 338.498 475.813 456.66C420.334 559.077 424.372 555.254 414.106 569.589C383.47 612.139 328.014 688.957 243.86 702.906Z" fill="#053B59"/>
</svg>
