<svg xmlns="http://www.w3.org/2000/svg" viewBox="0 0 273.58 295.58"><defs><style>.cls-1{fill:none;stroke:#053b59;stroke-miterlimit:10;stroke-width:8px;}</style></defs><g id="Layer_2" data-name="Layer 2"><g id="Layer_1-2" data-name="Layer 1"><path class="cls-1" d="M10.85,60.89C20.64,39.66,37.91,30.18,59,18.58,75.88,9.32,93.55-.38,114,6.11c14.6,4.64,23.78,15.4,25.68,17.7,3.68,4.46,6.26,9,15.33,35.73,10.59,31.2,10.69,35.66,17,43.19,8.3,9.85,18.42,14.42,25.69,17.7,11.53,5.21,13.89,3.24,30.85,8.68,17.57,5.63,26.35,8.45,32.55,16.14,7.88,9.76,8.14,21.71,8.47,37.29A116.43,116.43,0,0,1,259.12,232a106.75,106.75,0,0,1-10.35,18c-15.38,21.28-35.15,30-43,33.29-26.46,11.22-50,8.38-63.5,6.57-18.29-2.44-42.82-5.72-63.41-24.82-8.13-7.54-9-11.36-35.84-62.44-23.33-44.35-23-42-25.59-49.1C9.63,132.4-4.5,94.2,10.85,60.89Z"/></g></g></svg>