<svg width="1766" height="1746" viewBox="0 0 1766 1746" fill="none" xmlns="http://www.w3.org/2000/svg">
<path d="M1506.17 541.595C1572.79 626.602 1575.36 717.58 1578.51 828.778C1580.95 917.746 1583.67 1010.69 1513.99 1080.89C1464.12 1131.15 1400.55 1146.22 1386.99 1149.37C1360.91 1155.1 1336.8 1156.12 1207.89 1136.95C1057.31 1114.69 1038.96 1105.56 994.393 1115.89C936.467 1129.25 896.327 1161.21 867.537 1184.15C821.795 1220.6 825.133 1234.58 766.796 1292.7C706.637 1353.05 676.62 1383.01 631.871 1392.48C574.932 1404.17 525.47 1380.16 460.725 1348.71C390.299 1313.5 328.448 1263.29 279.529 1201.59C259.503 1176.52 241.999 1149.54 227.27 1121.04C171.961 1012.73 177.912 913.178 180.796 873.942C190.494 741.605 251.674 650.855 287.524 599.035C336.133 528.961 401.244 435.166 523.19 390.695C571.411 373.151 588.874 377.753 855.415 375.128C1086.89 372.714 1076.26 369.229 1111.16 373.416C1214.53 385.692 1401.35 408.19 1506.17 541.595Z" fill="#053B59"/>
</svg>
