<svg width="334" height="350" viewBox="0 0 334 350" fill="none" xmlns="http://www.w3.org/2000/svg">
<path d="M286.635 142.276L286.634 142.276C271.992 111.501 244.872 88.9365 223.253 71.7391C193.528 48.8735 171.272 39.1482 145.46 41.192L145.456 41.1923C109.055 44.0414 82.9528 58.4718 58.7843 79.3437L286.635 142.276ZM286.635 142.276C311.676 194.883 307.706 240.881 277.902 274.196L277.9 274.198M286.635 142.276L277.9 274.198M277.9 274.198C261.567 292.476 234.508 304.594 195.07 294.486L195.069 294.485M277.9 274.198L195.069 294.485M195.069 294.485C153.878 283.939 116.492 267.564 81.4413 242.378C69.1072 233.512 58.061 220.295 50.0478 207.584L50.0465 207.582M195.069 294.485L50.0465 207.582M50.0465 207.582C18.8315 158.133 29.3007 104.822 58.7834 79.3444L50.0465 207.582Z" stroke="#F4F1EB" stroke-width="8"/>
</svg>
