<svg width="252" height="227" viewBox="0 0 252 227" fill="none" xmlns="http://www.w3.org/2000/svg">
<path d="M29.2267 54.9715L29.2256 54.9727C10.9157 76.4751 7.4571 102.155 5.36899 122.635C4.30944 136.44 5.04761 147.572 8.15514 157.075C11.239 166.506 16.7418 174.592 25.6539 182.177M29.2267 54.9715L223.99 48.2483C239.893 77.9523 248.267 107.615 247.266 139.306C246.914 150.167 242.052 162.18 235.653 172.328L235.652 172.329C210.888 211.645 156.32 227.984 113.988 220.088L113.987 220.088C79.9821 213.753 50.7377 203.463 25.6539 182.177M29.2267 54.9715C60.7527 17.9181 104.754 0.798607 154.115 5.50678M29.2267 54.9715L26.1829 52.3763C58.5937 14.2829 103.895 -3.30393 154.495 1.5229L154.115 5.50678M25.6539 182.177C25.6545 182.177 25.6552 182.178 25.6558 182.178L23.0667 185.227L25.6517 182.175C25.6524 182.175 25.6532 182.176 25.6539 182.177ZM154.115 5.50678C181.457 8.12571 208.943 20.1557 223.99 48.2476L154.115 5.50678Z" stroke="#F4F1EB" stroke-width="8"/>
</svg>
