<svg width="350" height="729" viewBox="0 0 350 729" fill="none" xmlns="http://www.w3.org/2000/svg">
<path d="M62.1732 4.82728L178.028 4.82728C178.028 4.82728 313.795 -6.03411 331.898 4.82728C350 15.6887 350 33.791 350 33.791L350 685.474C346.975 704.629 342.671 711.68 331.898 719.869C315.401 725.989 305.413 728.404 284.832 728.92H149.064H51.3118C33.086 727.948 23.6374 725.02 9.67646 710.818C1.53002 690.414 -1.41727 677.942 0.625303 651.08L0.625303 160.507L9.67646 33.791C25.2388 10.2997 37.6547 6.23107 62.1732 4.82728Z" fill="#16559D"/>
<path d="M149.344 46.1621C168.653 46.1621 187.962 46.1621 207.272 46.1621" stroke="#053B59" stroke-width="8" stroke-linecap="round" stroke-linejoin="round"/>
<path d="M151.143 680.323C151.725 675.156 152.654 668.414 157.097 662.789C164.554 653.298 174.81 649.043 186.138 650.458C192.454 651.246 198.885 654.521 202.27 662.056C205.738 669.742 207.506 677.437 207.098 685.645C206.951 688.632 205.724 691.82 204.166 694.44C198.148 704.7 185.414 708.667 175.703 706.45C168.022 704.7 161.339 701.952 155.664 696.29C151.532 692.186 150.511 687.432 151.143 680.323Z" fill="#053B59"/>
</svg>
