<svg xmlns="http://www.w3.org/2000/svg" viewBox="0 0 243.53 232.82"><defs><style>.cls-1{fill:#16559d;}</style></defs><g id="Layer_2" data-name="Layer 2"><g id="Layer_1-2" data-name="Layer 1"><path class="cls-1" d="M190,4.28c18.72,7.28,27.76,21.59,38.81,39.08,8.83,14,18.08,28.61,13.59,46.45-3.21,12.77-11.95,21.21-13.82,23-3.63,3.39-7.39,5.84-29.83,15-26.2,10.72-30,11-36.15,16.88-8,7.63-11.39,16.55-13.82,22.95-3.86,10.17-2,12.09-5.82,26.92-3.9,15.36-5.86,23-12.12,28.76-8,7.27-18.19,8.12-31.53,9.23a100.17,100.17,0,0,1-42.94-6.35,90.75,90.75,0,0,1-16-7.93C21.25,206.19,12.76,189.7,9.5,183.15c-11-22.09-9.82-42.41-9-54.1,1.13-15.82,2.65-37,17.94-55.68,6.05-7.38,9.28-8.3,51.67-34,36.8-22.34,34.77-21.89,40.75-24.53C128.56,7,160.58-7.12,190,4.28Z"/></g></g></svg>