<svg width="345" height="251" viewBox="0 0 345 251" fill="none" xmlns="http://www.w3.org/2000/svg">
<path d="M332.649 57.898C346.637 79.9854 344.952 102.35 342.894 129.685C341.231 151.554 339.533 174.403 320.864 190.331C307.506 201.736 291.719 204.253 288.353 204.775C281.887 205.696 276.018 205.499 245.266 198.407C209.341 190.153 205.127 187.575 194.065 189.283C179.689 191.484 169.151 198.58 161.593 203.672C149.584 211.766 150.038 215.258 134.427 228.432C118.318 242.12 110.284 248.913 99.1998 250.408C85.1055 252.219 73.7285 245.412 58.8366 236.497C42.6635 226.555 28.9492 213.089 18.6596 197.048C14.4427 190.528 10.8854 183.584 8.03918 176.319C-2.61648 148.727 1.35084 124.417 3.04477 114.846C8.75173 82.5637 25.8793 61.4374 35.8812 49.3906C49.4379 33.1031 67.5954 11.3026 98.2743 2.65516C110.405 -0.754187 114.519 0.698525 179.176 4.99692C235.33 8.69697 232.844 7.64503 241.195 9.31944C265.932 14.2474 310.633 23.2303 332.649 57.898Z" fill="#16559D"/>
</svg>
