<svg width="375" height="1877" viewBox="0 0 375 1877" fill="none" xmlns="http://www.w3.org/2000/svg">
<path d="M-9.24833 1322.99C29.6611 1299.63 81.7661 1270.67 150.838 1279.3C267.638 1293.85 368.804 1362.21 439.344 1471.53C478.645 1532.43 502.079 1608.13 475.412 1680.11C448.046 1753.7 408.71 1812.03 350.551 1853.76C329.437 1868.85 298.948 1875.31 270.574 1876.12C158.957 1878.78 42.0786 1786.56 -11.709 1687.25C-54.0886 1608.89 -82.8007 1533.72 -84.8779 1451.7C-86.3809 1392.01 -61.6405 1356.55 -9.24833 1322.99Z" fill="#DA9255"/>
<path d="M-124.386 203.62C-122.354 158.282 -117.697 98.8525 -72.3313 46.0564C4.33561 -43.2523 117.218 -89.7897 247.307 -88.1728C319.787 -87.271 395.823 -64.9725 441.078 -2.96991C487.294 60.5077 514.172 125.526 516.813 197.058C517.72 222.993 506.252 251.971 491.246 276.067C431.787 370.566 290.338 417.015 177.844 406.963C89.1167 398.982 10.6048 381.376 -58.903 337.781C-109.487 306.046 -125.369 265.831 -124.386 203.62Z" fill="#EABBAE"/>
<path d="M-16.1803 1002.02C-37.1111 961.75 -62.8196 907.967 -49.9653 839.555C-28.2837 723.867 46.1572 627.085 159.593 563.382C222.795 527.891 299.784 509.144 369.993 540.176C441.772 572.005 497.58 614.845 535.665 675.453C549.43 697.453 554.003 728.281 553.07 756.651C548.884 868.222 449.667 979.223 347.242 1026.82C266.431 1064.31 189.647 1088.36 107.653 1085.4C47.9772 1083.24 14.1012 1056.37 -16.1803 1002.02Z" fill="#B38C6D"/>
</svg>
