<svg width="233" height="231" viewBox="0 0 233 231" fill="none" xmlns="http://www.w3.org/2000/svg">
<path d="M150.563 34.399L150.575 34.4046C186.387 51.5733 207.147 81.2467 210.675 118.411L210.675 118.412C212.617 138.835 206.843 160.914 185.849 176.582L185.843 176.587C163.209 193.535 139.485 204.804 112.615 209.397L112.612 209.397C103.566 210.949 92.8395 209.415 83.3901 206.311L83.3764 206.307L83.3626 206.303C46.8943 194.557 25.2387 157.044 25.4172 124.74L25.4173 124.738C25.5507 98.2463 29.6843 74.8674 43.7261 52.7299L43.7318 52.7209C53.2783 37.5995 66.7176 31.0683 90.1876 27.9863C107.922 26.0863 129.853 24.4045 150.563 34.399Z" fill="#F4F1EB" stroke="#C06D5B" stroke-width="10"/>
</svg>
