<svg width="261" height="246" viewBox="0 0 261 246" fill="none" xmlns="http://www.w3.org/2000/svg">
<path d="M0.729783 132.504C3.1957 110.602 7.13728 82.0203 25.9714 58.1766C57.5817 17.9453 101.056 -0.0927229 149.073 5.90702C175.848 9.24668 203.109 23.1296 217.458 55.07C232.157 87.6511 239.652 120.271 237.923 155.066C237.302 167.725 232.098 181.239 225.497 192.346C199.983 235.839 146.005 252.654 104.842 243.256C72.2801 235.839 43.9512 224.189 19.894 200.19C2.3802 182.793 -1.94971 162.638 0.729783 132.504Z" fill="#B38C6D"/>
<mask id="path-2-inside-1" fill="white">
<path d="M23.0384 127.723C25.5043 105.821 29.4459 77.24 48.28 53.3963C79.8903 13.1651 123.364 -4.873 171.382 1.12675C198.157 4.46641 225.418 18.3493 239.767 50.2897C254.465 82.8708 261.96 115.491 260.232 150.285C259.611 162.945 254.407 176.459 247.805 187.565C222.292 231.059 168.314 247.873 127.15 238.476C94.5887 231.059 66.2598 219.409 42.2026 195.41C24.6888 178.012 20.3589 157.858 23.0384 127.723Z"/>
</mask>
<path d="M23.0384 127.723C25.5043 105.821 29.4459 77.24 48.28 53.3963C79.8903 13.1651 123.364 -4.873 171.382 1.12675C198.157 4.46641 225.418 18.3493 239.767 50.2897C254.465 82.8708 261.96 115.491 260.232 150.285C259.611 162.945 254.407 176.459 247.805 187.565C222.292 231.059 168.314 247.873 127.15 238.476C94.5887 231.059 66.2598 219.409 42.2026 195.41C24.6888 178.012 20.3589 157.858 23.0384 127.723Z" stroke="#F4F1EB" stroke-width="16" mask="url(#path-2-inside-1)"/>
<text fill="#F4F1EB" xml:space="preserve" style="white-space: pre" font-family="Beth Ellen" font-size="36" letter-spacing="0em"><tspan x="43.3086" y="130.54">research </tspan><tspan x="43.3086" y="170.54">+ testing</tspan></text>
</svg>
