<svg width="1440" height="1024" viewBox="0 0 1440 1024" fill="none" xmlns="http://www.w3.org/2000/svg">
<path d="M1010.75 562.987C1049.66 539.626 1101.77 510.667 1170.84 519.301C1287.64 533.846 1388.8 602.21 1459.34 711.525C1498.65 772.432 1522.08 848.126 1495.41 920.106C1468.05 993.702 1428.71 1052.03 1370.55 1093.76C1349.44 1108.85 1318.95 1115.31 1290.57 1116.12C1178.96 1118.78 1062.08 1026.56 1008.29 927.247C965.911 848.888 937.199 773.723 935.122 691.702C933.619 632.006 958.36 596.546 1010.75 562.987Z" fill="#DA9255"/>
<path d="M408.613 259.62C410.645 214.282 415.303 154.852 460.668 102.056C537.335 12.7476 650.218 -33.7898 780.306 -32.1729C852.786 -31.271 928.822 -8.97256 974.077 53.03C1020.29 116.508 1047.17 181.526 1049.81 253.058C1050.72 278.993 1039.25 307.971 1024.25 332.067C964.786 426.566 823.337 473.015 710.843 462.963C622.116 454.982 543.604 437.376 474.096 393.781C423.512 362.046 407.63 321.831 408.613 259.62Z" fill="#EABBAE"/>
<path d="M-26.1807 1003.02C-47.1115 962.751 -72.82 908.968 -59.9658 840.556C-38.2842 724.867 36.1567 628.085 149.593 564.383C212.795 528.891 289.784 510.145 359.993 541.177C431.772 573.005 487.58 615.845 525.665 676.454C539.429 698.454 544.002 729.281 543.069 757.651C538.883 869.222 439.667 980.223 337.242 1027.82C256.431 1065.31 179.647 1089.36 97.6524 1086.4C37.9768 1084.24 4.10075 1057.37 -26.1807 1003.02Z" fill="#B38C6D"/>
</svg>
