<svg width="289" height="206" viewBox="0 0 289 206" fill="none" xmlns="http://www.w3.org/2000/svg">
<path d="M262.983 46.0813C274.071 63.5886 272.736 81.3155 271.104 102.982C269.786 120.317 268.44 138.427 253.643 151.053C243.054 160.092 230.541 162.088 227.873 162.501C222.748 163.231 218.096 163.075 193.721 157.454C165.245 150.912 161.905 148.868 153.137 150.222C141.742 151.966 133.389 157.591 127.398 161.628C117.879 168.043 118.239 170.811 105.866 181.253C93.097 192.103 86.7291 197.487 77.9431 198.672C66.7715 200.107 57.7537 194.712 45.9498 187.646C33.1304 179.765 22.26 169.091 14.104 156.377C10.7616 151.209 7.94192 145.705 5.68593 139.946C-2.76015 118.075 0.384499 98.8067 1.72718 91.2204C6.25072 65.6323 19.8267 48.8868 27.7545 39.3381C38.5001 26.428 52.8923 9.14815 77.2096 2.29384C86.8244 -0.408529 90.0861 0.742947 141.336 4.15001C185.845 7.08281 183.874 6.249 190.493 7.5762C210.101 11.4823 245.533 18.6025 262.983 46.0813Z" fill="#16559D"/>
<mask id="path-2-inside-1" fill="white">
<path d="M279.294 53.0896C290.381 70.5969 289.046 88.3238 287.415 109.991C286.097 127.325 284.75 145.436 269.953 158.061C259.365 167.101 246.851 169.096 244.184 169.51C239.058 170.24 234.407 170.084 210.031 164.462C181.556 157.92 178.216 155.876 169.447 157.23C158.053 158.975 149.7 164.599 143.709 168.636C134.19 175.051 134.55 177.819 122.176 188.261C109.408 199.111 103.04 204.495 94.2537 205.68C83.0821 207.116 74.0642 201.72 62.2604 194.654C49.441 186.773 38.5705 176.1 30.4146 163.385C27.0722 158.217 24.2525 152.713 21.9965 146.955C13.5504 125.084 16.695 105.815 18.0377 98.2287C22.5613 72.6406 36.1372 55.8951 44.0651 46.3464C54.8106 33.4363 69.2029 16.1565 93.5201 9.30214C103.135 6.59977 106.397 7.75125 157.646 11.1583C202.155 14.0911 200.185 13.2573 206.804 14.5845C226.412 18.4906 261.844 25.6108 279.294 53.0896Z"/>
</mask>
<path d="M279.294 53.0896C290.381 70.5969 289.046 88.3238 287.415 109.991C286.097 127.325 284.75 145.436 269.953 158.061C259.365 167.101 246.851 169.096 244.184 169.51C239.058 170.24 234.407 170.084 210.031 164.462C181.556 157.92 178.216 155.876 169.447 157.23C158.053 158.975 149.7 164.599 143.709 168.636C134.19 175.051 134.55 177.819 122.176 188.261C109.408 199.111 103.04 204.495 94.2537 205.68C83.0821 207.116 74.0642 201.72 62.2604 194.654C49.441 186.773 38.5705 176.1 30.4146 163.385C27.0722 158.217 24.2525 152.713 21.9965 146.955C13.5504 125.084 16.695 105.815 18.0377 98.2287C22.5613 72.6406 36.1372 55.8951 44.0651 46.3464C54.8106 33.4363 69.2029 16.1565 93.5201 9.30214C103.135 6.59977 106.397 7.75125 157.646 11.1583C202.155 14.0911 200.185 13.2573 206.804 14.5845C226.412 18.4906 261.844 25.6108 279.294 53.0896Z" stroke="#F4F1EB" stroke-width="16" mask="url(#path-2-inside-1)"/>
<text transform="translate(58.1558 74.8237)" fill="#F4F1EB" xml:space="preserve" style="white-space: pre" font-family="Beth Ellen" font-size="36" letter-spacing="0em"><tspan x="0" y="38.54">web design</tspan></text>
</svg>
