<svg width="348" height="347" viewBox="0 0 348 347" fill="none" xmlns="http://www.w3.org/2000/svg">
<path d="M288.357 220.018L288.356 220.019C278.688 228.273 267.166 230.154 264.595 230.553C260.334 231.158 256.374 231.202 231.93 225.564L231.927 225.564C224.713 223.906 219.014 222.512 214.435 221.392C210.138 220.341 206.827 219.531 204.176 218.971C198.351 217.741 194.821 217.507 189.837 218.277C177.55 220.16 168.575 226.207 162.59 230.241L162.474 230.319L162.473 230.319C157.386 233.748 154.871 236.266 152.107 239.19C151.897 239.412 151.686 239.636 151.472 239.863C148.995 242.492 146.122 245.542 140.597 250.205L140.586 250.213C127.499 261.334 122.097 265.717 114.732 266.714C105.19 267.936 97.4092 263.462 85.3357 256.234C73.0393 248.671 62.6099 238.429 54.7816 226.226L54.7776 226.219L54.7736 226.213C51.579 221.273 48.8828 216.012 46.7246 210.505C38.6888 189.689 41.6673 171.324 42.9767 163.926L42.9768 163.925C47.3079 139.426 60.2889 123.361 68.1412 113.904C78.9255 100.947 92.6151 84.6336 115.603 78.1531C119.876 76.9519 122.643 76.5716 130.792 76.9354C135.577 77.1489 142.032 77.6096 151.492 78.2847C158.581 78.7905 167.357 79.4167 178.381 80.1496L178.383 80.1498C197.468 81.4073 208.025 81.9736 214.365 82.3137C215.426 82.3706 216.369 82.4212 217.215 82.4676C223.043 82.7878 223.985 82.8984 227.018 83.5066L227.023 83.5076C236.847 85.4647 250.233 88.1571 263.301 93.6817C276.354 99.2001 288.779 107.42 296.917 120.233C307.188 136.453 306.073 152.821 304.427 174.687C303.085 192.324 301.697 208.637 288.357 220.018Z" stroke="#F4F1EB" stroke-width="8"/>
</svg>
