<svg width="289" height="206" viewBox="0 0 289 206" fill="none" xmlns="http://www.w3.org/2000/svg">
<path d="M262.983 46.0818C274.071 63.5891 272.736 81.3159 271.104 102.983C269.786 120.317 268.44 138.428 253.643 151.053C243.054 160.093 230.541 162.089 227.873 162.502C222.748 163.232 218.096 163.076 193.721 157.454C165.245 150.912 161.905 148.868 153.137 150.222C141.742 151.967 133.389 157.591 127.398 161.628C117.879 168.044 118.239 170.811 105.866 181.254C93.097 192.103 86.7291 197.488 77.9431 198.672C66.7715 200.108 57.7537 194.712 45.9498 187.646C33.1304 179.765 22.26 169.092 14.104 156.377C10.7616 151.209 7.94192 145.706 5.68594 139.947C-2.76015 118.076 0.3845 98.8071 1.72718 91.2209C6.25072 65.6328 19.8267 48.8873 27.7545 39.3385C38.5001 26.4285 52.8923 9.14864 77.2096 2.29433C86.8244 -0.408041 90.0861 0.743435 141.336 4.1505C185.845 7.0833 183.874 6.24949 190.493 7.57669C210.101 11.4827 245.533 18.603 262.983 46.0818Z" fill="#16559D"/>
<mask id="path-2-inside-1" fill="white">
<path d="M279.294 53.0896C290.381 70.5969 289.046 88.3238 287.415 109.991C286.097 127.325 284.75 145.436 269.953 158.061C259.365 167.101 246.851 169.096 244.184 169.51C239.058 170.24 234.407 170.084 210.031 164.462C181.556 157.92 178.216 155.876 169.447 157.23C158.053 158.975 149.7 164.599 143.709 168.636C134.19 175.051 134.55 177.819 122.176 188.261C109.408 199.111 103.04 204.495 94.2537 205.68C83.0821 207.116 74.0642 201.72 62.2604 194.654C49.441 186.773 38.5705 176.1 30.4146 163.385C27.0722 158.217 24.2525 152.713 21.9965 146.955C13.5504 125.084 16.695 105.815 18.0377 98.2287C22.5613 72.6406 36.1372 55.8951 44.0651 46.3464C54.8106 33.4363 69.2029 16.1565 93.5201 9.30214C103.135 6.59977 106.397 7.75125 157.646 11.1583C202.155 14.0911 200.185 13.2573 206.804 14.5845C226.412 18.4906 261.844 25.6108 279.294 53.0896Z"/>
</mask>
<path d="M279.294 53.0896C290.381 70.5969 289.046 88.3238 287.415 109.991C286.097 127.325 284.75 145.436 269.953 158.061C259.365 167.101 246.851 169.096 244.184 169.51C239.058 170.24 234.407 170.084 210.031 164.462C181.556 157.92 178.216 155.876 169.447 157.23C158.053 158.975 149.7 164.599 143.709 168.636C134.19 175.051 134.55 177.819 122.176 188.261C109.408 199.111 103.04 204.495 94.2537 205.68C83.0821 207.116 74.0642 201.72 62.2604 194.654C49.441 186.773 38.5705 176.1 30.4146 163.385C27.0722 158.217 24.2525 152.713 21.9965 146.955C13.5504 125.084 16.695 105.815 18.0377 98.2287C22.5613 72.6406 36.1372 55.8951 44.0651 46.3464C54.8106 33.4363 69.2029 16.1565 93.5201 9.30214C103.135 6.59977 106.397 7.75125 157.646 11.1583C202.155 14.0911 200.185 13.2573 206.804 14.5845C226.412 18.4906 261.844 25.6108 279.294 53.0896Z" stroke="#F4F1EB" stroke-width="16" mask="url(#path-2-inside-1)"/>
</svg>
