<svg width="254" height="240" viewBox="0 0 254 240" fill="none" xmlns="http://www.w3.org/2000/svg">
<path d="M0.709651 128.85C3.10754 107.552 6.94039 79.7591 25.255 56.5732C55.9933 17.4518 98.2678 -0.088667 144.961 5.74557C170.997 8.9931 197.506 22.493 211.46 53.5523C225.752 85.2346 233.04 116.955 231.36 150.789C230.756 163.1 225.696 176.241 219.276 187.041C194.467 229.334 141.977 245.685 101.95 236.547C70.2862 229.334 42.7388 218.006 19.3452 194.669C2.31454 177.752 -1.89593 158.153 0.709651 128.85Z" fill="#B38C6D"/>
<path d="M50.0862 54.4028L50.0926 54.3946C79.9988 16.3323 120.912 -0.588567 166.157 5.0648L166.158 5.06491C191.149 8.18204 216.25 21.0408 229.503 50.5415L229.506 50.5473C243.587 81.7595 250.701 112.848 249.057 145.941L249.057 145.944C248.495 157.393 243.742 169.897 237.53 180.347L237.524 180.357L237.518 180.367C213.715 220.945 163.11 236.805 124.532 227.997L124.53 227.997C93.28 220.879 66.5314 209.801 43.8626 187.187L43.8566 187.181C28.0132 171.443 23.84 153.262 26.3822 124.601C28.7815 103.3 32.5603 76.5902 50.0862 54.4028Z" stroke="#F4F1EB" stroke-width="8"/>
</svg>
