<svg width="262" height="241" viewBox="0 0 262 241" fill="none" xmlns="http://www.w3.org/2000/svg">
<path d="M11.3874 122.14C13.4773 101.63 16.9852 74.7847 36.1836 52.2389C68.5945 14.1455 113.896 -3.44132 164.496 1.38551C192.684 4.08555 221.635 16.5744 237.514 46.2201C253.676 76.4083 262.29 106.763 261.262 139.295C260.88 151.135 255.641 163.85 249.035 174.327C223.189 215.361 166.777 232.002 123.257 223.885C88.895 217.484 58.8895 207.003 33.0674 185.09C14.2494 169.077 9.21584 150.333 11.3874 122.14Z" fill="#C06D5B"/>
<mask id="path-2-inside-1" fill="white">
<path d="M1.38543 136.277C3.47535 115.767 6.98326 88.9219 26.1816 66.3761C58.5925 28.2827 103.894 10.6959 154.494 15.5227C182.682 18.2228 211.633 30.7117 227.512 60.3573C243.674 90.5455 252.288 120.9 251.26 153.433C250.878 165.272 245.639 177.987 239.033 188.464C213.187 229.498 156.775 246.139 113.255 238.023C78.8931 231.621 48.8875 221.141 23.0655 199.227C4.24744 183.214 -0.786114 164.47 1.38543 136.277Z"/>
</mask>
<path d="M1.38543 136.277C3.47535 115.767 6.98326 88.9219 26.1816 66.3761C58.5925 28.2827 103.894 10.6959 154.494 15.5227C182.682 18.2228 211.633 30.7117 227.512 60.3573C243.674 90.5455 252.288 120.9 251.26 153.433C250.878 165.272 245.639 177.987 239.033 188.464C213.187 229.498 156.775 246.139 113.255 238.023C78.8931 231.621 48.8875 221.141 23.0655 199.227C4.24744 183.214 -0.786114 164.47 1.38543 136.277Z" stroke="#F4F1EB" stroke-width="16" mask="url(#path-2-inside-1)"/>
</svg>
